Palanquin Medium.ufo
<glyph name="exclam" format="1">
  <advance width="237"/>
  <unicode hex="0021"/>
  <outline>
    <contour>
      <point x="170" y="702" type="line"/>
      <point x="65" y="702" type="line"/>
      <point x="82" y="230" type="line"/>
      <point x="106" y="219"/>
      <point x="130" y="207"/>
      <point x="155" y="196" type="curve"/>
    </contour>
    <contour>
      <point x="178" y="94"/>
      <point x="152" y="120"/>
      <point x="118" y="120" type="curve" smooth="yes"/>
      <point x="85" y="120"/>
      <point x="57" y="94"/>
      <point x="57" y="60" type="curve" smooth="yes"/>
      <point x="57" y="26"/>
      <point x="85" y="0"/>
      <point x="118" y="0" type="curve" smooth="yes"/>
      <point x="152" y="0"/>
      <point x="178" y="26"/>
      <point x="178" y="60" type="curve" smooth="yes"/>
    </contour>
  </outline>
</glyph>
<glyph name="dollar" format="1">
  <advance width="542"/>
  <unicode hex="0024"/>
  <outline>
    <contour>
      <point x="363" y="804" type="line"/>
      <point x="295" y="804" type="line"/>
      <point x="295" y="694" type="line"/>
      <point x="287" y="695"/>
      <point x="280" y="696"/>
      <point x="270" y="696" type="curve" smooth="yes"/>
      <point x="259" y="696"/>
      <point x="246" y="694"/>
      <point x="233" y="693" type="curve"/>
      <point x="233" y="800" type="line"/>
      <point x="166" y="804" type="line"/>
      <point x="166" y="678" type="line"/>
      <point x="92" y="650"/>
      <point x="47" y="591"/>
      <point x="47" y="520" type="curve" smooth="yes"/>
      <point x="47" y="313"/>
      <point x="398" y="301"/>
      <point x="398" y="168" type="curve" smooth="yes"/>
      <point x="398" y="109"/>
      <point x="347" y="70"/>
      <point x="249" y="70" type="curve" smooth="yes"/>
      <point x="187" y="70"/>
      <point x="119" y="94"/>
      <point x="81" y="113" type="curve"/>
      <point x="73" y="88"/>
      <point x="66" y="62"/>
      <point x="59" y="37" type="curve"/>
      <point x="75" y="23"/>
      <point x="120" y="8"/>
      <point x="166" y="-2" type="curve"/>
      <point x="166" y="-119" type="line"/>
      <point x="233" y="-119" type="line"/>
      <point x="233" y="-13" type="line"/>
      <point x="250" y="-13" type="line" smooth="yes"/>
      <point x="266" y="-13"/>
      <point x="281" y="-12"/>
      <point x="295" y="-10" type="curve"/>
      <point x="295" y="-113" type="line"/>
      <point x="363" y="-119" type="line"/>
      <point x="363" y="3" type="line"/>
      <point x="447" y="32"/>
      <point x="495" y="94"/>
      <point x="495" y="170" type="curve" smooth="yes"/>
      <point x="495" y="368"/>
      <point x="143" y="384"/>
      <point x="143" y="522" type="curve" smooth="yes"/>
      <point x="143" y="580"/>
      <point x="195" y="613"/>
      <point x="272" y="613" type="curve" smooth="yes"/>
      <point x="337" y="613"/>
      <point x="380" y="593"/>
      <point x="418" y="575" type="curve"/>
      <point x="428" y="601"/>
      <point x="440" y="625"/>
      <point x="450" y="651" type="curve"/>
      <point x="425" y="662"/>
      <point x="396" y="674"/>
      <point x="363" y="681" type="curve"/>
    </contour>
  </outline>
</glyph>
<glyph name="ampersand" format="1">
  <advance width="683"/>
  <unicode hex="0026"/>
  <outline>
    <contour>
      <point x="386" y="613"/>
      <point x="420" y="593"/>
      <point x="458" y="575" type="curve"/>
      <point x="491" y="651" type="line"/>
      <point x="444" y="674"/>
      <point x="389" y="696"/>
      <point x="322" y="696" type="curve" smooth="yes"/>
      <point x="199" y="696"/>
      <point x="126" y="611"/>
      <point x="126" y="512" type="curve" smooth="yes"/>
      <point x="126" y="472"/>
      <point x="137" y="441"/>
      <point x="156" y="413" type="curve"/>
      <point x="95" y="369"/>
      <point x="53" y="295"/>
      <point x="52" y="213" type="curve"/>
      <point x="52" y="64"/>
      <point x="167" y="-10"/>
      <point x="312" y="-12" type="curve"/>
      <point x="405" y="-12"/>
      <point x="473" y="16"/>
      <point x="522" y="65" type="curve"/>
      <point x="601" y="-8" type="line"/>
      <point x="655" y="61" type="line"/>
      <point x="574" y="134" type="line"/>
      <point x="602" y="189"/>
      <point x="618" y="255"/>
      <point x="622" y="330" type="curve"/>
      <point x="540" y="362" type="line"/>
      <point x="536" y="299"/>
      <point x="524" y="243"/>
      <point x="502" y="198" type="curve"/>
      <point x="317" y="370" type="line"/>
      <point x="254" y="427"/>
      <point x="223" y="462"/>
      <point x="223" y="518" type="curve" smooth="yes"/>
      <point x="223" y="567"/>
      <point x="260" y="613"/>
      <point x="323" y="613" type="curve" smooth="yes"/>
    </contour>
    <contour>
      <point x="230" y="72"/>
      <point x="151" y="115"/>
      <point x="151" y="215" type="curve"/>
      <point x="153" y="271"/>
      <point x="174" y="319"/>
      <point x="213" y="348" type="curve"/>
      <point x="258" y="306" type="line"/>
      <point x="454" y="127" type="line"/>
      <point x="419" y="92"/>
      <point x="371" y="72"/>
      <point x="312" y="72" type="curve" smooth="yes"/>
    </contour>
  </outline>
</glyph>
<glyph name="quotesingle" format="1">
  <advance width="148"/>
  <unicode hex="0027"/>
  <outline>
    <contour>
      <point x="141" y="693"/>
      <point x="113" y="722"/>
      <point x="79" y="722" type="curve"/>
      <point x="45" y="722"/>
      <point x="18" y="691"/>
      <point x="18" y="661" type="curve"/>
      <point x="18" y="631"/>
      <point x="43" y="603"/>
      <point x="67" y="601" type="curve"/>
      <point x="61" y="562"/>
      <point x="38" y="541"/>
      <point x="6" y="515" type="curve"/>
      <point x="29" y="470" type="line"/>
      <point x="92" y="504"/>
      <point x="141" y="582"/>
      <point x="141" y="650" type="curve"/>
    </contour>
  </outline>
</glyph>
<glyph name="parenright" format="1">
  <advance width="262"/>
  <unicode hex="0029"/>
  <outline>
    <contour>
      <point x="215" y="440"/>
      <point x="172" y="572"/>
      <point x="92" y="678" type="curve"/>
      <point x="16" y="650" type="line"/>
      <point x="74" y="584"/>
      <point x="123" y="419"/>
      <point x="123" y="320" type="curve"/>
      <point x="123" y="222"/>
      <point x="74" y="60"/>
      <point x="16" y="-11" type="curve"/>
      <point x="92" y="-38" type="line"/>
      <point x="173" y="74"/>
      <point x="215" y="202"/>
      <point x="215" y="320" type="curve"/>
    </contour>
  </outline>
</glyph>
<glyph name="asterisk" format="1">
  <advance width="354"/>
  <unicode hex="002A"/>
  <outline>
    <contour>
      <point x="216" y="663" type="line"/>
      <point x="215" y="770" type="line"/>
      <point x="140" y="770" type="line"/>
      <point x="139" y="752"/>
      <point x="138" y="679"/>
      <point x="138" y="663" type="curve"/>
      <point x="27" y="687" type="line"/>
      <point x="6" y="622" type="line"/>
      <point x="23" y="619"/>
      <point x="101" y="604"/>
      <point x="118" y="600" type="curve"/>
      <point x="40" y="489" type="line"/>
      <point x="97" y="446" type="line"/>
      <point x="178" y="554" type="line"/>
      <point x="258" y="446" type="line"/>
      <point x="315" y="489" type="line"/>
      <point x="237" y="600" type="line"/>
      <point x="349" y="622" type="line"/>
      <point x="328" y="687" type="line"/>
    </contour>
  </outline>
</glyph>
<glyph name="plus" format="1">
  <advance width="512"/>
  <unicode hex="002B"/>
  <outline>
    <contour>
      <point x="495" y="236" type="line"/>
      <point x="485" y="311" type="line"/>
      <point x="303" y="311" type="line"/>
      <point x="303" y="531" type="line"/>
      <point x="214" y="534" type="line"/>
      <point x="214" y="311" type="line"/>
      <point x="18" y="311" type="line"/>
      <point x="26" y="236" type="line"/>
      <point x="214" y="236" type="line"/>
      <point x="214" y="8" type="line"/>
      <point x="303" y="4" type="line"/>
      <point x="303" y="236" type="line"/>
    </contour>
  </outline>
</glyph>
<glyph name="comma" format="1">
  <advance width="164"/>
  <unicode hex="002C"/>
  <outline>
    <contour>
      <point x="148" y="92"/>
      <point x="121" y="120"/>
      <point x="86" y="120" type="curve"/>
      <point x="53" y="120"/>
      <point x="26" y="91"/>
      <point x="26" y="60" type="curve"/>
      <point x="26" y="30"/>
      <point x="51" y="1"/>
      <point x="75" y="0" type="curve"/>
      <point x="70" y="-39"/>
      <point x="46" y="-60"/>
      <point x="13" y="-86" type="curve"/>
      <point x="36" y="-131" type="line"/>
      <point x="100" y="-97"/>
      <point x="148" y="-19"/>
      <point x="148" y="48" type="curve"/>
    </contour>
  </outline>
</glyph>
<glyph name="period" format="1">
  <advance width="147"/>
  <unicode hex="002E"/>
  <outline>
    <contour>
      <point x="133" y="94"/>
      <point x="107" y="120"/>
      <point x="74" y="120" type="curve"/>
      <point x="39" y="120"/>
      <point x="13" y="94"/>
      <point x="13" y="60" type="curve"/>
      <point x="13" y="26"/>
      <point x="39" y="0"/>
      <point x="74" y="0" type="curve"/>
      <point x="107" y="0"/>
      <point x="133" y="26"/>
      <point x="133" y="60" type="curve"/>
    </contour>
  </outline>
</glyph>
<glyph name="slash" format="1">
  <advance width="411"/>
  <unicode hex="002F"/>
  <outline>
    <contour>
      <point x="405" y="706" type="line"/>
      <point x="309" y="710" type="line"/>
      <point x="6" y="0" type="line"/>
      <point x="101" y="-4" type="line"/>
    </contour>
  </outline>
</glyph>
<glyph name="two" format="1">
  <advance width="498"/>
  <unicode hex="0032"/>
  <outline>
    <contour>
      <point x="428" y="488"/>
      <point x="377" y="579"/>
      <point x="228" y="579" type="curve"/>
      <point x="136" y="579"/>
      <point x="70" y="532"/>
      <point x="51" y="517" type="curve"/>
      <point x="93" y="450" type="line"/>
      <point x="95" y="451"/>
      <point x="168" y="501"/>
      <point x="226" y="501" type="curve"/>
      <point x="299" y="501"/>
      <point x="337" y="460"/>
      <point x="337" y="405" type="curve"/>
      <point x="336" y="356"/>
      <point x="312" y="320"/>
      <point x="231" y="248" type="curve"/>
      <point x="31" y="68" type="line"/>
      <point x="31" y="0" type="line"/>
      <point x="451" y="0" type="line"/>
      <point x="438" y="74" type="line"/>
      <point x="154" y="74" type="line"/>
      <point x="283" y="187" type="line" smooth="yes"/>
      <point x="380" y="270"/>
      <point x="428" y="327"/>
      <point x="428" y="405" type="curve"/>
    </contour>
  </outline>
</glyph>
<glyph name="five" format="1">
  <advance width="540"/>
  <unicode hex="0035"/>
  <outline>
    <contour>
      <point x="85" y="218" type="line"/>
      <point x="174" y="218" type="line"/>
      <point x="189" y="237"/>
      <point x="226" y="266"/>
      <point x="277" y="266" type="curve"/>
      <point x="347" y="266"/>
      <point x="396" y="220"/>
      <point x="396" y="138" type="curve"/>
      <point x="396" y="55"/>
      <point x="337" y="4"/>
      <point x="253" y="4" type="curve"/>
      <point x="186" y="4"/>
      <point x="145" y="19"/>
      <point x="95" y="48" type="curve"/>
      <point x="47" y="-19" type="line"/>
      <point x="100" y="-48"/>
      <point x="175" y="-76"/>
      <point x="249" y="-76" type="curve"/>
      <point x="402" y="-76"/>
      <point x="488" y="17"/>
      <point x="488" y="138" type="curve"/>
      <point x="487" y="249"/>
      <point x="421" y="343"/>
      <point x="272" y="343" type="curve"/>
      <point x="240" y="343"/>
      <point x="207" y="334"/>
      <point x="178" y="317" type="curve"/>
      <point x="186" y="487" type="line"/>
      <point x="440" y="487" type="line"/>
      <point x="451" y="566" type="line"/>
      <point x="101" y="566" type="line"/>
    </contour>
  </outline>
</glyph>
<glyph name="six" format="1">
  <advance width="549"/>
  <unicode hex="0036"/>
  <outline>
    <contour>
      <point x="425" y="-13"/>
      <point x="507" y="87"/>
      <point x="507" y="196" type="curve"/>
      <point x="507" y="302"/>
      <point x="426" y="396"/>
      <point x="299" y="396" type="curve"/>
      <point x="248" y="396"/>
      <point x="197" y="372"/>
      <point x="161" y="344" type="curve"/>
      <point x="191" y="449"/>
      <point x="278" y="547"/>
      <point x="391" y="573" type="curve"/>
      <point x="350" y="634" type="line"/>
      <point x="175" y="599"/>
      <point x="57" y="409"/>
      <point x="57" y="261" type="curve"/>
      <point x="57" y="80"/>
      <point x="159" y="-13"/>
      <point x="301" y="-13" type="curve"/>
    </contour>
    <contour>
      <point x="372" y="325"/>
      <point x="418" y="260"/>
      <point x="418" y="191" type="curve"/>
      <point x="418" y="126"/>
      <point x="371" y="67"/>
      <point x="297" y="67" type="curve"/>
      <point x="202" y="67"/>
      <point x="155" y="134"/>
      <point x="149" y="236" type="curve"/>
      <point x="172" y="281"/>
      <point x="226" y="325"/>
      <point x="296" y="325" type="curve"/>
    </contour>
  </outline>
</glyph>
<glyph name="seven" format="1">
  <advance width="494"/>
  <unicode hex="0037"/>
  <outline>
    <contour>
      <point x="55" y="-42" type="line"/>
      <point x="145" y="-69" type="line"/>
      <point x="468" y="525" type="line"/>
      <point x="438" y="566" type="line"/>
      <point x="47" y="566" type="line"/>
      <point x="59" y="487" type="line"/>
      <point x="349" y="487" type="line"/>
    </contour>
  </outline>
</glyph>
<glyph name="eight" format="1">
  <advance width="560"/>
  <unicode hex="0038"/>
  <outline>
    <contour>
      <point x="426" y="-13"/>
      <point x="507" y="74"/>
      <point x="507" y="177" type="curve"/>
      <point x="507" y="253"/>
      <point x="447" y="321"/>
      <point x="383" y="339" type="curve"/>
      <point x="435" y="363"/>
      <point x="481" y="412"/>
      <point x="481" y="474" type="curve"/>
      <point x="481" y="564"/>
      <point x="409" y="643"/>
      <point x="280" y="643" type="curve"/>
      <point x="152" y="643"/>
      <point x="79" y="564"/>
      <point x="79" y="474" type="curve"/>
      <point x="79" y="413"/>
      <point x="120" y="363"/>
      <point x="176" y="339" type="curve"/>
      <point x="110" y="321"/>
      <point x="52" y="247"/>
      <point x="52" y="177" type="curve"/>
      <point x="52" y="72"/>
      <point x="133" y="-13"/>
      <point x="280" y="-13" type="curve"/>
    </contour>
    <contour>
      <point x="205" y="65"/>
      <point x="142" y="107"/>
      <point x="142" y="175" type="curve"/>
      <point x="142" y="237"/>
      <point x="188" y="289"/>
      <point x="280" y="302" type="curve"/>
      <point x="371" y="289"/>
      <point x="417" y="237"/>
      <point x="417" y="175" type="curve"/>
      <point x="417" y="107"/>
      <point x="352" y="65"/>
      <point x="280" y="65" type="curve"/>
    </contour>
    <contour>
      <point x="207" y="383"/>
      <point x="168" y="423"/>
      <point x="168" y="473" type="curve"/>
      <point x="168" y="521"/>
      <point x="208" y="565"/>
      <point x="278" y="565" type="curve"/>
      <point x="351" y="565"/>
      <point x="391" y="522"/>
      <point x="391" y="473" type="curve"/>
      <point x="391" y="424"/>
      <point x="352" y="383"/>
      <point x="280" y="372" type="curve"/>
    </contour>
  </outline>
</glyph>
<glyph name="colon" format="1">
  <advance width="147"/>
  <unicode hex="003A"/>
  <outline>
    <contour>
      <point x="133" y="113"/>
      <point x="107" y="139"/>
      <point x="73" y="139" type="curve"/>
      <point x="39" y="139"/>
      <point x="13" y="113"/>
      <point x="13" y="78" type="curve"/>
      <point x="13" y="44"/>
      <point x="39" y="18"/>
      <point x="73" y="18" type="curve"/>
      <point x="107" y="18"/>
      <point x="133" y="44"/>
      <point x="133" y="78" type="curve"/>
    </contour>
    <contour>
      <point x="133" y="434"/>
      <point x="107" y="462"/>
      <point x="73" y="462" type="curve"/>
      <point x="39" y="462"/>
      <point x="13" y="434"/>
      <point x="13" y="401" type="curve"/>
      <point x="13" y="368"/>
      <point x="39" y="341"/>
      <point x="73" y="341" type="curve"/>
      <point x="107" y="341"/>
      <point x="133" y="368"/>
      <point x="133" y="401" type="curve"/>
    </contour>
  </outline>
</glyph>
<glyph name="semicolon" format="1">
  <advance width="165"/>
  <unicode hex="003B"/>
  <outline>
    <contour>
      <point x="149" y="434"/>
      <point x="123" y="462"/>
      <point x="89" y="462" type="curve"/>
      <point x="54" y="462"/>
      <point x="27" y="434"/>
      <point x="27" y="401" type="curve"/>
      <point x="27" y="368"/>
      <point x="54" y="341"/>
      <point x="89" y="341" type="curve"/>
      <point x="123" y="341"/>
      <point x="149" y="368"/>
      <point x="149" y="401" type="curve"/>
    </contour>
    <contour>
      <point x="148" y="110"/>
      <point x="121" y="139"/>
      <point x="86" y="139" type="curve"/>
      <point x="53" y="139"/>
      <point x="26" y="109"/>
      <point x="26" y="78" type="curve"/>
      <point x="26" y="47"/>
      <point x="51" y="20"/>
      <point x="75" y="18" type="curve"/>
      <point x="70" y="-21"/>
      <point x="46" y="-43"/>
      <point x="13" y="-68" type="curve"/>
      <point x="36" y="-113" type="line"/>
      <point x="100" y="-80"/>
      <point x="148" y="-1"/>
      <point x="148" y="66" type="curve"/>
    </contour>
  </outline>
</glyph>
<glyph name="question" format="1">
  <advance width="405"/>
  <unicode hex="003F"/>
  <outline>
    <contour>
      <point x="390" y="631"/>
      <point x="329" y="701"/>
      <point x="196" y="701" type="curve"/>
      <point x="120" y="701"/>
      <point x="68" y="679"/>
      <point x="11" y="643" type="curve"/>
      <point x="23" y="558" type="line"/>
      <point x="83" y="599"/>
      <point x="136" y="620"/>
      <point x="193" y="620" type="curve"/>
      <point x="259" y="620"/>
      <point x="298" y="591"/>
      <point x="298" y="528" type="curve"/>
      <point x="298" y="462"/>
      <point x="227" y="405"/>
      <point x="128" y="373" type="curve"/>
      <point x="136" y="187" type="line"/>
      <point x="205" y="159" type="line"/>
      <point x="217" y="324" type="line"/>
      <point x="320" y="374"/>
      <point x="390" y="455"/>
      <point x="390" y="530" type="curve"/>
    </contour>
    <contour>
      <point x="227" y="94"/>
      <point x="200" y="120"/>
      <point x="166" y="120" type="curve"/>
      <point x="132" y="120"/>
      <point x="106" y="94"/>
      <point x="106" y="60" type="curve"/>
      <point x="106" y="26"/>
      <point x="132" y="0"/>
      <point x="166" y="0" type="curve"/>
      <point x="200" y="0"/>
      <point x="227" y="26"/>
      <point x="227" y="60" type="curve"/>
    </contour>
  </outline>
</glyph>
<glyph name="at" format="1">
  <advance width="804"/>
  <unicode hex="0040"/>
  <outline>
    <contour>
      <point x="541" y="421" type="line"/>
      <point x="465" y="421" type="line" smooth="yes"/>
      <point x="347" y="421"/>
      <point x="238" y="342"/>
      <point x="238" y="217" type="curve" smooth="yes"/>
      <point x="238" y="126"/>
      <point x="292" y="63"/>
      <point x="408" y="63" type="curve" smooth="yes"/>
      <point x="441" y="63"/>
      <point x="475" y="77"/>
      <point x="499" y="92" type="curve"/>
      <point x="519" y="72"/>
      <point x="548" y="62"/>
      <point x="579" y="62" type="curve" smooth="yes"/>
      <point x="684" y="62"/>
      <point x="756" y="143"/>
      <point x="756" y="305" type="curve" smooth="yes"/>
      <point x="756" y="475"/>
      <point x="626" y="598"/>
      <point x="443" y="598" type="curve" smooth="yes"/>
      <point x="201" y="598"/>
      <point x="52" y="425"/>
      <point x="52" y="219" type="curve" smooth="yes"/>
      <point x="52" y="24"/>
      <point x="212" y="-102"/>
      <point x="377" y="-102" type="curve" smooth="yes"/>
      <point x="444" y="-102"/>
      <point x="513" y="-94"/>
      <point x="577" y="-60" type="curve"/>
      <point x="553" y="12" type="line"/>
      <point x="504" y="-14"/>
      <point x="440" y="-23"/>
      <point x="388" y="-23" type="curve" smooth="yes"/>
      <point x="253" y="-23"/>
      <point x="140" y="68"/>
      <point x="140" y="219" type="curve" smooth="yes"/>
      <point x="140" y="406"/>
      <point x="284" y="522"/>
      <point x="441" y="522" type="curve" smooth="yes"/>
      <point x="582" y="522"/>
      <point x="675" y="430"/>
      <point x="675" y="299" type="curve" smooth="yes"/>
      <point x="675" y="198"/>
      <point x="635" y="137"/>
      <point x="586" y="137" type="curve" smooth="yes"/>
      <point x="568" y="137"/>
      <point x="546" y="148"/>
      <point x="546" y="182" type="curve" smooth="yes"/>
      <point x="546" y="184"/>
      <point x="546" y="186"/>
      <point x="569" y="386" type="curve" smooth="yes"/>
    </contour>
    <contour>
      <point x="457" y="152"/>
      <point x="435" y="137"/>
      <point x="407" y="137" type="curve" smooth="yes"/>
      <point x="347" y="137"/>
      <point x="325" y="178"/>
      <point x="325" y="217" type="curve" smooth="yes"/>
      <point x="325" y="307"/>
      <point x="395" y="352"/>
      <point x="471" y="352" type="curve" smooth="yes"/>
      <point x="487" y="352" type="line"/>
      <point x="477" y="284"/>
      <point x="466" y="234"/>
      <point x="466" y="187" type="curve" smooth="yes"/>
      <point x="466" y="183"/>
      <point x="466" y="178"/>
      <point x="467" y="174" type="curve"/>
    </contour>
  </outline>
</glyph>
<glyph name="D" format="1">
  <advance width="698"/>
  <unicode hex="0044"/>
  <outline>
    <contour>
      <point x="94" y="0" type="line"/>
      <point x="325" y="0" type="line" smooth="yes"/>
      <point x="524" y="0"/>
      <point x="632" y="144"/>
      <point x="632" y="344" type="curve" smooth="yes"/>
      <point x="632" y="536"/>
      <point x="541" y="680"/>
      <point x="329" y="680" type="curve" smooth="yes"/>
      <point x="94" y="680" type="line"/>
    </contour>
    <contour>
      <point x="333" y="598" type="line" smooth="yes"/>
      <point x="472" y="598"/>
      <point x="535" y="495"/>
      <point x="535" y="343" type="curve" smooth="yes"/>
      <point x="535" y="170"/>
      <point x="451" y="80"/>
      <point x="325" y="80" type="curve" smooth="yes"/>
      <point x="190" y="80" type="line"/>
      <point x="190" y="598" type="line"/>
    </contour>
  </outline>
</glyph>
<glyph name="E" format="1">
  <advance width="552"/>
  <unicode hex="0045"/>
  <outline>
    <contour>
      <point x="94" y="0" type="line"/>
      <point x="526" y="0" type="line"/>
      <point x="513" y="75" type="line"/>
      <point x="190" y="75" type="line"/>
      <point x="190" y="309" type="line"/>
      <point x="394" y="309" type="line"/>
      <point x="389" y="333"/>
      <point x="385" y="358"/>
      <point x="381" y="383" type="curve"/>
      <point x="190" y="383" type="line"/>
      <point x="190" y="606" type="line"/>
      <point x="490" y="606" type="line"/>
      <point x="485" y="631"/>
      <point x="482" y="655"/>
      <point x="477" y="680" type="curve"/>
      <point x="94" y="680" type="line"/>
    </contour>
  </outline>
</glyph>
<glyph name="G" format="1">
  <advance width="656"/>
  <unicode hex="0047"/>
  <outline>
    <contour>
      <point x="354" y="357" type="line"/>
      <point x="346" y="284" type="line"/>
      <point x="494" y="284" type="line"/>
      <point x="494" y="85" type="line"/>
      <point x="465" y="76"/>
      <point x="429" y="68"/>
      <point x="383" y="68" type="curve" smooth="yes"/>
      <point x="246" y="68"/>
      <point x="165" y="171"/>
      <point x="165" y="337" type="curve" smooth="yes"/>
      <point x="165" y="517"/>
      <point x="266" y="612"/>
      <point x="398" y="612" type="curve" smooth="yes"/>
      <point x="463" y="612"/>
      <point x="492" y="601"/>
      <point x="542" y="584" type="curve"/>
      <point x="572" y="653" type="line"/>
      <point x="524" y="682"/>
      <point x="437" y="694"/>
      <point x="396" y="694" type="curve" smooth="yes"/>
      <point x="195" y="694"/>
      <point x="65" y="548"/>
      <point x="65" y="336" type="curve" smooth="yes"/>
      <point x="65" y="138"/>
      <point x="175" y="-14"/>
      <point x="385" y="-14" type="curve" smooth="yes"/>
      <point x="456" y="-14"/>
      <point x="538" y="7"/>
      <point x="583" y="33" type="curve"/>
      <point x="582" y="34" type="line"/>
      <point x="582" y="45"/>
      <point x="583" y="56"/>
      <point x="583" y="67" type="curve" smooth="yes"/>
      <point x="583" y="357" type="line"/>
    </contour>
  </outline>
</glyph>
<glyph name="J" format="1">
  <advance width="291"/>
  <unicode hex="004A"/>
  <outline>
    <contour>
      <point x="100" y="153" type="line" smooth="yes"/>
      <point x="100" y="84"/>
      <point x="87" y="72"/>
      <point x="18" y="47" type="curve"/>
      <point x="31" y="24"/>
      <point x="44" y="1"/>
      <point x="56" y="-22" type="curve"/>
      <point x="165" y="12"/>
      <point x="196" y="48"/>
      <point x="196" y="135" type="curve" smooth="yes"/>
      <point x="196" y="680" type="line"/>
      <point x="100" y="680" type="line"/>
    </contour>
  </outline>
</glyph>
<glyph name="M" format="1">
  <advance width="773"/>
  <unicode hex="004D"/>
  <outline>
    <contour>
      <point x="378" y="218" type="line"/>
      <point x="413" y="223" type="line"/>
      <point x="582" y="472" type="line"/>
      <point x="582" y="0" type="line"/>
      <point x="679" y="0" type="line"/>
      <point x="679" y="680" type="line"/>
      <point x="619" y="680" type="line"/>
      <point x="392" y="344" type="line"/>
      <point x="153" y="680" type="line"/>
      <point x="94" y="680" type="line"/>
      <point x="94" y="0" type="line"/>
      <point x="190" y="0" type="line"/>
      <point x="190" y="481" type="line"/>
    </contour>
  </outline>
</glyph>
<glyph name="P" format="1">
  <advance width="592"/>
  <unicode hex="0050"/>
  <outline>
    <contour>
      <point x="94" y="0" type="line"/>
      <point x="190" y="0" type="line"/>
      <point x="190" y="250" type="line"/>
      <point x="279" y="250" type="line" smooth="yes"/>
      <point x="422" y="250"/>
      <point x="544" y="317"/>
      <point x="546" y="468" type="curve"/>
      <point x="546" y="621"/>
      <point x="434" y="680"/>
      <point x="289" y="680" type="curve"/>
      <point x="94" y="680" type="line"/>
    </contour>
    <contour>
      <point x="288" y="599" type="line" smooth="yes"/>
      <point x="386" y="599"/>
      <point x="446" y="567"/>
      <point x="446" y="464" type="curve"/>
      <point x="442" y="369"/>
      <point x="376" y="330"/>
      <point x="283" y="330" type="curve"/>
      <point x="190" y="330" type="line"/>
      <point x="190" y="599" type="line"/>
    </contour>
  </outline>
</glyph>
<glyph name="Q" format="1">
  <advance width="738"/>
  <unicode hex="0051"/>
  <outline>
    <contour>
      <point x="604" y="-25" type="line"/>
      <point x="660" y="24" type="line"/>
      <point x="593" y="89" type="line"/>
      <point x="645" y="153"/>
      <point x="674" y="244"/>
      <point x="674" y="344" type="curve"/>
      <point x="674" y="535"/>
      <point x="582" y="696"/>
      <point x="370" y="696" type="curve"/>
      <point x="172" y="692"/>
      <point x="65" y="542"/>
      <point x="65" y="337" type="curve"/>
      <point x="65" y="146"/>
      <point x="156" y="-14"/>
      <point x="367" y="-14" type="curve"/>
      <point x="434" y="-13"/>
      <point x="491" y="5"/>
      <point x="536" y="37" type="curve"/>
    </contour>
    <contour>
      <point x="227" y="68"/>
      <point x="165" y="185"/>
      <point x="165" y="338" type="curve"/>
      <point x="165" y="502"/>
      <point x="247" y="613"/>
      <point x="372" y="613" type="curve"/>
      <point x="511" y="613"/>
      <point x="572" y="496"/>
      <point x="572" y="344" type="curve"/>
      <point x="572" y="266"/>
      <point x="555" y="202"/>
      <point x="526" y="156" type="curve"/>
      <point x="443" y="237" type="line"/>
      <point x="377" y="187" type="line"/>
      <point x="470" y="99" type="line"/>
      <point x="441" y="79"/>
      <point x="405" y="68"/>
      <point x="366" y="68" type="curve"/>
    </contour>
  </outline>
</glyph>
<glyph name="W" format="1">
  <advance width="991"/>
  <unicode hex="0057"/>
  <outline>
    <contour>
      <point x="671" y="0" type="line"/>
      <point x="762" y="0" type="line"/>
      <point x="987" y="680" type="line"/>
      <point x="891" y="680" type="line"/>
      <point x="720" y="135" type="line"/>
      <point x="541" y="680" type="line"/>
      <point x="451" y="680" type="line"/>
      <point x="279" y="135" type="line"/>
      <point x="100" y="680" type="line"/>
      <point x="6" y="665" type="line"/>
      <point x="233" y="0" type="line"/>
      <point x="324" y="0" type="line"/>
      <point x="493" y="533" type="line"/>
    </contour>
  </outline>
</glyph>
<glyph name="asciicircum" format="1">
  <advance width="438"/>
  <unicode hex="005E"/>
  <outline>
    <contour>
      <point x="110" y="143" type="line"/>
      <point x="219" y="301" type="line"/>
      <point x="328" y="143" type="line"/>
      <point x="425" y="143" type="line"/>
      <point x="254" y="390" type="line"/>
      <point x="185" y="390" type="line"/>
      <point x="13" y="143" type="line"/>
    </contour>
  </outline>
</glyph>
<glyph name="underscore" format="1">
  <advance width="413"/>
  <unicode hex="005F"/>
  <outline>
    <contour>
      <point x="396" y="0" type="line"/>
      <point x="387" y="75" type="line"/>
      <point x="16" y="75" type="line"/>
      <point x="25" y="0" type="line"/>
    </contour>
  </outline>
</glyph>
<glyph name="grave" format="1">
  <advance width="193"/>
  <unicode hex="0060"/>
  <outline>
    <contour>
      <point x="16" y="747" type="line"/>
      <point x="106" y="589" type="line"/>
      <point x="179" y="589" type="line"/>
      <point x="118" y="747" type="line"/>
    </contour>
  </outline>
</glyph>
<glyph name="f" format="1">
  <advance width="330"/>
  <unicode hex="0066"/>
  <outline>
    <contour>
      <point x="145" y="702"/>
      <point x="87" y="640"/>
      <point x="87" y="542" type="curve"/>
      <point x="87" y="475" type="line"/>
      <point x="13" y="475" type="line"/>
      <point x="14" y="401" type="line"/>
      <point x="87" y="401" type="line"/>
      <point x="87" y="0" type="line"/>
      <point x="183" y="0" type="line"/>
      <point x="183" y="401" type="line"/>
      <point x="304" y="401" type="line"/>
      <point x="273" y="475" type="line"/>
      <point x="183" y="475" type="line"/>
      <point x="183" y="533" type="line"/>
      <point x="183" y="582"/>
      <point x="202" y="617"/>
      <point x="250" y="617" type="curve"/>
      <point x="265" y="617"/>
      <point x="284" y="612"/>
      <point x="298" y="606" type="curve"/>
      <point x="322" y="680" type="line"/>
      <point x="305" y="691"/>
      <point x="270" y="702"/>
      <point x="241" y="702" type="curve"/>
    </contour>
  </outline>
</glyph>
<glyph name="g" format="1">
  <advance width="567"/>
  <unicode hex="0067"/>
  <outline>
    <contour>
      <point x="419" y="-213"/>
      <point x="491" y="-133"/>
      <point x="491" y="-26" type="curve" smooth="yes"/>
      <point x="491" y="485" type="line"/>
      <point x="436" y="485" type="line"/>
      <point x="413" y="442" type="line"/>
      <point x="371" y="477"/>
      <point x="311" y="501"/>
      <point x="264" y="501" type="curve" smooth="yes"/>
      <point x="122" y="501"/>
      <point x="47" y="392"/>
      <point x="47" y="243" type="curve" smooth="yes"/>
      <point x="47" y="95"/>
      <point x="119" y="-12"/>
      <point x="261" y="-12" type="curve" smooth="yes"/>
      <point x="303" y="-12"/>
      <point x="354" y="5"/>
      <point x="394" y="33" type="curve"/>
      <point x="394" y="-25" type="line" smooth="yes"/>
      <point x="394" y="-97"/>
      <point x="346" y="-135"/>
      <point x="266" y="-135" type="curve" smooth="yes"/>
      <point x="207" y="-135"/>
      <point x="173" y="-118"/>
      <point x="126" y="-96" type="curve"/>
      <point x="117" y="-119"/>
      <point x="107" y="-142"/>
      <point x="97" y="-165" type="curve"/>
      <point x="142" y="-196"/>
      <point x="228" y="-213"/>
      <point x="269" y="-213" type="curve" smooth="yes"/>
    </contour>
    <contour>
      <point x="317" y="419"/>
      <point x="358" y="401"/>
      <point x="394" y="372" type="curve"/>
      <point x="394" y="116" type="line"/>
      <point x="358" y="87"/>
      <point x="317" y="69"/>
      <point x="281" y="69" type="curve" smooth="yes"/>
      <point x="177" y="69"/>
      <point x="145" y="146"/>
      <point x="145" y="244" type="curve" smooth="yes"/>
      <point x="145" y="337"/>
      <point x="181" y="419"/>
      <point x="281" y="419" type="curve" smooth="yes"/>
    </contour>
  </outline>
</glyph>
<glyph name="k" format="1">
  <advance width="504"/>
  <unicode hex="006B"/>
  <outline>
    <contour>
      <point x="76" y="0" type="line"/>
      <point x="172" y="0" type="line"/>
      <point x="172" y="174" type="line"/>
      <point x="234" y="234" type="line"/>
      <point x="381" y="0" type="line"/>
      <point x="493" y="0" type="line"/>
      <point x="300" y="296" type="line"/>
      <point x="444" y="434" type="line"/>
      <point x="388" y="498" type="line"/>
      <point x="172" y="287" type="line"/>
      <point x="172" y="706" type="line"/>
      <point x="76" y="695" type="line"/>
    </contour>
  </outline>
</glyph>
<glyph name="n" format="1">
  <advance width="566"/>
  <unicode hex="006E"/>
  <outline>
    <contour>
      <point x="272" y="501"/>
      <point x="199" y="467"/>
      <point x="157" y="421" type="curve"/>
      <point x="127" y="485" type="line"/>
      <point x="73" y="485" type="line"/>
      <point x="73" y="0" type="line"/>
      <point x="169" y="0" type="line"/>
      <point x="169" y="350" type="line"/>
      <point x="208" y="392"/>
      <point x="268" y="419"/>
      <point x="308" y="419" type="curve"/>
      <point x="371" y="418"/>
      <point x="402" y="376"/>
      <point x="402" y="311" type="curve"/>
      <point x="402" y="0" type="line"/>
      <point x="498" y="0" type="line"/>
      <point x="498" y="320" type="line"/>
      <point x="498" y="424"/>
      <point x="447" y="501"/>
      <point x="328" y="501" type="curve"/>
    </contour>
  </outline>
</glyph>
<glyph name="r" format="1">
  <advance width="339"/>
  <unicode hex="0072"/>
  <outline>
    <contour>
      <point x="73" y="0" type="line"/>
      <point x="169" y="0" type="line"/>
      <point x="169" y="331" type="line"/>
      <point x="216" y="376"/>
      <point x="278" y="408"/>
      <point x="331" y="408" type="curve"/>
      <point x="310" y="485" type="line"/>
      <point x="258" y="485"/>
      <point x="195" y="448"/>
      <point x="158" y="416" type="curve"/>
      <point x="127" y="485" type="line"/>
      <point x="73" y="485" type="line"/>
    </contour>
  </outline>
</glyph>
<glyph name="w" format="1">
  <advance width="754"/>
  <unicode hex="0077"/>
  <outline>
    <contour>
      <point x="492" y="0" type="line"/>
      <point x="580" y="0" type="line"/>
      <point x="741" y="485" type="line"/>
      <point x="642" y="485" type="line"/>
      <point x="537" y="143" type="line"/>
      <point x="427" y="485" type="line"/>
      <point x="326" y="485" type="line"/>
      <point x="221" y="143" type="line"/>
      <point x="111" y="485" type="line"/>
      <point x="13" y="471" type="line"/>
      <point x="176" y="0" type="line"/>
      <point x="264" y="0" type="line"/>
      <point x="375" y="345" type="line"/>
    </contour>
  </outline>
</glyph>
<glyph name="x" format="1">
  <advance width="512"/>
  <unicode hex="0078"/>
  <outline>
    <contour>
      <point x="11" y="0" type="line"/>
      <point x="118" y="0" type="line"/>
      <point x="249" y="172" type="line"/>
      <point x="380" y="0" type="line"/>
      <point x="486" y="0" type="line"/>
      <point x="314" y="230" type="line"/>
      <point x="501" y="485" type="line"/>
      <point x="396" y="485" type="line"/>
      <point x="259" y="304" type="line"/>
      <point x="125" y="485" type="line"/>
      <point x="26" y="470" type="line"/>
      <point x="194" y="245" type="line"/>
    </contour>
  </outline>
</glyph>
<glyph name="z" format="1">
  <advance width="460"/>
  <unicode hex="007A"/>
  <outline>
    <contour>
      <point x="425" y="432" type="line"/>
      <point x="420" y="485" type="line"/>
      <point x="49" y="485" type="line"/>
      <point x="70" y="407" type="line"/>
      <point x="295" y="407" type="line"/>
      <point x="29" y="50" type="line"/>
      <point x="41" y="0" type="line"/>
      <point x="427" y="0" type="line"/>
      <point x="417" y="76" type="line"/>
      <point x="156" y="76" type="line"/>
    </contour>
  </outline>
</glyph>
<glyph name="braceleft" format="1">
  <advance width="281"/>
  <unicode hex="007B"/>
  <outline>
    <contour>
      <point x="212" y="454"/>
      <point x="177" y="516"/>
      <point x="177" y="547" type="curve" smooth="yes"/>
      <point x="177" y="564"/>
      <point x="191" y="586"/>
      <point x="231" y="586" type="curve" smooth="yes"/>
      <point x="261" y="586" type="line"/>
      <point x="270" y="659" type="line"/>
      <point x="243" y="659" type="line" smooth="yes"/>
      <point x="149" y="659"/>
      <point x="97" y="624"/>
      <point x="97" y="553" type="curve" smooth="yes"/>
      <point x="97" y="511"/>
      <point x="124" y="455"/>
      <point x="124" y="409" type="curve" smooth="yes"/>
      <point x="124" y="370"/>
      <point x="102" y="339"/>
      <point x="70" y="339" type="curve" smooth="yes"/>
      <point x="31" y="339" type="line"/>
      <point x="31" y="276" type="line"/>
      <point x="70" y="276" type="line" smooth="yes"/>
      <point x="98" y="276"/>
      <point x="130" y="249"/>
      <point x="130" y="214" type="curve" smooth="yes"/>
      <point x="130" y="178"/>
      <point x="95" y="113"/>
      <point x="95" y="74" type="curve" smooth="yes"/>
      <point x="95" y="-4"/>
      <point x="140" y="-42"/>
      <point x="243" y="-42" type="curve" smooth="yes"/>
      <point x="270" y="-42" type="line"/>
      <point x="261" y="30" type="line"/>
      <point x="231" y="30" type="line" smooth="yes"/>
      <point x="193" y="30"/>
      <point x="177" y="51"/>
      <point x="177" y="70" type="curve" smooth="yes"/>
      <point x="177" y="101"/>
      <point x="212" y="167"/>
      <point x="212" y="204" type="curve" smooth="yes"/>
      <point x="212" y="252"/>
      <point x="195" y="289"/>
      <point x="163" y="310" type="curve"/>
      <point x="198" y="329"/>
      <point x="212" y="361"/>
      <point x="212" y="413" type="curve" smooth="yes"/>
    </contour>
  </outline>
</glyph>
<glyph name="asciitilde" format="1">
  <advance width="409"/>
  <unicode hex="007E"/>
  <outline>
    <contour>
      <point x="340" y="188"/>
      <point x="390" y="222"/>
      <point x="390" y="318" type="curve"/>
      <point x="308" y="318" type="line"/>
      <point x="306" y="285"/>
      <point x="285" y="277"/>
      <point x="271" y="277" type="curve" smooth="yes"/>
      <point x="233" y="277"/>
      <point x="194" y="317"/>
      <point x="129" y="317" type="curve" smooth="yes"/>
      <point x="69" y="317"/>
      <point x="19" y="283"/>
      <point x="19" y="188" type="curve"/>
      <point x="100" y="188" type="line"/>
      <point x="103" y="220"/>
      <point x="120" y="227"/>
      <point x="136" y="227" type="curve" smooth="yes"/>
      <point x="173" y="227"/>
      <point x="220" y="188"/>
      <point x="280" y="188" type="curve" smooth="yes"/>
    </contour>
  </outline>
</glyph>
<glyph name="dv_CandrabinduInverted" format="1">
  <advance width="0"/>
  <unicode hex="0090"/>
  <outline>
    <contour>
      <point x="460" y="885" type="line"/>
      <point x="409" y="984"/>
      <point x="329" y="1022"/>
      <point x="239" y="1022" type="curve" smooth="yes"/>
      <point x="147" y="1022"/>
      <point x="67" y="984"/>
      <point x="17" y="885" type="curve"/>
      <point x="88" y="839" type="line"/>
      <point x="123" y="911"/>
      <point x="183" y="942"/>
      <point x="239" y="942" type="curve" smooth="yes"/>
      <point x="294" y="942"/>
      <point x="350" y="914"/>
      <point x="389" y="839" type="curve"/>
    </contour>
    <contour>
      <point x="174" y="791"/>
      <point x="203" y="762"/>
      <point x="239" y="762" type="curve" smooth="yes"/>
      <point x="275" y="762"/>
      <point x="305" y="791"/>
      <point x="305" y="827" type="curve" smooth="yes"/>
      <point x="305" y="864"/>
      <point x="275" y="893"/>
      <point x="239" y="893" type="curve" smooth="yes"/>
      <point x="203" y="893"/>
      <point x="174" y="864"/>
      <point x="174" y="827" type="curve" smooth="yes"/>
    </contour>
  </outline>
</glyph>
<glyph name="currency" format="1">
  <advance width="675"/>
  <unicode hex="00A4"/>
  <outline>
    <contour>
      <point x="392" y="-13"/>
      <point x="444" y="4"/>
      <point x="485" y="35" type="curve"/>
      <point x="591" y="-72" type="line"/>
      <point x="648" y="-4" type="line"/>
      <point x="548" y="99" type="line"/>
      <point x="574" y="138"/>
      <point x="589" y="186"/>
      <point x="590" y="241" type="curve"/>
      <point x="589" y="296"/>
      <point x="575" y="346"/>
      <point x="549" y="385" type="curve"/>
      <point x="648" y="487" type="line"/>
      <point x="591" y="556" type="line"/>
      <point x="486" y="450" type="line"/>
      <point x="446" y="480"/>
      <point x="397" y="497"/>
      <point x="340" y="498" type="curve"/>
      <point x="282" y="497"/>
      <point x="231" y="478"/>
      <point x="190" y="448" type="curve"/>
      <point x="83" y="556" type="line"/>
      <point x="26" y="487" type="line"/>
      <point x="128" y="383" type="line"/>
      <point x="103" y="345"/>
      <point x="87" y="296"/>
      <point x="87" y="243" type="curve"/>
      <point x="87" y="188"/>
      <point x="102" y="139"/>
      <point x="126" y="99" type="curve"/>
      <point x="26" y="-4" type="line"/>
      <point x="83" y="-72" type="line"/>
      <point x="188" y="35" type="line"/>
      <point x="228" y="5"/>
      <point x="278" y="-12"/>
      <point x="334" y="-13" type="curve"/>
    </contour>
    <contour>
      <point x="429" y="408"/>
      <point x="491" y="336"/>
      <point x="491" y="240" type="curve"/>
      <point x="490" y="146"/>
      <point x="422" y="75"/>
      <point x="335" y="75" type="curve"/>
      <point x="247" y="76"/>
      <point x="186" y="148"/>
      <point x="186" y="244" type="curve"/>
      <point x="187" y="337"/>
      <point x="253" y="408"/>
      <point x="340" y="408" type="curve"/>
    </contour>
  </outline>
</glyph>
<glyph name="yen" format="1">
  <advance width="576"/>
  <unicode hex="00A5"/>
  <outline>
    <contour>
      <point x="237" y="0" type="line"/>
      <point x="333" y="0" type="line"/>
      <point x="333" y="72" type="line"/>
      <point x="508" y="72" type="line"/>
      <point x="499" y="144" type="line"/>
      <point x="334" y="144" type="line"/>
      <point x="334" y="238" type="line"/>
      <point x="508" y="238" type="line"/>
      <point x="499" y="311" type="line"/>
      <point x="357" y="311" type="line"/>
      <point x="428" y="434"/>
      <point x="499" y="557"/>
      <point x="571" y="680" type="curve"/>
      <point x="469" y="680" type="line"/>
      <point x="285" y="366" type="line"/>
      <point x="105" y="680" type="line"/>
      <point x="6" y="666" type="line"/>
      <point x="214" y="311" type="line"/>
      <point x="61" y="311" type="line"/>
      <point x="70" y="238" type="line"/>
      <point x="237" y="238" type="line"/>
      <point x="237" y="144" type="line"/>
      <point x="61" y="144" type="line"/>
      <point x="70" y="72" type="line"/>
      <point x="237" y="72" type="line"/>
    </contour>
  </outline>
</glyph>
<glyph name="section" format="1">
  <advance width="606"/>
  <unicode hex="00A7"/>
  <outline>
    <contour>
      <point x="187" y="-36"/>
      <point x="119" y="-10"/>
      <point x="81" y="7" type="curve"/>
      <point x="73" y="-17"/>
      <point x="66" y="-42"/>
      <point x="59" y="-67" type="curve"/>
      <point x="86" y="-92"/>
      <point x="192" y="-119"/>
      <point x="250" y="-119" type="curve" smooth="yes"/>
      <point x="405" y="-119"/>
      <point x="495" y="-43"/>
      <point x="495" y="61" type="curve" smooth="yes"/>
      <point x="495" y="85"/>
      <point x="490" y="105"/>
      <point x="480" y="124" type="curve"/>
      <point x="531" y="156"/>
      <point x="558" y="206"/>
      <point x="558" y="265" type="curve" smooth="yes"/>
      <point x="558" y="464"/>
      <point x="207" y="469"/>
      <point x="207" y="607" type="curve" smooth="yes"/>
      <point x="207" y="665"/>
      <point x="258" y="698"/>
      <point x="336" y="698" type="curve" smooth="yes"/>
      <point x="400" y="698"/>
      <point x="442" y="678"/>
      <point x="481" y="660" type="curve"/>
      <point x="513" y="736" type="line"/>
      <point x="467" y="758"/>
      <point x="401" y="780"/>
      <point x="335" y="780" type="curve" smooth="yes"/>
      <point x="195" y="780"/>
      <point x="111" y="705"/>
      <point x="111" y="606" type="curve" smooth="yes"/>
      <point x="111" y="582"/>
      <point x="116" y="561"/>
      <point x="124" y="541" type="curve"/>
      <point x="76" y="510"/>
      <point x="47" y="461"/>
      <point x="47" y="403" type="curve" smooth="yes"/>
      <point x="47" y="197"/>
      <point x="398" y="194"/>
      <point x="398" y="63" type="curve" smooth="yes"/>
      <point x="398" y="3"/>
      <point x="347" y="-36"/>
      <point x="249" y="-36" type="curve" smooth="yes"/>
    </contour>
    <contour>
      <point x="462" y="235"/>
      <point x="449" y="211"/>
      <point x="426" y="195" type="curve"/>
      <point x="327" y="275"/>
      <point x="143" y="306"/>
      <point x="143" y="406" type="curve" smooth="yes"/>
      <point x="143" y="433"/>
      <point x="155" y="456"/>
      <point x="177" y="471" type="curve"/>
      <point x="272" y="392"/>
      <point x="462" y="358"/>
      <point x="462" y="262" type="curve" smooth="yes"/>
    </contour>
  </outline>
</glyph>
<glyph name="dieresis" format="1">
  <advance width="314"/>
  <unicode hex="00A8"/>
  <outline>
    <contour>
      <point x="298" y="694"/>
      <point x="275" y="718"/>
      <point x="244" y="718" type="curve"/>
      <point x="214" y="718"/>
      <point x="190" y="694"/>
      <point x="190" y="664" type="curve"/>
      <point x="190" y="634"/>
      <point x="214" y="610"/>
      <point x="244" y="610" type="curve"/>
      <point x="275" y="610"/>
      <point x="298" y="634"/>
      <point x="298" y="664" type="curve"/>
    </contour>
    <contour>
      <point x="124" y="694"/>
      <point x="101" y="718"/>
      <point x="70" y="718" type="curve"/>
      <point x="40" y="718"/>
      <point x="16" y="694"/>
      <point x="16" y="664" type="curve"/>
      <point x="16" y="634"/>
      <point x="40" y="610"/>
      <point x="70" y="610" type="curve"/>
      <point x="101" y="610"/>
      <point x="124" y="634"/>
      <point x="124" y="664" type="curve"/>
    </contour>
  </outline>
</glyph>
<glyph name="copyright" format="1">
  <advance width="851"/>
  <unicode hex="00A9"/>
  <outline>
    <contour>
      <point x="238" y="29"/>
      <point x="123" y="162"/>
      <point x="123" y="337" type="curve"/>
      <point x="123" y="513"/>
      <point x="238" y="645"/>
      <point x="425" y="645" type="curve"/>
      <point x="614" y="645"/>
      <point x="728" y="513"/>
      <point x="728" y="337" type="curve"/>
      <point x="728" y="162"/>
      <point x="614" y="29"/>
      <point x="425" y="29" type="curve"/>
    </contour>
    <contour>
      <point x="656" y="-33"/>
      <point x="799" y="130"/>
      <point x="799" y="336" type="curve"/>
      <point x="799" y="543"/>
      <point x="656" y="706"/>
      <point x="425" y="706" type="curve"/>
      <point x="195" y="706"/>
      <point x="52" y="543"/>
      <point x="52" y="336" type="curve"/>
      <point x="52" y="130"/>
      <point x="195" y="-33"/>
      <point x="425" y="-33" type="curve"/>
    </contour>
    <contour>
      <point x="317" y="429"/>
      <point x="359" y="490"/>
      <point x="444" y="490" type="curve"/>
      <point x="500" y="490"/>
      <point x="525" y="477"/>
      <point x="564" y="458" type="curve"/>
      <point x="591" y="529" type="line"/>
      <point x="550" y="558"/>
      <point x="483" y="572"/>
      <point x="444" y="572" type="curve"/>
      <point x="306" y="572"/>
      <point x="219" y="478"/>
      <point x="219" y="339" type="curve"/>
      <point x="219" y="199"/>
      <point x="298" y="104"/>
      <point x="441" y="104" type="curve"/>
      <point x="480" y="104"/>
      <point x="548" y="118"/>
      <point x="589" y="148" type="curve"/>
      <point x="561" y="218" type="line"/>
      <point x="523" y="199"/>
      <point x="497" y="185"/>
      <point x="442" y="185" type="curve"/>
      <point x="355" y="185"/>
      <point x="317" y="241"/>
      <point x="317" y="340" type="curve"/>
    </contour>
  </outline>
</glyph>
<glyph name="ordfeminine" format="1">
  <advance width="342"/>
  <unicode hex="00AA"/>
  <outline>
    <contour>
      <point x="132" y="702"/>
      <point x="75" y="690"/>
      <point x="51" y="673" type="curve"/>
      <point x="68" y="611" type="line"/>
      <point x="92" y="621"/>
      <point x="123" y="632"/>
      <point x="161" y="632" type="curve" smooth="yes"/>
      <point x="205" y="632"/>
      <point x="223" y="599"/>
      <point x="223" y="567" type="curve"/>
      <point x="153" y="567" type="line" smooth="yes"/>
      <point x="82" y="567"/>
      <point x="31" y="530"/>
      <point x="31" y="466" type="curve" smooth="yes"/>
      <point x="31" y="406"/>
      <point x="74" y="363"/>
      <point x="147" y="363" type="curve" smooth="yes"/>
      <point x="182" y="363"/>
      <point x="217" y="383"/>
      <point x="238" y="402" type="curve"/>
      <point x="255" y="371" type="line"/>
      <point x="301" y="371" type="line"/>
      <point x="301" y="581" type="line" smooth="yes"/>
      <point x="301" y="647"/>
      <point x="242" y="702"/>
      <point x="160" y="702" type="curve" smooth="yes"/>
    </contour>
    <contour>
      <point x="121" y="431"/>
      <point x="107" y="449"/>
      <point x="107" y="469" type="curve" smooth="yes"/>
      <point x="107" y="495"/>
      <point x="130" y="508"/>
      <point x="165" y="508" type="curve" smooth="yes"/>
      <point x="225" y="508" type="line"/>
      <point x="225" y="468" type="line"/>
      <point x="205" y="447"/>
      <point x="178" y="431"/>
      <point x="149" y="431" type="curve" smooth="yes"/>
    </contour>
  </outline>
</glyph>
<glyph name="guillemotleft" format="1">
  <advance width="370"/>
  <unicode hex="00AB"/>
  <outline>
    <contour>
      <point x="26" y="268" type="line"/>
      <point x="26" y="222" type="line"/>
      <point x="176" y="83" type="line"/>
      <point x="183" y="105"/>
      <point x="190" y="125"/>
      <point x="198" y="147" type="curve"/>
      <point x="99" y="245" type="line"/>
      <point x="198" y="343" type="line"/>
      <point x="190" y="364"/>
      <point x="183" y="385"/>
      <point x="176" y="407" type="curve"/>
    </contour>
    <contour>
      <point x="186" y="222" type="line"/>
      <point x="237" y="176"/>
      <point x="286" y="129"/>
      <point x="337" y="83" type="curve"/>
      <point x="358" y="147" type="line"/>
      <point x="259" y="245" type="line"/>
      <point x="358" y="343" type="line"/>
      <point x="337" y="407" type="line"/>
      <point x="286" y="361"/>
      <point x="237" y="314"/>
      <point x="186" y="268" type="curve"/>
    </contour>
  </outline>
</glyph>
<glyph name="degree" format="1">
  <advance width="248"/>
  <unicode hex="00B0"/>
  <outline>
    <contour>
      <point x="237" y="665"/>
      <point x="185" y="713"/>
      <point x="124" y="713" type="curve"/>
      <point x="62" y="713"/>
      <point x="11" y="665"/>
      <point x="11" y="604" type="curve"/>
      <point x="11" y="542"/>
      <point x="62" y="497"/>
      <point x="124" y="497" type="curve"/>
      <point x="185" y="497"/>
      <point x="237" y="542"/>
      <point x="237" y="604" type="curve"/>
    </contour>
    <contour>
      <point x="152" y="653"/>
      <point x="174" y="631"/>
      <point x="174" y="603" type="curve"/>
      <point x="174" y="576"/>
      <point x="152" y="553"/>
      <point x="124" y="553" type="curve"/>
      <point x="96" y="553"/>
      <point x="74" y="577"/>
      <point x="74" y="604" type="curve"/>
      <point x="74" y="631"/>
      <point x="96" y="653"/>
      <point x="124" y="653" type="curve"/>
    </contour>
  </outline>
</glyph>
<glyph name="plusminus" format="1">
  <advance width="463"/>
  <unicode hex="00B1"/>
  <outline>
    <contour>
      <point x="441" y="300" type="line"/>
      <point x="433" y="368" type="line"/>
      <point x="274" y="368" type="line"/>
      <point x="274" y="531" type="line"/>
      <point x="190" y="534" type="line"/>
      <point x="190" y="368" type="line"/>
      <point x="21" y="368" type="line"/>
      <point x="30" y="300" type="line"/>
      <point x="190" y="300" type="line"/>
      <point x="190" y="129" type="line"/>
      <point x="274" y="124" type="line"/>
      <point x="274" y="300" type="line"/>
    </contour>
    <contour>
      <point x="441" y="0" type="line"/>
      <point x="435" y="69" type="line"/>
      <point x="22" y="69" type="line"/>
      <point x="30" y="0" type="line"/>
    </contour>
  </outline>
</glyph>
<glyph name="acute" format="1">
  <advance width="193"/>
  <unicode hex="00B4"/>
  <outline>
    <contour>
      <point x="76" y="747" type="line"/>
      <point x="16" y="589" type="line"/>
      <point x="88" y="589" type="line"/>
      <point x="179" y="747" type="line"/>
    </contour>
  </outline>
</glyph>
<glyph name="periodcentered" format="1">
  <advance width="147"/>
  <unicode hex="00B7"/>
  <outline>
    <contour>
      <point x="133" y="296"/>
      <point x="107" y="322"/>
      <point x="74" y="322" type="curve"/>
      <point x="39" y="322"/>
      <point x="13" y="296"/>
      <point x="13" y="262" type="curve"/>
      <point x="13" y="228"/>
      <point x="39" y="201"/>
      <point x="74" y="201" type="curve"/>
      <point x="107" y="201"/>
      <point x="133" y="228"/>
      <point x="133" y="262" type="curve"/>
    </contour>
  </outline>
</glyph>
<glyph name="ordmasculine" format="1">
  <advance width="386"/>
  <unicode hex="00BA"/>
  <outline>
    <contour>
      <point x="31" y="426"/>
      <point x="92" y="363"/>
      <point x="190" y="363" type="curve"/>
      <point x="287" y="363"/>
      <point x="355" y="428"/>
      <point x="355" y="531" type="curve"/>
      <point x="355" y="637"/>
      <point x="293" y="702"/>
      <point x="192" y="702" type="curve"/>
      <point x="97" y="702"/>
      <point x="31" y="636"/>
      <point x="31" y="532" type="curve"/>
    </contour>
    <contour>
      <point x="239" y="632"/>
      <point x="269" y="599"/>
      <point x="269" y="531" type="curve"/>
      <point x="269" y="461"/>
      <point x="234" y="432"/>
      <point x="191" y="432" type="curve"/>
      <point x="148" y="432"/>
      <point x="116" y="464"/>
      <point x="116" y="532" type="curve"/>
      <point x="116" y="604"/>
      <point x="154" y="632"/>
      <point x="193" y="632" type="curve"/>
    </contour>
  </outline>
</glyph>
<glyph name="guillemotright" format="1">
  <advance width="370"/>
  <unicode hex="00BB"/>
  <outline>
    <contour>
      <point x="193" y="407" type="line"/>
      <point x="171" y="343" type="line"/>
      <point x="270" y="245" type="line"/>
      <point x="171" y="147" type="line"/>
      <point x="193" y="83" type="line"/>
      <point x="343" y="222" type="line"/>
      <point x="343" y="268" type="line"/>
    </contour>
    <contour>
      <point x="33" y="407" type="line"/>
      <point x="10" y="343" type="line"/>
      <point x="109" y="245" type="line"/>
      <point x="10" y="147" type="line"/>
      <point x="33" y="83" type="line"/>
      <point x="182" y="222" type="line"/>
      <point x="182" y="268" type="line"/>
    </contour>
  </outline>
</glyph>
<glyph name="onequarter" format="1">
  <advance width="832"/>
  <unicode hex="00BC"/>
  <outline>
    <contour>
      <point x="793" y="-78" type="line"/>
      <point x="800" y="-8" type="line"/>
      <point x="716" y="-8" type="line"/>
      <point x="716" y="321" type="line"/>
      <point x="657" y="321" type="line"/>
      <point x="579" y="217"/>
      <point x="499" y="113"/>
      <point x="421" y="9" type="curve" smooth="yes"/>
      <point x="416" y="3"/>
      <point x="411" y="-2"/>
      <point x="407" y="-8" type="curve"/>
      <point x="408" y="-19"/>
      <point x="409" y="-30"/>
      <point x="411" y="-41" type="curve"/>
      <point x="415" y="-78" type="line"/>
      <point x="631" y="-78" type="line"/>
      <point x="631" y="-164" type="line"/>
      <point x="716" y="-164" type="line"/>
      <point x="716" y="-78" type="line"/>
    </contour>
    <contour>
      <point x="303" y="336" type="line"/>
      <point x="300" y="358"/>
      <point x="297" y="380"/>
      <point x="295" y="402" type="curve"/>
      <point x="231" y="402" type="line"/>
      <point x="231" y="764" type="line"/>
      <point x="174" y="764" type="line"/>
      <point x="137" y="741"/>
      <point x="100" y="719"/>
      <point x="63" y="697" type="curve"/>
      <point x="97" y="637" type="line"/>
      <point x="113" y="646"/>
      <point x="129" y="657"/>
      <point x="144" y="666" type="curve"/>
      <point x="144" y="402" type="line"/>
      <point x="63" y="402" type="line"/>
      <point x="71" y="336" type="line"/>
    </contour>
    <contour>
      <point x="579" y="498" type="line"/>
      <point x="481" y="501" type="line"/>
      <point x="193" y="0" type="line"/>
      <point x="291" y="-4" type="line"/>
    </contour>
    <contour>
      <point x="496" y="-8" type="line"/>
      <point x="631" y="171" type="line"/>
      <point x="631" y="-8" type="line"/>
    </contour>
  </outline>
</glyph>
<glyph name="onehalf" format="1">
  <advance width="871"/>
  <unicode hex="00BD"/>
  <outline>
    <contour>
      <point x="810" y="255"/>
      <point x="766" y="325"/>
      <point x="655" y="325" type="curve" smooth="yes"/>
      <point x="586" y="325"/>
      <point x="538" y="290"/>
      <point x="523" y="280" type="curve"/>
      <point x="556" y="216" type="line"/>
      <point x="557" y="218"/>
      <point x="607" y="255"/>
      <point x="651" y="255" type="curve" smooth="yes"/>
      <point x="703" y="255"/>
      <point x="723" y="220"/>
      <point x="723" y="195" type="curve" smooth="yes"/>
      <point x="723" y="156"/>
      <point x="704" y="122"/>
      <point x="653" y="78" type="curve" smooth="yes"/>
      <point x="507" y="-47" type="line"/>
      <point x="507" y="-110" type="line"/>
      <point x="824" y="-110" type="line"/>
      <point x="820" y="-88"/>
      <point x="817" y="-65"/>
      <point x="814" y="-43" type="curve"/>
      <point x="618" y="-43" type="line"/>
      <point x="704" y="30" type="line" smooth="yes"/>
      <point x="777" y="92"/>
      <point x="810" y="136"/>
      <point x="810" y="195" type="curve" smooth="yes"/>
    </contour>
    <contour>
      <point x="303" y="336" type="line"/>
      <point x="300" y="358"/>
      <point x="297" y="380"/>
      <point x="295" y="402" type="curve"/>
      <point x="231" y="402" type="line"/>
      <point x="231" y="764" type="line"/>
      <point x="174" y="764" type="line"/>
      <point x="137" y="741"/>
      <point x="100" y="719"/>
      <point x="63" y="697" type="curve"/>
      <point x="97" y="637" type="line"/>
      <point x="113" y="646"/>
      <point x="129" y="657"/>
      <point x="144" y="666" type="curve"/>
      <point x="144" y="402" type="line"/>
      <point x="63" y="402" type="line"/>
      <point x="71" y="336" type="line"/>
    </contour>
    <contour>
      <point x="476" y="501" type="line"/>
      <point x="188" y="0" type="line"/>
      <point x="285" y="-4" type="line"/>
      <point x="381" y="163"/>
      <point x="477" y="331"/>
      <point x="574" y="498" type="curve"/>
    </contour>
  </outline>
</glyph>
<glyph name="threequarters" format="1">
  <advance width="867"/>
  <unicode hex="00BE"/>
  <outline>
    <contour>
      <point x="829" y="-78" type="line"/>
      <point x="836" y="-8" type="line"/>
      <point x="752" y="-8" type="line"/>
      <point x="752" y="321" type="line"/>
      <point x="693" y="321" type="line"/>
      <point x="456" y="9" type="line"/>
      <point x="441" y="-8" type="line"/>
      <point x="442" y="-14"/>
      <point x="443" y="-19"/>
      <point x="443" y="-25" type="curve"/>
      <point x="451" y="-78" type="line"/>
      <point x="666" y="-78" type="line"/>
      <point x="666" y="-164" type="line"/>
      <point x="752" y="-164" type="line"/>
      <point x="752" y="-78" type="line"/>
    </contour>
    <contour>
      <point x="345" y="713"/>
      <point x="294" y="771"/>
      <point x="190" y="771" type="curve" smooth="yes"/>
      <point x="129" y="771"/>
      <point x="82" y="750"/>
      <point x="38" y="722" type="curve"/>
      <point x="72" y="662" type="line"/>
      <point x="97" y="680"/>
      <point x="131" y="700"/>
      <point x="181" y="700" type="curve" smooth="yes"/>
      <point x="237" y="700"/>
      <point x="257" y="669"/>
      <point x="257" y="644" type="curve" smooth="yes"/>
      <point x="257" y="615"/>
      <point x="245" y="586"/>
      <point x="199" y="579" type="curve"/>
      <point x="188" y="574"/>
      <point x="175" y="571"/>
      <point x="158" y="571" type="curve" smooth="yes"/>
      <point x="121" y="571" type="line"/>
      <point x="131" y="504" type="line"/>
      <point x="153" y="504" type="line" smooth="yes"/>
      <point x="233" y="504"/>
      <point x="266" y="475"/>
      <point x="266" y="420" type="curve" smooth="yes"/>
      <point x="266" y="374"/>
      <point x="226" y="348"/>
      <point x="174" y="348" type="curve" smooth="yes"/>
      <point x="127" y="348"/>
      <point x="100" y="360"/>
      <point x="63" y="382" type="curve"/>
      <point x="50" y="362"/>
      <point x="38" y="342"/>
      <point x="26" y="322" type="curve"/>
      <point x="66" y="301"/>
      <point x="123" y="278"/>
      <point x="179" y="278" type="curve" smooth="yes"/>
      <point x="286" y="278"/>
      <point x="353" y="341"/>
      <point x="353" y="421" type="curve" smooth="yes"/>
      <point x="353" y="484"/>
      <point x="314" y="529"/>
      <point x="271" y="539" type="curve"/>
      <point x="309" y="552"/>
      <point x="345" y="594"/>
      <point x="345" y="645" type="curve" smooth="yes"/>
    </contour>
    <contour>
      <point x="615" y="498" type="line"/>
      <point x="516" y="501" type="line"/>
      <point x="228" y="0" type="line"/>
      <point x="326" y="-4" type="line"/>
    </contour>
    <contour>
      <point x="531" y="-8" type="line"/>
      <point x="666" y="171" type="line"/>
      <point x="666" y="-8" type="line"/>
    </contour>
  </outline>
</glyph>
<glyph name="Atilde" format="1">
  <advance width="617"/>
  <unicode hex="00C3"/>
  <outline>
    <contour>
      <point x="262" y="680" type="line"/>
      <point x="6" y="0" type="line"/>
      <point x="100" y="0" type="line"/>
      <point x="123" y="60"/>
      <point x="145" y="121"/>
      <point x="168" y="182" type="curve"/>
      <point x="445" y="182" type="line"/>
      <point x="469" y="121"/>
      <point x="492" y="60"/>
      <point x="516" y="0" type="curve"/>
      <point x="547" y="4"/>
      <point x="580" y="9"/>
      <point x="611" y="14" type="curve"/>
      <point x="524" y="236"/>
      <point x="437" y="458"/>
      <point x="349" y="680" type="curve"/>
    </contour>
    <contour>
      <point x="416" y="259" type="line"/>
      <point x="195" y="259" type="line"/>
      <point x="232" y="356"/>
      <point x="268" y="454"/>
      <point x="304" y="551" type="curve"/>
    </contour>
    <contour>
      <point x="389" y="857" type="line"/>
      <point x="388" y="835"/>
      <point x="373" y="820"/>
      <point x="357" y="820" type="curve" smooth="yes"/>
      <point x="321" y="820"/>
      <point x="297" y="861"/>
      <point x="244" y="861" type="curve" smooth="yes"/>
      <point x="193" y="861"/>
      <point x="149" y="836"/>
      <point x="149" y="756" type="curve"/>
      <point x="215" y="756" type="line"/>
      <point x="216" y="777"/>
      <point x="232" y="793"/>
      <point x="248" y="793" type="curve" smooth="yes"/>
      <point x="283" y="793"/>
      <point x="310" y="751"/>
      <point x="357" y="751" type="curve" smooth="yes"/>
      <point x="409" y="751"/>
      <point x="453" y="777"/>
      <point x="453" y="857" type="curve"/>
    </contour>
  </outline>
</glyph>
<glyph name="Adieresis" format="1">
  <advance width="617"/>
  <unicode hex="00C4"/>
  <outline>
    <contour>
      <point x="349" y="680" type="line"/>
      <point x="262" y="680" type="line"/>
      <point x="6" y="0" type="line"/>
      <point x="100" y="0" type="line"/>
      <point x="168" y="182" type="line"/>
      <point x="445" y="182" type="line"/>
      <point x="516" y="0" type="line"/>
      <point x="611" y="14" type="line"/>
    </contour>
    <contour>
      <point x="304" y="551" type="line"/>
      <point x="416" y="259" type="line"/>
      <point x="195" y="259" type="line"/>
    </contour>
    <contour>
      <point x="445" y="844"/>
      <point x="422" y="868"/>
      <point x="391" y="868" type="curve"/>
      <point x="361" y="868"/>
      <point x="337" y="844"/>
      <point x="337" y="814" type="curve"/>
      <point x="337" y="784"/>
      <point x="361" y="760"/>
      <point x="391" y="760" type="curve"/>
      <point x="422" y="760"/>
      <point x="445" y="784"/>
      <point x="445" y="814" type="curve"/>
    </contour>
    <contour>
      <point x="271" y="844"/>
      <point x="248" y="868"/>
      <point x="217" y="868" type="curve"/>
      <point x="187" y="868"/>
      <point x="163" y="844"/>
      <point x="163" y="814" type="curve"/>
      <point x="163" y="784"/>
      <point x="187" y="760"/>
      <point x="217" y="760" type="curve"/>
      <point x="248" y="760"/>
      <point x="271" y="784"/>
      <point x="271" y="814" type="curve"/>
    </contour>
  </outline>
</glyph>
<glyph name="Ccedilla" format="1">
  <advance width="596"/>
  <unicode hex="00C7"/>
  <outline>
    <contour>
      <point x="432" y="612"/>
      <point x="461" y="601"/>
      <point x="511" y="584" type="curve"/>
      <point x="541" y="653" type="line"/>
      <point x="492" y="682"/>
      <point x="408" y="694"/>
      <point x="368" y="694" type="curve"/>
      <point x="169" y="694"/>
      <point x="65" y="541"/>
      <point x="65" y="336" type="curve"/>
      <point x="65" y="157"/>
      <point x="140" y="7"/>
      <point x="321" y="-12" type="curve"/>
      <point x="296" y="-78" type="line"/>
      <point x="347" y="-84"/>
      <point x="385" y="-103"/>
      <point x="385" y="-127" type="curve"/>
      <point x="385" y="-147"/>
      <point x="361" y="-156"/>
      <point x="339" y="-156" type="curve"/>
      <point x="320" y="-156"/>
      <point x="292" y="-146"/>
      <point x="277" y="-139" type="curve"/>
      <point x="254" y="-198" type="line"/>
      <point x="274" y="-212"/>
      <point x="314" y="-221"/>
      <point x="339" y="-221" type="curve"/>
      <point x="401" y="-221"/>
      <point x="458" y="-191"/>
      <point x="458" y="-125" type="curve"/>
      <point x="458" y="-90"/>
      <point x="425" y="-53"/>
      <point x="383" y="-42" type="curve"/>
      <point x="394" y="-12" type="line"/>
      <point x="446" y="-8"/>
      <point x="507" y="7"/>
      <point x="544" y="26" type="curve"/>
      <point x="507" y="98" type="line"/>
      <point x="469" y="81"/>
      <point x="423" y="68"/>
      <point x="358" y="68" type="curve"/>
      <point x="222" y="68"/>
      <point x="165" y="190"/>
      <point x="165" y="337" type="curve"/>
      <point x="165" y="502"/>
      <point x="241" y="612"/>
      <point x="366" y="612" type="curve"/>
    </contour>
  </outline>
</glyph>
<glyph name="Egrave" format="1">
  <advance width="552"/>
  <unicode hex="00C8"/>
  <outline>
    <contour>
      <point x="94" y="0" type="line"/>
      <point x="526" y="0" type="line"/>
      <point x="513" y="75" type="line"/>
      <point x="190" y="75" type="line"/>
      <point x="190" y="309" type="line"/>
      <point x="394" y="309" type="line"/>
      <point x="389" y="333"/>
      <point x="385" y="358"/>
      <point x="381" y="383" type="curve"/>
      <point x="190" y="383" type="line"/>
      <point x="190" y="606" type="line"/>
      <point x="490" y="606" type="line"/>
      <point x="485" y="631"/>
      <point x="482" y="655"/>
      <point x="477" y="680" type="curve"/>
      <point x="94" y="680" type="line"/>
    </contour>
    <contour>
      <point x="191" y="897" type="line"/>
      <point x="281" y="739" type="line"/>
      <point x="354" y="739" type="line"/>
      <point x="294" y="897" type="line"/>
    </contour>
  </outline>
</glyph>
<glyph name="Icircumflex" format="1">
  <advance width="284"/>
  <unicode hex="00CE"/>
  <outline>
    <contour>
      <point x="94" y="0" type="line"/>
      <point x="190" y="0" type="line"/>
      <point x="190" y="680" type="line"/>
      <point x="94" y="680" type="line"/>
    </contour>
    <contour>
      <point x="71" y="739" type="line"/>
      <point x="94" y="768"/>
      <point x="118" y="797"/>
      <point x="142" y="826" type="curve"/>
      <point x="165" y="797"/>
      <point x="188" y="768"/>
      <point x="212" y="739" type="curve"/>
      <point x="302" y="739" type="line"/>
      <point x="173" y="897" type="line"/>
      <point x="108" y="897" type="line"/>
      <point x="65" y="844"/>
      <point x="22" y="792"/>
      <point x="-20" y="739" type="curve"/>
    </contour>
  </outline>
</glyph>
<glyph name="Idieresis" format="1">
  <advance width="284"/>
  <unicode hex="00CF"/>
  <outline>
    <contour>
      <point x="94" y="0" type="line"/>
      <point x="190" y="0" type="line"/>
      <point x="190" y="680" type="line"/>
      <point x="94" y="680" type="line"/>
    </contour>
    <contour>
      <point x="109" y="844"/>
      <point x="86" y="868"/>
      <point x="55" y="868" type="curve" smooth="yes"/>
      <point x="25" y="868"/>
      <point x="1" y="844"/>
      <point x="1" y="814" type="curve" smooth="yes"/>
      <point x="1" y="784"/>
      <point x="25" y="760"/>
      <point x="55" y="760" type="curve" smooth="yes"/>
      <point x="86" y="760"/>
      <point x="109" y="784"/>
      <point x="109" y="814" type="curve" smooth="yes"/>
    </contour>
    <contour>
      <point x="283" y="844"/>
      <point x="260" y="868"/>
      <point x="229" y="868" type="curve" smooth="yes"/>
      <point x="199" y="868"/>
      <point x="175" y="844"/>
      <point x="175" y="814" type="curve" smooth="yes"/>
      <point x="175" y="784"/>
      <point x="199" y="760"/>
      <point x="229" y="760" type="curve" smooth="yes"/>
      <point x="260" y="760"/>
      <point x="283" y="784"/>
      <point x="283" y="814" type="curve" smooth="yes"/>
    </contour>
  </outline>
</glyph>
<glyph name="Ntilde" format="1">
  <advance width="722"/>
  <unicode hex="00D1"/>
  <outline>
    <contour>
      <point x="94" y="0" type="line"/>
      <point x="190" y="0" type="line"/>
      <point x="190" y="507" type="line"/>
      <point x="228" y="447" type="line"/>
      <point x="543" y="0" type="line"/>
      <point x="629" y="0" type="line"/>
      <point x="629" y="680" type="line"/>
      <point x="532" y="680" type="line"/>
      <point x="532" y="177" type="line"/>
      <point x="484" y="252" type="line"/>
      <point x="179" y="680" type="line"/>
      <point x="94" y="680" type="line"/>
    </contour>
    <contour>
      <point x="457" y="857" type="line"/>
      <point x="456" y="835"/>
      <point x="441" y="820"/>
      <point x="425" y="820" type="curve" smooth="yes"/>
      <point x="389" y="820"/>
      <point x="365" y="861"/>
      <point x="312" y="861" type="curve" smooth="yes"/>
      <point x="261" y="861"/>
      <point x="217" y="836"/>
      <point x="217" y="756" type="curve"/>
      <point x="283" y="756" type="line"/>
      <point x="284" y="777"/>
      <point x="300" y="793"/>
      <point x="316" y="793" type="curve" smooth="yes"/>
      <point x="351" y="793"/>
      <point x="378" y="751"/>
      <point x="425" y="751" type="curve" smooth="yes"/>
      <point x="477" y="751"/>
      <point x="521" y="777"/>
      <point x="521" y="857" type="curve"/>
    </contour>
  </outline>
</glyph>
<glyph name="Oacute" format="1">
  <advance width="738"/>
  <unicode hex="00D3"/>
  <outline>
    <contour>
      <point x="172" y="692"/>
      <point x="65" y="542"/>
      <point x="65" y="337" type="curve"/>
      <point x="65" y="146"/>
      <point x="156" y="-14"/>
      <point x="367" y="-14" type="curve"/>
      <point x="566" y="-11"/>
      <point x="674" y="144"/>
      <point x="674" y="344" type="curve"/>
      <point x="674" y="535"/>
      <point x="582" y="696"/>
      <point x="370" y="696" type="curve"/>
    </contour>
    <contour>
      <point x="227" y="68"/>
      <point x="165" y="185"/>
      <point x="165" y="338" type="curve"/>
      <point x="165" y="502"/>
      <point x="247" y="613"/>
      <point x="372" y="613" type="curve"/>
      <point x="511" y="613"/>
      <point x="572" y="496"/>
      <point x="572" y="344" type="curve"/>
      <point x="572" y="170"/>
      <point x="493" y="68"/>
      <point x="366" y="68" type="curve"/>
    </contour>
    <contour>
      <point x="366" y="897" type="line"/>
      <point x="306" y="739" type="line"/>
      <point x="379" y="739" type="line"/>
      <point x="469" y="897" type="line"/>
    </contour>
  </outline>
</glyph>
<glyph name="Udieresis" format="1">
  <advance width="699"/>
  <unicode hex="00DC"/>
  <outline>
    <contour>
      <point x="248" y="68"/>
      <point x="182" y="137"/>
      <point x="182" y="252" type="curve" smooth="yes"/>
      <point x="182" y="680" type="line"/>
      <point x="86" y="680" type="line"/>
      <point x="86" y="243" type="line" smooth="yes"/>
      <point x="86" y="96"/>
      <point x="186" y="-11"/>
      <point x="349" y="-11" type="curve" smooth="yes"/>
      <point x="512" y="-11"/>
      <point x="612" y="97"/>
      <point x="612" y="243" type="curve" smooth="yes"/>
      <point x="612" y="680" type="line"/>
      <point x="515" y="680" type="line"/>
      <point x="515" y="252" type="line" smooth="yes"/>
      <point x="515" y="139"/>
      <point x="453" y="68"/>
      <point x="349" y="68" type="curve" smooth="yes"/>
    </contour>
    <contour>
      <point x="316" y="844"/>
      <point x="293" y="868"/>
      <point x="263" y="868" type="curve" smooth="yes"/>
      <point x="233" y="868"/>
      <point x="208" y="844"/>
      <point x="208" y="814" type="curve" smooth="yes"/>
      <point x="208" y="784"/>
      <point x="233" y="760"/>
      <point x="263" y="760" type="curve" smooth="yes"/>
      <point x="293" y="760"/>
      <point x="316" y="784"/>
      <point x="316" y="814" type="curve" smooth="yes"/>
    </contour>
    <contour>
      <point x="490" y="844"/>
      <point x="467" y="868"/>
      <point x="436" y="868" type="curve" smooth="yes"/>
      <point x="407" y="868"/>
      <point x="382" y="844"/>
      <point x="382" y="814" type="curve" smooth="yes"/>
      <point x="382" y="784"/>
      <point x="407" y="760"/>
      <point x="436" y="760" type="curve" smooth="yes"/>
      <point x="467" y="760"/>
      <point x="490" y="784"/>
      <point x="490" y="814" type="curve" smooth="yes"/>
    </contour>
  </outline>
</glyph>
<glyph name="Yacute" format="1">
  <advance width="576"/>
  <unicode hex="00DD"/>
  <outline>
    <contour>
      <point x="237" y="0" type="line"/>
      <point x="333" y="0" type="line"/>
      <point x="334" y="271" type="line"/>
      <point x="571" y="680" type="line"/>
      <point x="469" y="680" type="line"/>
      <point x="285" y="366" type="line"/>
      <point x="105" y="680" type="line"/>
      <point x="6" y="666" type="line"/>
      <point x="237" y="270" type="line"/>
    </contour>
    <contour>
      <point x="273" y="897" type="line"/>
      <point x="213" y="739" type="line"/>
      <point x="286" y="739" type="line"/>
      <point x="376" y="897" type="line"/>
    </contour>
  </outline>
</glyph>
<glyph name="germandbls" format="1">
  <advance width="608"/>
  <unicode hex="00DF"/>
  <outline>
    <contour>
      <point x="163" y="691"/>
      <point x="76" y="609"/>
      <point x="76" y="473" type="curve"/>
      <point x="76" y="0" type="line"/>
      <point x="172" y="0" type="line"/>
      <point x="172" y="472" type="line" smooth="yes"/>
      <point x="172" y="554"/>
      <point x="220" y="608"/>
      <point x="302" y="608" type="curve"/>
      <point x="367" y="608"/>
      <point x="422" y="573"/>
      <point x="422" y="500" type="curve"/>
      <point x="422" y="432"/>
      <point x="377" y="390"/>
      <point x="281" y="390" type="curve"/>
      <point x="250" y="390" type="line"/>
      <point x="250" y="313" type="line"/>
      <point x="320" y="313" type="line" smooth="yes"/>
      <point x="403" y="313"/>
      <point x="463" y="272"/>
      <point x="463" y="192" type="curve"/>
      <point x="463" y="112"/>
      <point x="395" y="79"/>
      <point x="310" y="79" type="curve"/>
      <point x="239" y="79" type="line"/>
      <point x="239" y="0" type="line"/>
      <point x="314" y="0" type="line" smooth="yes"/>
      <point x="458" y="0"/>
      <point x="563" y="59"/>
      <point x="563" y="191" type="curve"/>
      <point x="563" y="280"/>
      <point x="505" y="341"/>
      <point x="438" y="364" type="curve"/>
      <point x="489" y="389"/>
      <point x="521" y="443"/>
      <point x="521" y="505" type="curve"/>
      <point x="521" y="630"/>
      <point x="423" y="691"/>
      <point x="300" y="691" type="curve"/>
    </contour>
  </outline>
</glyph>
<glyph name="ae" format="1">
  <advance width="829"/>
  <unicode hex="00E6"/>
  <outline>
    <contour>
      <point x="786" y="221" type="line"/>
      <point x="786" y="372"/>
      <point x="734" y="498"/>
      <point x="573" y="498" type="curve" smooth="yes"/>
      <point x="500" y="498"/>
      <point x="442" y="470"/>
      <point x="403" y="424" type="curve"/>
      <point x="370" y="469"/>
      <point x="314" y="498"/>
      <point x="244" y="498" type="curve" smooth="yes"/>
      <point x="203" y="498"/>
      <point x="117" y="480"/>
      <point x="79" y="455" type="curve"/>
      <point x="106" y="379" type="line"/>
      <point x="142" y="395"/>
      <point x="188" y="412"/>
      <point x="246" y="412" type="curve" smooth="yes"/>
      <point x="311" y="412"/>
      <point x="344" y="371"/>
      <point x="344" y="311" type="curve" smooth="yes"/>
      <point x="344" y="286" type="line"/>
      <point x="228" y="286" type="line" smooth="yes"/>
      <point x="122" y="286"/>
      <point x="50" y="235"/>
      <point x="50" y="138" type="curve" smooth="yes"/>
      <point x="50" y="49"/>
      <point x="103" y="-12"/>
      <point x="221" y="-12" type="curve" smooth="yes"/>
      <point x="292" y="-12"/>
      <point x="361" y="31"/>
      <point x="394" y="76" type="curve"/>
      <point x="435" y="20"/>
      <point x="503" y="-12"/>
      <point x="595" y="-12" type="curve" smooth="yes"/>
      <point x="636" y="-12"/>
      <point x="715" y="1"/>
      <point x="757" y="31" type="curve"/>
      <point x="728" y="101" type="line"/>
      <point x="688" y="82"/>
      <point x="654" y="68"/>
      <point x="596" y="68" type="curve" smooth="yes"/>
      <point x="496" y="68"/>
      <point x="449" y="131"/>
      <point x="442" y="221" type="curve"/>
    </contour>
    <contour>
      <point x="162" y="64"/>
      <point x="136" y="101"/>
      <point x="136" y="138" type="curve" smooth="yes"/>
      <point x="136" y="184"/>
      <point x="167" y="221"/>
      <point x="226" y="221" type="curve" smooth="yes"/>
      <point x="343" y="221" type="line"/>
      <point x="345" y="192"/>
      <point x="350" y="166"/>
      <point x="357" y="142" type="curve"/>
      <point x="323" y="95"/>
      <point x="272" y="64"/>
      <point x="217" y="64" type="curve" smooth="yes"/>
    </contour>
    <contour>
      <point x="644" y="416"/>
      <point x="682" y="366"/>
      <point x="692" y="286" type="curve"/>
      <point x="443" y="286" type="line"/>
      <point x="455" y="365"/>
      <point x="497" y="416"/>
      <point x="571" y="416" type="curve" smooth="yes"/>
    </contour>
  </outline>
</glyph>
<glyph name="ccedilla" format="1">
  <advance width="474"/>
  <unicode hex="00E7"/>
  <outline>
    <contour>
      <point x="146" y="342"/>
      <point x="190" y="416"/>
      <point x="281" y="416" type="curve"/>
      <point x="339" y="416"/>
      <point x="366" y="401"/>
      <point x="407" y="383" type="curve"/>
      <point x="435" y="451" type="line"/>
      <point x="392" y="481"/>
      <point x="322" y="498"/>
      <point x="282" y="498" type="curve"/>
      <point x="131" y="498"/>
      <point x="48" y="394"/>
      <point x="47" y="243" type="curve"/>
      <point x="47" y="103"/>
      <point x="114" y="5"/>
      <point x="241" y="-10" type="curve"/>
      <point x="215" y="-78" type="line"/>
      <point x="265" y="-84"/>
      <point x="302" y="-103"/>
      <point x="302" y="-127" type="curve"/>
      <point x="302" y="-147"/>
      <point x="279" y="-156"/>
      <point x="258" y="-156" type="curve"/>
      <point x="239" y="-156"/>
      <point x="210" y="-146"/>
      <point x="195" y="-139" type="curve"/>
      <point x="172" y="-198" type="line"/>
      <point x="192" y="-212"/>
      <point x="232" y="-221"/>
      <point x="258" y="-221" type="curve"/>
      <point x="319" y="-221"/>
      <point x="376" y="-191"/>
      <point x="376" y="-125" type="curve"/>
      <point x="376" y="-90"/>
      <point x="343" y="-53"/>
      <point x="301" y="-42" type="curve"/>
      <point x="313" y="-10" type="line"/>
      <point x="353" y="-4"/>
      <point x="400" y="10"/>
      <point x="433" y="33" type="curve"/>
      <point x="404" y="102" type="line"/>
      <point x="363" y="82"/>
      <point x="337" y="69"/>
      <point x="278" y="69" type="curve"/>
      <point x="186" y="69"/>
      <point x="145" y="142"/>
      <point x="145" y="244" type="curve"/>
    </contour>
  </outline>
</glyph>
<glyph name="ecircumflex" format="1">
  <advance width="533"/>
  <unicode hex="00EA"/>
  <outline>
    <contour>
      <point x="491" y="221" type="line"/>
      <point x="491" y="370"/>
      <point x="437" y="498"/>
      <point x="279" y="498" type="curve" smooth="yes"/>
      <point x="133" y="498"/>
      <point x="47" y="394"/>
      <point x="47" y="243" type="curve" smooth="yes"/>
      <point x="47" y="90"/>
      <point x="136" y="-12"/>
      <point x="300" y="-12" type="curve" smooth="yes"/>
      <point x="341" y="-12"/>
      <point x="419" y="1"/>
      <point x="462" y="31" type="curve"/>
      <point x="432" y="101" type="line"/>
      <point x="392" y="82"/>
      <point x="358" y="68"/>
      <point x="300" y="68" type="curve" smooth="yes"/>
      <point x="201" y="68"/>
      <point x="154" y="131"/>
      <point x="147" y="221" type="curve"/>
    </contour>
    <contour>
      <point x="350" y="416"/>
      <point x="386" y="366"/>
      <point x="398" y="286" type="curve"/>
      <point x="149" y="286" type="line"/>
      <point x="159" y="365"/>
      <point x="201" y="416"/>
      <point x="276" y="416" type="curve" smooth="yes"/>
    </contour>
    <contour>
      <point x="210" y="589" type="line"/>
      <point x="234" y="618"/>
      <point x="258" y="647"/>
      <point x="281" y="676" type="curve"/>
      <point x="351" y="589" type="line"/>
      <point x="441" y="589" type="line"/>
      <point x="312" y="747" type="line"/>
      <point x="248" y="747" type="line"/>
      <point x="118" y="589" type="line"/>
    </contour>
  </outline>
</glyph>
<glyph name="iacute" format="1">
  <advance width="244"/>
  <unicode hex="00ED"/>
  <outline>
    <contour>
      <point x="73" y="0" type="line"/>
      <point x="170" y="0" type="line"/>
      <point x="170" y="485" type="line"/>
      <point x="73" y="485" type="line"/>
    </contour>
    <contour>
      <point x="134" y="747" type="line"/>
      <point x="74" y="589" type="line"/>
      <point x="147" y="589" type="line"/>
      <point x="237" y="747" type="line"/>
    </contour>
  </outline>
</glyph>
<glyph name="idieresis" format="1">
  <advance width="244"/>
  <unicode hex="00EF"/>
  <outline>
    <contour>
      <point x="73" y="0" type="line"/>
      <point x="170" y="0" type="line"/>
      <point x="170" y="485" type="line"/>
      <point x="73" y="485" type="line"/>
    </contour>
    <contour>
      <point x="90" y="694"/>
      <point x="65" y="718"/>
      <point x="35" y="718" type="curve" smooth="yes"/>
      <point x="5" y="718"/>
      <point x="-19" y="694"/>
      <point x="-19" y="664" type="curve" smooth="yes"/>
      <point x="-19" y="634"/>
      <point x="5" y="610"/>
      <point x="35" y="610" type="curve" smooth="yes"/>
      <point x="65" y="610"/>
      <point x="90" y="634"/>
      <point x="90" y="664" type="curve" smooth="yes"/>
    </contour>
    <contour>
      <point x="263" y="694"/>
      <point x="239" y="718"/>
      <point x="209" y="718" type="curve" smooth="yes"/>
      <point x="179" y="718"/>
      <point x="154" y="694"/>
      <point x="154" y="664" type="curve" smooth="yes"/>
      <point x="154" y="634"/>
      <point x="179" y="610"/>
      <point x="209" y="610" type="curve" smooth="yes"/>
      <point x="239" y="610"/>
      <point x="263" y="634"/>
      <point x="263" y="664" type="curve" smooth="yes"/>
    </contour>
  </outline>
</glyph>
<glyph name="ntilde" format="1">
  <advance width="566"/>
  <unicode hex="00F1"/>
  <outline>
    <contour>
      <point x="73" y="0" type="line"/>
      <point x="169" y="0" type="line"/>
      <point x="169" y="350" type="line"/>
      <point x="208" y="392"/>
      <point x="268" y="419"/>
      <point x="308" y="419" type="curve" smooth="yes"/>
      <point x="371" y="419"/>
      <point x="402" y="375"/>
      <point x="402" y="311" type="curve" smooth="yes"/>
      <point x="402" y="0" type="line"/>
      <point x="498" y="0" type="line"/>
      <point x="498" y="320" type="line" smooth="yes"/>
      <point x="498" y="424"/>
      <point x="447" y="501"/>
      <point x="328" y="501" type="curve" smooth="yes"/>
      <point x="272" y="501"/>
      <point x="199" y="467"/>
      <point x="157" y="421" type="curve"/>
      <point x="127" y="485" type="line"/>
      <point x="73" y="485" type="line"/>
    </contour>
    <contour>
      <point x="396" y="707" type="line"/>
      <point x="395" y="685"/>
      <point x="379" y="670"/>
      <point x="363" y="670" type="curve" smooth="yes"/>
      <point x="327" y="670"/>
      <point x="303" y="711"/>
      <point x="251" y="711" type="curve" smooth="yes"/>
      <point x="200" y="711"/>
      <point x="154" y="686"/>
      <point x="154" y="606" type="curve"/>
      <point x="222" y="606" type="line"/>
      <point x="222" y="626"/>
      <point x="236" y="643"/>
      <point x="254" y="643" type="curve" smooth="yes"/>
      <point x="290" y="643"/>
      <point x="316" y="601"/>
      <point x="363" y="601" type="curve" smooth="yes"/>
      <point x="417" y="601"/>
      <point x="459" y="627"/>
      <point x="459" y="707" type="curve"/>
    </contour>
  </outline>
</glyph>
<glyph name="otilde" format="1">
  <advance width="559"/>
  <unicode hex="00F5"/>
  <outline>
    <contour>
      <point x="47" y="93"/>
      <point x="124" y="-12"/>
      <point x="271" y="-12" type="curve" smooth="yes"/>
      <point x="421" y="-12"/>
      <point x="511" y="88"/>
      <point x="511" y="239" type="curve" smooth="yes"/>
      <point x="511" y="392"/>
      <point x="433" y="498"/>
      <point x="280" y="498" type="curve" smooth="yes"/>
      <point x="132" y="498"/>
      <point x="48" y="393"/>
      <point x="47" y="244" type="curve"/>
    </contour>
    <contour>
      <point x="375" y="416"/>
      <point x="414" y="343"/>
      <point x="414" y="239" type="curve" smooth="yes"/>
      <point x="414" y="132"/>
      <point x="363" y="69"/>
      <point x="273" y="69" type="curve" smooth="yes"/>
      <point x="180" y="69"/>
      <point x="145" y="137"/>
      <point x="145" y="245" type="curve" smooth="yes"/>
      <point x="145" y="350"/>
      <point x="192" y="416"/>
      <point x="283" y="416" type="curve" smooth="yes"/>
    </contour>
    <contour>
      <point x="365" y="707" type="line"/>
      <point x="364" y="684"/>
      <point x="348" y="670"/>
      <point x="332" y="670" type="curve" smooth="yes"/>
      <point x="297" y="670"/>
      <point x="273" y="711"/>
      <point x="220" y="711" type="curve" smooth="yes"/>
      <point x="169" y="711"/>
      <point x="124" y="686"/>
      <point x="124" y="606" type="curve"/>
      <point x="192" y="606" type="line"/>
      <point x="192" y="628"/>
      <point x="207" y="643"/>
      <point x="224" y="643" type="curve" smooth="yes"/>
      <point x="260" y="643"/>
      <point x="286" y="601"/>
      <point x="333" y="601" type="curve" smooth="yes"/>
      <point x="385" y="601"/>
      <point x="429" y="627"/>
      <point x="429" y="707" type="curve"/>
    </contour>
  </outline>
</glyph>
<glyph name="odieresis" format="1">
  <advance width="559"/>
  <unicode hex="00F6"/>
  <outline>
    <contour>
      <point x="47" y="92"/>
      <point x="124" y="-11"/>
      <point x="271" y="-13" type="curve"/>
      <point x="421" y="-12"/>
      <point x="511" y="88"/>
      <point x="511" y="239" type="curve"/>
      <point x="511" y="392"/>
      <point x="433" y="498"/>
      <point x="280" y="498" type="curve"/>
      <point x="132" y="497"/>
      <point x="48" y="394"/>
      <point x="47" y="244" type="curve"/>
    </contour>
    <contour>
      <point x="375" y="416"/>
      <point x="414" y="343"/>
      <point x="414" y="239" type="curve"/>
      <point x="413" y="132"/>
      <point x="364" y="69"/>
      <point x="273" y="69" type="curve"/>
      <point x="180" y="69"/>
      <point x="145" y="137"/>
      <point x="145" y="245" type="curve"/>
      <point x="146" y="350"/>
      <point x="191" y="416"/>
      <point x="283" y="416" type="curve"/>
    </contour>
    <contour>
      <point x="421" y="694"/>
      <point x="398" y="718"/>
      <point x="367" y="718" type="curve"/>
      <point x="337" y="718"/>
      <point x="313" y="694"/>
      <point x="313" y="664" type="curve"/>
      <point x="313" y="634"/>
      <point x="337" y="610"/>
      <point x="367" y="610" type="curve"/>
      <point x="398" y="610"/>
      <point x="421" y="634"/>
      <point x="421" y="664" type="curve"/>
    </contour>
    <contour>
      <point x="247" y="694"/>
      <point x="223" y="718"/>
      <point x="193" y="718" type="curve"/>
      <point x="163" y="718"/>
      <point x="139" y="694"/>
      <point x="139" y="664" type="curve"/>
      <point x="139" y="634"/>
      <point x="163" y="610"/>
      <point x="193" y="610" type="curve"/>
      <point x="223" y="610"/>
      <point x="247" y="634"/>
      <point x="247" y="664" type="curve"/>
    </contour>
  </outline>
</glyph>
<glyph name="divide" format="1">
  <advance width="480"/>
  <unicode hex="00F7"/>
  <outline>
    <contour>
      <point x="172" y="390"/>
      <point x="201" y="360"/>
      <point x="239" y="360" type="curve"/>
      <point x="276" y="360"/>
      <point x="305" y="390"/>
      <point x="305" y="426" type="curve"/>
      <point x="305" y="464"/>
      <point x="276" y="493"/>
      <point x="239" y="493" type="curve"/>
      <point x="201" y="493"/>
      <point x="172" y="464"/>
      <point x="172" y="426" type="curve"/>
    </contour>
    <contour>
      <point x="173" y="71"/>
      <point x="202" y="40"/>
      <point x="240" y="40" type="curve"/>
      <point x="277" y="40"/>
      <point x="307" y="71"/>
      <point x="307" y="107" type="curve"/>
      <point x="307" y="145"/>
      <point x="277" y="174"/>
      <point x="240" y="174" type="curve"/>
      <point x="202" y="174"/>
      <point x="173" y="145"/>
      <point x="173" y="107" type="curve"/>
    </contour>
    <contour>
      <point x="461" y="235" type="line"/>
      <point x="452" y="311" type="line"/>
      <point x="18" y="311" type="line"/>
      <point x="27" y="235" type="line"/>
    </contour>
  </outline>
</glyph>
<glyph name="ugrave" format="1">
  <advance width="553"/>
  <unicode hex="00F9"/>
  <outline>
    <contour>
      <point x="289" y="-16"/>
      <point x="354" y="11"/>
      <point x="397" y="51" type="curve"/>
      <point x="425" y="0" type="line"/>
      <point x="480" y="0" type="line"/>
      <point x="480" y="485" type="line"/>
      <point x="384" y="485" type="line"/>
      <point x="384" y="120" type="line"/>
      <point x="344" y="87"/>
      <point x="293" y="66"/>
      <point x="257" y="66" type="curve"/>
      <point x="195" y="66"/>
      <point x="164" y="109"/>
      <point x="164" y="172" type="curve"/>
      <point x="164" y="485" type="line"/>
      <point x="67" y="485" type="line"/>
      <point x="67" y="165" type="line"/>
      <point x="67" y="61"/>
      <point x="118" y="-16"/>
      <point x="237" y="-16" type="curve"/>
    </contour>
    <contour>
      <point x="170" y="747" type="line"/>
      <point x="260" y="589" type="line"/>
      <point x="332" y="589" type="line"/>
      <point x="272" y="747" type="line"/>
    </contour>
  </outline>
</glyph>
<glyph name="ucircumflex" format="1">
  <advance width="553"/>
  <unicode hex="00FB"/>
  <outline>
    <contour>
      <point x="289" y="-16"/>
      <point x="354" y="11"/>
      <point x="397" y="51" type="curve"/>
      <point x="425" y="0" type="line"/>
      <point x="480" y="0" type="line"/>
      <point x="480" y="485" type="line"/>
      <point x="384" y="485" type="line"/>
      <point x="384" y="120" type="line"/>
      <point x="344" y="87"/>
      <point x="293" y="66"/>
      <point x="257" y="66" type="curve"/>
      <point x="195" y="66"/>
      <point x="164" y="109"/>
      <point x="164" y="172" type="curve"/>
      <point x="164" y="485" type="line"/>
      <point x="67" y="485" type="line"/>
      <point x="67" y="165" type="line"/>
      <point x="67" y="61"/>
      <point x="118" y="-16"/>
      <point x="237" y="-16" type="curve"/>
    </contour>
    <contour>
      <point x="206" y="589" type="line"/>
      <point x="277" y="676" type="line"/>
      <point x="347" y="589" type="line"/>
      <point x="437" y="589" type="line"/>
      <point x="307" y="747" type="line"/>
      <point x="243" y="747" type="line"/>
      <point x="114" y="589" type="line"/>
    </contour>
  </outline>
</glyph>
<glyph name="Abreve" format="1">
  <advance width="617"/>
  <unicode hex="0102"/>
  <outline>
    <contour>
      <point x="349" y="680" type="line"/>
      <point x="262" y="680" type="line"/>
      <point x="6" y="0" type="line"/>
      <point x="100" y="0" type="line"/>
      <point x="168" y="182" type="line"/>
      <point x="445" y="182" type="line"/>
      <point x="516" y="0" type="line"/>
      <point x="611" y="14" type="line"/>
    </contour>
    <contour>
      <point x="304" y="551" type="line"/>
      <point x="416" y="259" type="line"/>
      <point x="195" y="259" type="line"/>
    </contour>
    <contour>
      <point x="401" y="747"/>
      <point x="443" y="816"/>
      <point x="443" y="892" type="curve"/>
      <point x="376" y="892" type="line"/>
      <point x="376" y="856"/>
      <point x="352" y="815"/>
      <point x="304" y="815" type="curve"/>
      <point x="254" y="815"/>
      <point x="233" y="856"/>
      <point x="233" y="892" type="curve"/>
      <point x="166" y="892" type="line"/>
      <point x="166" y="816"/>
      <point x="207" y="747"/>
      <point x="304" y="745" type="curve"/>
    </contour>
  </outline>
</glyph>
<glyph name="aogonek" format="1">
  <advance width="508"/>
  <unicode hex="0105"/>
  <outline>
    <contour>
      <point x="203" y="498"/>
      <point x="117" y="480"/>
      <point x="79" y="455" type="curve"/>
      <point x="106" y="379" type="line"/>
      <point x="142" y="395"/>
      <point x="188" y="412"/>
      <point x="246" y="412" type="curve" smooth="yes"/>
      <point x="322" y="412"/>
      <point x="343" y="357"/>
      <point x="343" y="290" type="curve"/>
      <point x="228" y="290" type="line" smooth="yes"/>
      <point x="122" y="290"/>
      <point x="50" y="238"/>
      <point x="50" y="140" type="curve" smooth="yes"/>
      <point x="50" y="51"/>
      <point x="104" y="-12"/>
      <point x="219" y="-12" type="curve" smooth="yes"/>
      <point x="271" y="-12"/>
      <point x="327" y="16"/>
      <point x="361" y="46" type="curve"/>
      <point x="369" y="23" type="line"/>
      <point x="336" y="-4"/>
      <point x="304" y="-51"/>
      <point x="304" y="-102" type="curve" smooth="yes"/>
      <point x="304" y="-162"/>
      <point x="350" y="-207"/>
      <point x="414" y="-207" type="curve" smooth="yes"/>
      <point x="450" y="-207"/>
      <point x="482" y="-196"/>
      <point x="506" y="-175" type="curve"/>
      <point x="476" y="-116" type="line"/>
      <point x="461" y="-129"/>
      <point x="443" y="-135"/>
      <point x="429" y="-135" type="curve" smooth="yes"/>
      <point x="404" y="-135"/>
      <point x="387" y="-122"/>
      <point x="387" y="-95" type="curve" smooth="yes"/>
      <point x="387" y="-61"/>
      <point x="416" y="-21"/>
      <point x="440" y="0" type="curve"/>
      <point x="440" y="329" type="line" smooth="yes"/>
      <point x="440" y="429"/>
      <point x="357" y="498"/>
      <point x="244" y="498" type="curve" smooth="yes"/>
    </contour>
    <contour>
      <point x="162" y="64"/>
      <point x="136" y="103"/>
      <point x="136" y="140" type="curve" smooth="yes"/>
      <point x="136" y="186"/>
      <point x="167" y="226"/>
      <point x="226" y="226" type="curve" smooth="yes"/>
      <point x="344" y="226" type="line"/>
      <point x="344" y="128" type="line"/>
      <point x="310" y="91"/>
      <point x="266" y="64"/>
      <point x="217" y="64" type="curve" smooth="yes"/>
    </contour>
  </outline>
</glyph>
<glyph name="Ccaron" format="1">
  <advance width="596"/>
  <unicode hex="010C"/>
  <outline>
    <contour>
      <point x="432" y="612"/>
      <point x="461" y="601"/>
      <point x="511" y="584" type="curve"/>
      <point x="541" y="653" type="line"/>
      <point x="492" y="682"/>
      <point x="408" y="694"/>
      <point x="368" y="694" type="curve"/>
      <point x="169" y="694"/>
      <point x="65" y="541"/>
      <point x="65" y="336" type="curve"/>
      <point x="65" y="145"/>
      <point x="151" y="-14"/>
      <point x="362" y="-14" type="curve"/>
      <point x="419" y="-14"/>
      <point x="499" y="3"/>
      <point x="544" y="26" type="curve"/>
      <point x="507" y="98" type="line"/>
      <point x="469" y="81"/>
      <point x="423" y="68"/>
      <point x="358" y="68" type="curve"/>
      <point x="222" y="68"/>
      <point x="165" y="190"/>
      <point x="165" y="337" type="curve"/>
      <point x="165" y="502"/>
      <point x="241" y="612"/>
      <point x="366" y="612" type="curve"/>
    </contour>
    <contour>
      <point x="204" y="897" type="line"/>
      <point x="332" y="739" type="line"/>
      <point x="398" y="739" type="line"/>
      <point x="527" y="897" type="line"/>
      <point x="436" y="897" type="line"/>
      <point x="366" y="811" type="line"/>
      <point x="295" y="897" type="line"/>
    </contour>
  </outline>
</glyph>
<glyph name="ecaron" format="1">
  <advance width="533"/>
  <unicode hex="011B"/>
  <outline>
    <contour>
      <point x="491" y="221" type="line"/>
      <point x="491" y="370"/>
      <point x="437" y="498"/>
      <point x="279" y="498" type="curve" smooth="yes"/>
      <point x="133" y="498"/>
      <point x="47" y="394"/>
      <point x="47" y="243" type="curve" smooth="yes"/>
      <point x="47" y="90"/>
      <point x="136" y="-12"/>
      <point x="300" y="-12" type="curve" smooth="yes"/>
      <point x="341" y="-12"/>
      <point x="419" y="1"/>
      <point x="462" y="31" type="curve"/>
      <point x="432" y="101" type="line"/>
      <point x="392" y="82"/>
      <point x="358" y="68"/>
      <point x="300" y="68" type="curve" smooth="yes"/>
      <point x="201" y="68"/>
      <point x="154" y="131"/>
      <point x="147" y="221" type="curve"/>
    </contour>
    <contour>
      <point x="350" y="416"/>
      <point x="386" y="366"/>
      <point x="398" y="286" type="curve"/>
      <point x="149" y="286" type="line"/>
      <point x="159" y="365"/>
      <point x="201" y="416"/>
      <point x="276" y="416" type="curve" smooth="yes"/>
    </contour>
    <contour>
      <point x="117" y="747" type="line"/>
      <point x="246" y="589" type="line"/>
      <point x="310" y="589" type="line"/>
      <point x="439" y="747" type="line"/>
      <point x="350" y="747" type="line"/>
      <point x="280" y="661" type="line"/>
      <point x="208" y="747" type="line"/>
    </contour>
  </outline>
</glyph>
<glyph name="Imacron" format="1">
  <advance width="284"/>
  <unicode hex="012A"/>
  <outline>
    <contour>
      <point x="94" y="0" type="line"/>
      <point x="190" y="0" type="line"/>
      <point x="190" y="680" type="line"/>
      <point x="94" y="680" type="line"/>
    </contour>
    <contour>
      <point x="15" y="852" type="line"/>
      <point x="15" y="776" type="line"/>
      <point x="266" y="776" type="line"/>
      <point x="266" y="852" type="line"/>
    </contour>
  </outline>
</glyph>
<glyph name="imacron" format="1">
  <advance width="244"/>
  <unicode hex="012B"/>
  <outline>
    <contour>
      <point x="73" y="0" type="line"/>
      <point x="170" y="0" type="line"/>
      <point x="170" y="485" type="line"/>
      <point x="73" y="485" type="line"/>
    </contour>
    <contour>
      <point x="-4" y="702" type="line"/>
      <point x="-4" y="626" type="line"/>
      <point x="247" y="626" type="line"/>
      <point x="247" y="702" type="line"/>
    </contour>
  </outline>
</glyph>
<glyph name="Iogonek" format="1">
  <advance width="284"/>
  <unicode hex="012E"/>
  <outline>
    <contour>
      <point x="94" y="2" type="line"/>
      <point x="68" y="-30"/>
      <point x="52" y="-71"/>
      <point x="52" y="-102" type="curve" smooth="yes"/>
      <point x="52" y="-162"/>
      <point x="97" y="-207"/>
      <point x="162" y="-207" type="curve" smooth="yes"/>
      <point x="198" y="-207"/>
      <point x="228" y="-196"/>
      <point x="253" y="-175" type="curve"/>
      <point x="223" y="-116" type="line"/>
      <point x="208" y="-129"/>
      <point x="190" y="-135"/>
      <point x="175" y="-135" type="curve" smooth="yes"/>
      <point x="151" y="-135"/>
      <point x="134" y="-122"/>
      <point x="134" y="-95" type="curve" smooth="yes"/>
      <point x="134" y="-65"/>
      <point x="162" y="-20"/>
      <point x="190" y="0" type="curve"/>
      <point x="190" y="680" type="line"/>
      <point x="94" y="680" type="line"/>
    </contour>
  </outline>
</glyph>
<glyph name="Idotaccent" format="1">
  <advance width="284"/>
  <unicode hex="0130"/>
  <outline>
    <contour>
      <point x="94" y="0" type="line"/>
      <point x="190" y="0" type="line"/>
      <point x="190" y="680" type="line"/>
      <point x="94" y="680" type="line"/>
    </contour>
    <contour>
      <point x="201" y="850"/>
      <point x="176" y="877"/>
      <point x="142" y="877" type="curve" smooth="yes"/>
      <point x="108" y="877"/>
      <point x="81" y="850"/>
      <point x="81" y="816" type="curve" smooth="yes"/>
      <point x="81" y="782"/>
      <point x="108" y="756"/>
      <point x="142" y="756" type="curve" smooth="yes"/>
      <point x="176" y="756"/>
      <point x="201" y="782"/>
      <point x="201" y="816" type="curve" smooth="yes"/>
    </contour>
  </outline>
</glyph>
<glyph name="Lcedilla" format="1">
  <advance width="525"/>
  <unicode hex="013B"/>
  <outline>
    <contour>
      <point x="372" y="-49"/>
      <point x="344" y="-21"/>
      <point x="310" y="-21" type="curve"/>
      <point x="276" y="-21"/>
      <point x="249" y="-51"/>
      <point x="249" y="-82" type="curve"/>
      <point x="249" y="-112"/>
      <point x="274" y="-140"/>
      <point x="299" y="-142" type="curve"/>
      <point x="293" y="-173"/>
      <point x="269" y="-195"/>
      <point x="244" y="-209" type="curve"/>
      <point x="267" y="-255" type="line"/>
      <point x="324" y="-227"/>
      <point x="372" y="-161"/>
      <point x="372" y="-93" type="curve"/>
    </contour>
    <contour>
      <point x="509" y="0" type="line"/>
      <point x="497" y="75" type="line"/>
      <point x="190" y="75" type="line"/>
      <point x="190" y="680" type="line"/>
      <point x="94" y="680" type="line"/>
      <point x="94" y="0" type="line"/>
    </contour>
  </outline>
</glyph>
<glyph name="lcaron" format="1">
  <advance width="396"/>
  <unicode hex="013E"/>
  <outline>
    <contour>
      <point x="76" y="0" type="line"/>
      <point x="172" y="0" type="line"/>
      <point x="172" y="706" type="line"/>
      <point x="76" y="695" type="line"/>
    </contour>
    <contour>
      <point x="388" y="693"/>
      <point x="361" y="722"/>
      <point x="326" y="722" type="curve" smooth="yes"/>
      <point x="295" y="722"/>
      <point x="267" y="691"/>
      <point x="267" y="661" type="curve" smooth="yes"/>
      <point x="267" y="631"/>
      <point x="291" y="603"/>
      <point x="315" y="601" type="curve"/>
      <point x="310" y="562"/>
      <point x="286" y="541"/>
      <point x="253" y="515" type="curve"/>
      <point x="261" y="500"/>
      <point x="269" y="485"/>
      <point x="276" y="470" type="curve"/>
      <point x="340" y="504"/>
      <point x="388" y="582"/>
      <point x="388" y="650" type="curve" smooth="yes"/>
    </contour>
  </outline>
</glyph>
<glyph name="Lslash" format="1">
  <advance width="533"/>
  <unicode hex="0141"/>
  <outline>
    <contour>
      <point x="517" y="0" type="line"/>
      <point x="505" y="75" type="line"/>
      <point x="197" y="75" type="line"/>
      <point x="197" y="316" type="line"/>
      <point x="337" y="429" type="line"/>
      <point x="297" y="493" type="line"/>
      <point x="197" y="411" type="line"/>
      <point x="197" y="680" type="line"/>
      <point x="101" y="680" type="line"/>
      <point x="101" y="334" type="line"/>
      <point x="15" y="265" type="line"/>
      <point x="55" y="200" type="line"/>
      <point x="101" y="239" type="line"/>
      <point x="101" y="0" type="line"/>
    </contour>
  </outline>
</glyph>
<glyph name="ohungarumlaut" format="1">
  <advance width="559"/>
  <unicode hex="0151"/>
  <outline>
    <contour>
      <point x="47" y="92"/>
      <point x="124" y="-11"/>
      <point x="271" y="-13" type="curve"/>
      <point x="421" y="-12"/>
      <point x="511" y="88"/>
      <point x="511" y="239" type="curve"/>
      <point x="511" y="392"/>
      <point x="433" y="498"/>
      <point x="280" y="498" type="curve"/>
      <point x="132" y="497"/>
      <point x="48" y="394"/>
      <point x="47" y="244" type="curve"/>
    </contour>
    <contour>
      <point x="375" y="416"/>
      <point x="414" y="343"/>
      <point x="414" y="239" type="curve"/>
      <point x="413" y="132"/>
      <point x="364" y="69"/>
      <point x="273" y="69" type="curve"/>
      <point x="180" y="69"/>
      <point x="145" y="137"/>
      <point x="145" y="245" type="curve"/>
      <point x="146" y="350"/>
      <point x="191" y="416"/>
      <point x="283" y="416" type="curve"/>
    </contour>
    <contour>
      <point x="216" y="747" type="line"/>
      <point x="156" y="589" type="line"/>
      <point x="222" y="589" type="line"/>
      <point x="313" y="747" type="line"/>
    </contour>
    <contour>
      <point x="372" y="747" type="line"/>
      <point x="311" y="589" type="line"/>
      <point x="378" y="589" type="line"/>
      <point x="468" y="747" type="line"/>
    </contour>
  </outline>
</glyph>
<glyph name="OE" format="1">
  <advance width="976"/>
  <unicode hex="0152"/>
  <outline>
    <contour>
      <point x="949" y="0" type="line"/>
      <point x="937" y="75" type="line"/>
      <point x="614" y="75" type="line"/>
      <point x="614" y="309" type="line"/>
      <point x="818" y="309" type="line"/>
      <point x="805" y="383" type="line"/>
      <point x="614" y="383" type="line"/>
      <point x="614" y="606" type="line"/>
      <point x="915" y="606" type="line"/>
      <point x="901" y="680" type="line"/>
      <point x="518" y="680" type="line"/>
      <point x="518" y="669" type="line"/>
      <point x="471" y="686"/>
      <point x="414" y="694"/>
      <point x="381" y="694" type="curve"/>
      <point x="183" y="694"/>
      <point x="65" y="541"/>
      <point x="65" y="336" type="curve"/>
      <point x="65" y="145"/>
      <point x="164" y="-14"/>
      <point x="375" y="-14" type="curve"/>
      <point x="419" y="-14"/>
      <point x="475" y="-4"/>
      <point x="518" y="11" type="curve"/>
      <point x="518" y="0" type="line"/>
    </contour>
    <contour>
      <point x="443" y="612"/>
      <point x="469" y="602"/>
      <point x="518" y="585" type="curve"/>
      <point x="518" y="98" type="line"/>
      <point x="478" y="81"/>
      <point x="435" y="68"/>
      <point x="370" y="68" type="curve"/>
      <point x="236" y="68"/>
      <point x="165" y="190"/>
      <point x="165" y="337" type="curve"/>
      <point x="165" y="502"/>
      <point x="253" y="612"/>
      <point x="380" y="612" type="curve"/>
    </contour>
  </outline>
</glyph>
<glyph name="sacute" format="1">
  <advance width="441"/>
  <unicode hex="015B"/>
  <outline>
    <contour>
      <point x="275" y="416"/>
      <point x="314" y="400"/>
      <point x="351" y="383" type="curve"/>
      <point x="381" y="452" type="line"/>
      <point x="339" y="481"/>
      <point x="266" y="498"/>
      <point x="225" y="498" type="curve"/>
      <point x="111" y="498"/>
      <point x="41" y="446"/>
      <point x="41" y="357" type="curve"/>
      <point x="41" y="278"/>
      <point x="123" y="237"/>
      <point x="200" y="211" type="curve"/>
      <point x="263" y="191"/>
      <point x="304" y="164"/>
      <point x="304" y="127" type="curve"/>
      <point x="304" y="89"/>
      <point x="267" y="69"/>
      <point x="203" y="69" type="curve"/>
      <point x="159" y="69"/>
      <point x="114" y="82"/>
      <point x="73" y="102" type="curve"/>
      <point x="43" y="31" type="line"/>
      <point x="85" y="1"/>
      <point x="162" y="-13"/>
      <point x="203" y="-13" type="curve"/>
      <point x="332" y="-13"/>
      <point x="400" y="41"/>
      <point x="400" y="132" type="curve"/>
      <point x="400" y="213"/>
      <point x="317" y="260"/>
      <point x="236" y="289" type="curve"/>
      <point x="177" y="309"/>
      <point x="141" y="329"/>
      <point x="140" y="359" type="curve"/>
      <point x="140" y="394"/>
      <point x="172" y="416"/>
      <point x="223" y="416" type="curve"/>
    </contour>
    <contour>
      <point x="221" y="747" type="line"/>
      <point x="161" y="589" type="line"/>
      <point x="234" y="589" type="line"/>
      <point x="324" y="747" type="line"/>
    </contour>
  </outline>
</glyph>
<glyph name="Scedilla" format="1">
  <advance width="542"/>
  <unicode hex="015E"/>
  <outline>
    <contour>
      <point x="187" y="70"/>
      <point x="119" y="94"/>
      <point x="81" y="113" type="curve"/>
      <point x="73" y="88"/>
      <point x="66" y="62"/>
      <point x="59" y="37" type="curve"/>
      <point x="80" y="18"/>
      <point x="153" y="-2"/>
      <point x="211" y="-9" type="curve"/>
      <point x="203" y="-32"/>
      <point x="193" y="-55"/>
      <point x="185" y="-78" type="curve"/>
      <point x="236" y="-83"/>
      <point x="272" y="-103"/>
      <point x="272" y="-127" type="curve" smooth="yes"/>
      <point x="272" y="-147"/>
      <point x="249" y="-155"/>
      <point x="228" y="-155" type="curve" smooth="yes"/>
      <point x="210" y="-155"/>
      <point x="181" y="-146"/>
      <point x="165" y="-138" type="curve"/>
      <point x="143" y="-197" type="line"/>
      <point x="163" y="-211"/>
      <point x="202" y="-221"/>
      <point x="228" y="-221" type="curve" smooth="yes"/>
      <point x="289" y="-221"/>
      <point x="346" y="-191"/>
      <point x="346" y="-125" type="curve" smooth="yes"/>
      <point x="346" y="-90"/>
      <point x="313" y="-52"/>
      <point x="272" y="-41" type="curve"/>
      <point x="284" y="-11" type="line"/>
      <point x="420" y="-2"/>
      <point x="495" y="71"/>
      <point x="495" y="170" type="curve" smooth="yes"/>
      <point x="495" y="370"/>
      <point x="143" y="384"/>
      <point x="143" y="522" type="curve" smooth="yes"/>
      <point x="143" y="580"/>
      <point x="195" y="613"/>
      <point x="272" y="613" type="curve" smooth="yes"/>
      <point x="337" y="613"/>
      <point x="380" y="593"/>
      <point x="418" y="575" type="curve"/>
      <point x="428" y="601"/>
      <point x="440" y="625"/>
      <point x="450" y="651" type="curve"/>
      <point x="404" y="674"/>
      <point x="338" y="696"/>
      <point x="270" y="696" type="curve" smooth="yes"/>
      <point x="130" y="696"/>
      <point x="47" y="619"/>
      <point x="47" y="520" type="curve" smooth="yes"/>
      <point x="47" y="313"/>
      <point x="398" y="303"/>
      <point x="398" y="168" type="curve" smooth="yes"/>
      <point x="398" y="109"/>
      <point x="347" y="70"/>
      <point x="249" y="70" type="curve" smooth="yes"/>
    </contour>
  </outline>
</glyph>
<glyph name="scedilla" format="1">
  <advance width="441"/>
  <unicode hex="015F"/>
  <outline>
    <contour>
      <point x="275" y="416"/>
      <point x="314" y="400"/>
      <point x="351" y="383" type="curve"/>
      <point x="381" y="452" type="line"/>
      <point x="339" y="481"/>
      <point x="266" y="498"/>
      <point x="225" y="498" type="curve"/>
      <point x="111" y="498"/>
      <point x="41" y="446"/>
      <point x="41" y="357" type="curve"/>
      <point x="41" y="278"/>
      <point x="123" y="237"/>
      <point x="200" y="211" type="curve"/>
      <point x="263" y="191"/>
      <point x="304" y="164"/>
      <point x="304" y="127" type="curve"/>
      <point x="304" y="89"/>
      <point x="267" y="69"/>
      <point x="203" y="69" type="curve"/>
      <point x="159" y="69"/>
      <point x="114" y="82"/>
      <point x="73" y="102" type="curve"/>
      <point x="43" y="31" type="line"/>
      <point x="74" y="9"/>
      <point x="125" y="-4"/>
      <point x="165" y="-9" type="curve"/>
      <point x="138" y="-78" type="line"/>
      <point x="190" y="-84"/>
      <point x="226" y="-103"/>
      <point x="226" y="-127" type="curve"/>
      <point x="226" y="-147"/>
      <point x="203" y="-156"/>
      <point x="182" y="-156" type="curve"/>
      <point x="162" y="-156"/>
      <point x="134" y="-146"/>
      <point x="119" y="-139" type="curve"/>
      <point x="96" y="-198" type="line"/>
      <point x="116" y="-212"/>
      <point x="156" y="-221"/>
      <point x="182" y="-221" type="curve"/>
      <point x="243" y="-221"/>
      <point x="300" y="-191"/>
      <point x="300" y="-125" type="curve"/>
      <point x="300" y="-90"/>
      <point x="267" y="-53"/>
      <point x="225" y="-42" type="curve"/>
      <point x="237" y="-11" type="line"/>
      <point x="344" y="-2"/>
      <point x="400" y="49"/>
      <point x="400" y="132" type="curve"/>
      <point x="400" y="213"/>
      <point x="317" y="260"/>
      <point x="236" y="289" type="curve"/>
      <point x="177" y="309"/>
      <point x="141" y="329"/>
      <point x="140" y="359" type="curve"/>
      <point x="140" y="394"/>
      <point x="172" y="416"/>
      <point x="223" y="416" type="curve"/>
    </contour>
  </outline>
</glyph>
<glyph name="tcedilla" format="1">
  <advance width="340"/>
  <unicode hex="0163"/>
  <outline>
    <contour>
      <point x="294" y="77" type="line"/>
      <point x="281" y="71"/>
      <point x="263" y="66"/>
      <point x="247" y="66" type="curve"/>
      <point x="199" y="66"/>
      <point x="178" y="101"/>
      <point x="178" y="150" type="curve"/>
      <point x="178" y="406" type="line"/>
      <point x="296" y="406" type="line"/>
      <point x="266" y="479" type="line"/>
      <point x="178" y="479" type="line"/>
      <point x="178" y="622" type="line"/>
      <point x="82" y="600" type="line"/>
      <point x="82" y="479" type="line"/>
      <point x="13" y="479" type="line"/>
      <point x="14" y="406" type="line"/>
      <point x="82" y="406" type="line"/>
      <point x="82" y="135" type="line"/>
      <point x="82" y="57"/>
      <point x="118" y="8"/>
      <point x="180" y="-9" type="curve"/>
      <point x="153" y="-78" type="line"/>
      <point x="204" y="-84"/>
      <point x="240" y="-103"/>
      <point x="240" y="-127" type="curve"/>
      <point x="240" y="-147"/>
      <point x="217" y="-156"/>
      <point x="196" y="-156" type="curve"/>
      <point x="176" y="-156"/>
      <point x="148" y="-146"/>
      <point x="134" y="-139" type="curve"/>
      <point x="110" y="-198" type="line"/>
      <point x="131" y="-212"/>
      <point x="170" y="-221"/>
      <point x="196" y="-221" type="curve"/>
      <point x="257" y="-221"/>
      <point x="314" y="-191"/>
      <point x="314" y="-125" type="curve"/>
      <point x="314" y="-90"/>
      <point x="282" y="-53"/>
      <point x="239" y="-42" type="curve"/>
      <point x="249" y="-16" type="line"/>
      <point x="275" y="-14"/>
      <point x="304" y="-5"/>
      <point x="319" y="4" type="curve"/>
    </contour>
  </outline>
</glyph>
<glyph name="Tcaron" format="1">
  <advance width="548"/>
  <unicode hex="0164"/>
  <outline>
    <contour>
      <point x="540" y="604" type="line"/>
      <point x="535" y="629"/>
      <point x="531" y="655"/>
      <point x="527" y="680" type="curve"/>
      <point x="8" y="680" type="line"/>
      <point x="8" y="604" type="line"/>
      <point x="219" y="604" type="line"/>
      <point x="219" y="0" type="line"/>
      <point x="316" y="0" type="line"/>
      <point x="316" y="604" type="line"/>
    </contour>
    <contour>
      <point x="114" y="897" type="line"/>
      <point x="242" y="739" type="line"/>
      <point x="308" y="739" type="line"/>
      <point x="437" y="897" type="line"/>
      <point x="346" y="897" type="line"/>
      <point x="276" y="811" type="line"/>
      <point x="253" y="840"/>
      <point x="229" y="868"/>
      <point x="205" y="897" type="curve"/>
    </contour>
  </outline>
</glyph>
<glyph name="Uring" format="1">
  <advance width="699"/>
  <unicode hex="016E"/>
  <outline>
    <contour>
      <point x="248" y="68"/>
      <point x="182" y="137"/>
      <point x="182" y="252" type="curve" smooth="yes"/>
      <point x="182" y="680" type="line"/>
      <point x="86" y="680" type="line"/>
      <point x="86" y="243" type="line" smooth="yes"/>
      <point x="86" y="96"/>
      <point x="186" y="-11"/>
      <point x="349" y="-11" type="curve" smooth="yes"/>
      <point x="512" y="-11"/>
      <point x="612" y="97"/>
      <point x="612" y="243" type="curve" smooth="yes"/>
      <point x="612" y="680" type="line"/>
      <point x="515" y="680" type="line"/>
      <point x="515" y="252" type="line" smooth="yes"/>
      <point x="515" y="139"/>
      <point x="453" y="68"/>
      <point x="349" y="68" type="curve" smooth="yes"/>
    </contour>
    <contour>
      <point x="390" y="811"/>
      <point x="371" y="792"/>
      <point x="348" y="792" type="curve" smooth="yes"/>
      <point x="325" y="792"/>
      <point x="306" y="811"/>
      <point x="306" y="833" type="curve" smooth="yes"/>
      <point x="306" y="857"/>
      <point x="325" y="875"/>
      <point x="348" y="875" type="curve" smooth="yes"/>
      <point x="371" y="875"/>
      <point x="390" y="857"/>
      <point x="390" y="833" type="curve" smooth="yes"/>
    </contour>
    <contour>
      <point x="446" y="886"/>
      <point x="401" y="926"/>
      <point x="348" y="926" type="curve" smooth="yes"/>
      <point x="295" y="926"/>
      <point x="250" y="886"/>
      <point x="250" y="833" type="curve" smooth="yes"/>
      <point x="250" y="781"/>
      <point x="295" y="744"/>
      <point x="348" y="744" type="curve" smooth="yes"/>
      <point x="401" y="744"/>
      <point x="446" y="781"/>
      <point x="446" y="833" type="curve" smooth="yes"/>
    </contour>
  </outline>
</glyph>
<glyph name="uring" format="1">
  <advance width="553"/>
  <unicode hex="016F"/>
  <outline>
    <contour>
      <point x="289" y="-16"/>
      <point x="354" y="11"/>
      <point x="397" y="51" type="curve"/>
      <point x="425" y="0" type="line"/>
      <point x="480" y="0" type="line"/>
      <point x="480" y="485" type="line"/>
      <point x="384" y="485" type="line"/>
      <point x="384" y="120" type="line"/>
      <point x="344" y="87"/>
      <point x="293" y="66"/>
      <point x="257" y="66" type="curve"/>
      <point x="195" y="66"/>
      <point x="164" y="109"/>
      <point x="164" y="172" type="curve"/>
      <point x="164" y="485" type="line"/>
      <point x="67" y="485" type="line"/>
      <point x="67" y="165" type="line"/>
      <point x="67" y="61"/>
      <point x="118" y="-16"/>
      <point x="237" y="-16" type="curve"/>
    </contour>
    <contour>
      <point x="317" y="661"/>
      <point x="300" y="642"/>
      <point x="276" y="642" type="curve"/>
      <point x="254" y="642"/>
      <point x="235" y="661"/>
      <point x="235" y="683" type="curve"/>
      <point x="235" y="707"/>
      <point x="254" y="725"/>
      <point x="276" y="725" type="curve"/>
      <point x="300" y="725"/>
      <point x="317" y="707"/>
      <point x="317" y="683" type="curve"/>
    </contour>
    <contour>
      <point x="374" y="736"/>
      <point x="328" y="776"/>
      <point x="276" y="776" type="curve"/>
      <point x="223" y="776"/>
      <point x="178" y="736"/>
      <point x="178" y="683" type="curve"/>
      <point x="178" y="631"/>
      <point x="223" y="594"/>
      <point x="276" y="594" type="curve"/>
      <point x="328" y="594"/>
      <point x="374" y="631"/>
      <point x="374" y="683" type="curve"/>
    </contour>
  </outline>
</glyph>
<glyph name="Uhungarumlaut" format="1">
  <advance width="699"/>
  <unicode hex="0170"/>
  <outline>
    <contour>
      <point x="248" y="68"/>
      <point x="182" y="137"/>
      <point x="182" y="252" type="curve" smooth="yes"/>
      <point x="182" y="680" type="line"/>
      <point x="86" y="680" type="line"/>
      <point x="86" y="243" type="line" smooth="yes"/>
      <point x="86" y="96"/>
      <point x="186" y="-11"/>
      <point x="349" y="-11" type="curve" smooth="yes"/>
      <point x="512" y="-11"/>
      <point x="612" y="97"/>
      <point x="612" y="243" type="curve" smooth="yes"/>
      <point x="612" y="680" type="line"/>
      <point x="515" y="680" type="line"/>
      <point x="515" y="252" type="line" smooth="yes"/>
      <point x="515" y="139"/>
      <point x="453" y="68"/>
      <point x="349" y="68" type="curve" smooth="yes"/>
    </contour>
    <contour>
      <point x="281" y="897" type="line"/>
      <point x="221" y="739" type="line"/>
      <point x="286" y="739" type="line"/>
      <point x="377" y="897" type="line"/>
    </contour>
    <contour>
      <point x="436" y="897" type="line"/>
      <point x="376" y="739" type="line"/>
      <point x="443" y="739" type="line"/>
      <point x="533" y="897" type="line"/>
    </contour>
  </outline>
</glyph>
<glyph name="Uogonek" format="1">
  <advance width="699"/>
  <unicode hex="0172"/>
  <outline>
    <contour>
      <point x="248" y="68"/>
      <point x="182" y="137"/>
      <point x="182" y="252" type="curve" smooth="yes"/>
      <point x="182" y="680" type="line"/>
      <point x="86" y="680" type="line"/>
      <point x="86" y="243" type="line" smooth="yes"/>
      <point x="86" y="100"/>
      <point x="180" y="-4"/>
      <point x="333" y="-11" type="curve"/>
      <point x="314" y="-37"/>
      <point x="300" y="-74"/>
      <point x="300" y="-102" type="curve" smooth="yes"/>
      <point x="300" y="-162"/>
      <point x="345" y="-207"/>
      <point x="410" y="-207" type="curve" smooth="yes"/>
      <point x="446" y="-207"/>
      <point x="477" y="-196"/>
      <point x="501" y="-175" type="curve"/>
      <point x="492" y="-155"/>
      <point x="481" y="-136"/>
      <point x="472" y="-116" type="curve"/>
      <point x="456" y="-129"/>
      <point x="439" y="-135"/>
      <point x="424" y="-135" type="curve" smooth="yes"/>
      <point x="400" y="-135"/>
      <point x="382" y="-122"/>
      <point x="382" y="-95" type="curve" smooth="yes"/>
      <point x="382" y="-66"/>
      <point x="409" y="-21"/>
      <point x="435" y="0" type="curve"/>
      <point x="547" y="31"/>
      <point x="612" y="124"/>
      <point x="612" y="243" type="curve" smooth="yes"/>
      <point x="612" y="680" type="line"/>
      <point x="515" y="680" type="line"/>
      <point x="515" y="252" type="line" smooth="yes"/>
      <point x="515" y="139"/>
      <point x="453" y="68"/>
      <point x="349" y="68" type="curve" smooth="yes"/>
    </contour>
  </outline>
</glyph>
<glyph name="zdotaccent" format="1">
  <advance width="460"/>
  <unicode hex="017C"/>
  <outline>
    <contour>
      <point x="425" y="437" type="line"/>
      <point x="420" y="490" type="line"/>
      <point x="49" y="490" type="line"/>
      <point x="70" y="412" type="line"/>
      <point x="295" y="412" type="line"/>
      <point x="29" y="50" type="line"/>
      <point x="41" y="0" type="line"/>
      <point x="427" y="0" type="line"/>
      <point x="417" y="76" type="line"/>
      <point x="156" y="76" type="line"/>
    </contour>
    <contour>
      <point x="314" y="700"/>
      <point x="288" y="727"/>
      <point x="253" y="727" type="curve"/>
      <point x="219" y="727"/>
      <point x="193" y="700"/>
      <point x="193" y="666" type="curve"/>
      <point x="193" y="632"/>
      <point x="219" y="606"/>
      <point x="253" y="606" type="curve"/>
      <point x="288" y="606"/>
      <point x="314" y="632"/>
      <point x="314" y="666" type="curve"/>
    </contour>
  </outline>
</glyph>
<glyph name="uni021A" format="1">
  <advance width="548"/>
  <unicode hex="021A"/>
  <outline>
    <contour>
      <point x="540" y="604" type="line"/>
      <point x="535" y="629"/>
      <point x="531" y="655"/>
      <point x="527" y="680" type="curve"/>
      <point x="8" y="680" type="line"/>
      <point x="8" y="604" type="line"/>
      <point x="219" y="604" type="line"/>
      <point x="219" y="0" type="line"/>
      <point x="316" y="0" type="line"/>
      <point x="316" y="604" type="line"/>
    </contour>
    <contour>
      <point x="330" y="-49"/>
      <point x="303" y="-21"/>
      <point x="269" y="-21" type="curve" smooth="yes"/>
      <point x="235" y="-21"/>
      <point x="207" y="-51"/>
      <point x="207" y="-82" type="curve" smooth="yes"/>
      <point x="207" y="-112"/>
      <point x="232" y="-140"/>
      <point x="258" y="-141" type="curve"/>
      <point x="251" y="-173"/>
      <point x="227" y="-195"/>
      <point x="202" y="-209" type="curve"/>
      <point x="226" y="-254" type="line"/>
      <point x="283" y="-226"/>
      <point x="330" y="-160"/>
      <point x="330" y="-93" type="curve" smooth="yes"/>
    </contour>
  </outline>
</glyph>
<glyph name="caron" format="1">
  <advance width="354"/>
  <unicode hex="02C7"/>
  <outline>
    <contour>
      <point x="16" y="747" type="line"/>
      <point x="144" y="589" type="line"/>
      <point x="210" y="589" type="line"/>
      <point x="339" y="747" type="line"/>
      <point x="248" y="747" type="line"/>
      <point x="178" y="661" type="line"/>
      <point x="107" y="747" type="line"/>
    </contour>
  </outline>
</glyph>
<glyph name="uni02C9" format="1">
  <advance width="282"/>
  <unicode hex="02C9"/>
  <outline>
    <contour>
      <point x="16" y="702" type="line"/>
      <point x="16" y="626" type="line"/>
      <point x="267" y="626" type="line"/>
      <point x="267" y="702" type="line"/>
    </contour>
  </outline>
</glyph>
<glyph name="breve" format="1">
  <advance width="308"/>
  <unicode hex="02D8"/>
  <outline>
    <contour>
      <point x="251" y="597"/>
      <point x="293" y="666"/>
      <point x="293" y="742" type="curve"/>
      <point x="226" y="742" type="line"/>
      <point x="226" y="706"/>
      <point x="202" y="665"/>
      <point x="154" y="665" type="curve"/>
      <point x="104" y="665"/>
      <point x="83" y="706"/>
      <point x="83" y="742" type="curve"/>
      <point x="16" y="742" type="line"/>
      <point x="16" y="666"/>
      <point x="57" y="597"/>
      <point x="154" y="595" type="curve"/>
    </contour>
  </outline>
</glyph>
<glyph name="ring" format="1">
  <advance width="227"/>
  <unicode hex="02DA"/>
  <outline>
    <contour>
      <point x="155" y="661"/>
      <point x="137" y="642"/>
      <point x="114" y="642" type="curve"/>
      <point x="91" y="642"/>
      <point x="72" y="661"/>
      <point x="72" y="683" type="curve"/>
      <point x="72" y="707"/>
      <point x="91" y="725"/>
      <point x="114" y="725" type="curve"/>
      <point x="137" y="725"/>
      <point x="155" y="707"/>
      <point x="155" y="683" type="curve"/>
    </contour>
    <contour>
      <point x="211" y="736"/>
      <point x="166" y="776"/>
      <point x="114" y="776" type="curve"/>
      <point x="61" y="776"/>
      <point x="16" y="736"/>
      <point x="16" y="683" type="curve"/>
      <point x="16" y="631"/>
      <point x="61" y="594"/>
      <point x="114" y="594" type="curve"/>
      <point x="166" y="594"/>
      <point x="211" y="631"/>
      <point x="211" y="683" type="curve"/>
    </contour>
  </outline>
</glyph>
<glyph name="ogonek" format="1">
  <advance width="233"/>
  <unicode hex="02DB"/>
  <outline>
    <contour>
      <point x="63" y="4" type="line"/>
      <point x="37" y="-20"/>
      <point x="16" y="-68"/>
      <point x="16" y="-103" type="curve"/>
      <point x="16" y="-163"/>
      <point x="61" y="-207"/>
      <point x="126" y="-207" type="curve"/>
      <point x="162" y="-207"/>
      <point x="192" y="-197"/>
      <point x="217" y="-176" type="curve"/>
      <point x="187" y="-117" type="line"/>
      <point x="172" y="-129"/>
      <point x="154" y="-136"/>
      <point x="139" y="-136" type="curve"/>
      <point x="115" y="-136"/>
      <point x="98" y="-123"/>
      <point x="98" y="-95" type="curve"/>
      <point x="98" y="-65"/>
      <point x="129" y="-17"/>
      <point x="156" y="4" type="curve"/>
    </contour>
  </outline>
</glyph>
<glyph name="hungarumlaut" format="1">
  <advance width="343"/>
  <unicode hex="02DD"/>
  <outline>
    <contour>
      <point x="76" y="747" type="line"/>
      <point x="16" y="589" type="line"/>
      <point x="81" y="589" type="line"/>
      <point x="172" y="747" type="line"/>
    </contour>
    <contour>
      <point x="231" y="747" type="line"/>
      <point x="171" y="589" type="line"/>
      <point x="238" y="589" type="line"/>
      <point x="328" y="747" type="line"/>
    </contour>
  </outline>
</glyph>
<glyph name="dv_U" format="1">
  <advance width="578"/>
  <unicode hex="0909"/>
  <outline>
    <contour>
      <point x="421" y="-15"/>
      <point x="511" y="71"/>
      <point x="511" y="187" type="curve" smooth="yes"/>
      <point x="511" y="254"/>
      <point x="473" y="328"/>
      <point x="384" y="350" type="curve"/>
      <point x="462" y="374"/>
      <point x="498" y="450"/>
      <point x="498" y="510" type="curve" smooth="yes"/>
      <point x="498" y="541"/>
      <point x="487" y="573"/>
      <point x="470" y="597" type="curve"/>
      <point x="589" y="597" type="line"/>
      <point x="584" y="625"/>
      <point x="579" y="652"/>
      <point x="573" y="680" type="curve"/>
      <point x="-11" y="680" type="line"/>
      <point x="-5" y="652"/>
      <point x="-1" y="625"/>
      <point x="4" y="597" type="curve"/>
      <point x="335" y="597" type="line"/>
      <point x="371" y="580"/>
      <point x="390" y="546"/>
      <point x="390" y="508" type="curve" smooth="yes"/>
      <point x="390" y="441"/>
      <point x="341" y="388"/>
      <point x="237" y="388" type="curve" smooth="yes"/>
      <point x="133" y="388" type="line"/>
      <point x="151" y="313" type="line"/>
      <point x="230" y="313" type="line" smooth="yes"/>
      <point x="361" y="313"/>
      <point x="404" y="263"/>
      <point x="404" y="185" type="curve" smooth="yes"/>
      <point x="404" y="108"/>
      <point x="341" y="70"/>
      <point x="265" y="70" type="curve" smooth="yes"/>
      <point x="197" y="70"/>
      <point x="137" y="90"/>
      <point x="80" y="127" type="curve"/>
      <point x="61" y="41" type="line"/>
      <point x="112" y="10"/>
      <point x="187" y="-15"/>
      <point x="268" y="-15" type="curve" smooth="yes"/>
    </contour>
  </outline>
</glyph>
<glyph name="dv_VocalicL" format="1">
  <advance width="864"/>
  <unicode hex="090C"/>
  <outline>
    <contour>
      <point x="645" y="-68"/>
      <point x="616" y="-39"/>
      <point x="616" y="0" type="curve"/>
      <point x="616" y="39"/>
      <point x="645" y="67"/>
      <point x="691" y="67" type="curve"/>
      <point x="753" y="67" type="line"/>
      <point x="753" y="597" type="line"/>
      <point x="875" y="597" type="line"/>
      <point x="859" y="680" type="line"/>
      <point x="-11" y="680" type="line"/>
      <point x="4" y="597" type="line"/>
      <point x="649" y="597" type="line"/>
      <point x="649" y="464" type="line"/>
      <point x="624" y="481"/>
      <point x="591" y="491"/>
      <point x="557" y="491" type="curve"/>
      <point x="499" y="491"/>
      <point x="446" y="468"/>
      <point x="414" y="425" type="curve"/>
      <point x="380" y="467"/>
      <point x="325" y="490"/>
      <point x="264" y="491" type="curve"/>
      <point x="158" y="490"/>
      <point x="69" y="408"/>
      <point x="69" y="316" type="curve"/>
      <point x="69" y="207"/>
      <point x="119" y="117"/>
      <point x="191" y="-21" type="curve"/>
      <point x="275" y="7" type="line"/>
      <point x="200" y="158"/>
      <point x="166" y="224"/>
      <point x="166" y="308" type="curve"/>
      <point x="166" y="357"/>
      <point x="207" y="402"/>
      <point x="264" y="402" type="curve"/>
      <point x="337" y="401"/>
      <point x="367" y="351"/>
      <point x="367" y="275" type="curve"/>
      <point x="367" y="160" type="line"/>
      <point x="464" y="144" type="line"/>
      <point x="464" y="275" type="line" smooth="yes"/>
      <point x="464" y="351"/>
      <point x="498" y="404"/>
      <point x="556" y="404" type="curve"/>
      <point x="612" y="404"/>
      <point x="644" y="360"/>
      <point x="649" y="294" type="curve"/>
      <point x="649" y="144" type="line"/>
      <point x="584" y="131"/>
      <point x="525" y="80"/>
      <point x="525" y="0" type="curve"/>
      <point x="525" y="-94"/>
      <point x="602" y="-149"/>
      <point x="681" y="-149" type="curve"/>
      <point x="710" y="-149"/>
      <point x="742" y="-146"/>
      <point x="774" y="-136" type="curve"/>
      <point x="758" y="-55" type="line"/>
      <point x="729" y="-65"/>
      <point x="709" y="-68"/>
      <point x="691" y="-68" type="curve"/>
    </contour>
  </outline>
</glyph>
<glyph name="dv_CandraE" format="1">
  <advance width="706"/>
  <unicode hex="090D"/>
  <outline>
    <contour>
      <point x="511" y="944" type="line"/>
      <point x="472" y="871"/>
      <point x="416" y="842"/>
      <point x="361" y="842" type="curve"/>
      <point x="305" y="842"/>
      <point x="245" y="874"/>
      <point x="210" y="944" type="curve"/>
      <point x="139" y="900" type="line"/>
      <point x="190" y="800"/>
      <point x="269" y="763"/>
      <point x="361" y="763" type="curve"/>
      <point x="451" y="763"/>
      <point x="531" y="800"/>
      <point x="582" y="900" type="curve"/>
    </contour>
    <contour>
      <point x="494" y="272" type="line"/>
      <point x="494" y="198"/>
      <point x="463" y="174"/>
      <point x="387" y="147" type="curve"/>
      <point x="430" y="69" type="line"/>
      <point x="548" y="106"/>
      <point x="599" y="156"/>
      <point x="599" y="250" type="curve"/>
      <point x="599" y="597" type="line"/>
      <point x="717" y="597" type="line"/>
      <point x="702" y="680" type="line"/>
      <point x="-11" y="680" type="line"/>
      <point x="4" y="597" type="line"/>
      <point x="113" y="597" type="line"/>
      <point x="113" y="145" type="line" smooth="yes"/>
      <point x="113" y="56"/>
      <point x="148" y="6"/>
      <point x="213" y="-32" type="curve"/>
      <point x="468" y="-183" type="line"/>
      <point x="521" y="-105" type="line"/>
      <point x="264" y="56" type="line" smooth="yes"/>
      <point x="227" y="79"/>
      <point x="218" y="117"/>
      <point x="218" y="154" type="curve"/>
      <point x="218" y="597" type="line"/>
      <point x="494" y="597" type="line"/>
    </contour>
  </outline>
</glyph>
<glyph name="dv_Ka" format="1">
  <advance width="906"/>
  <unicode hex="0915"/>
  <outline>
    <contour>
      <point x="208" y="167"/>
      <point x="152" y="218"/>
      <point x="152" y="291" type="curve"/>
      <point x="152" y="365"/>
      <point x="211" y="416"/>
      <point x="276" y="416" type="curve"/>
      <point x="343" y="416"/>
      <point x="381" y="376"/>
      <point x="404" y="342" type="curve"/>
      <point x="404" y="240" type="line"/>
      <point x="381" y="207"/>
      <point x="343" y="167"/>
      <point x="276" y="167" type="curve"/>
    </contour>
    <contour>
      <point x="47" y="166"/>
      <point x="143" y="80"/>
      <point x="274" y="80" type="curve"/>
      <point x="325" y="80"/>
      <point x="378" y="105"/>
      <point x="404" y="131" type="curve"/>
      <point x="404" y="0" type="line"/>
      <point x="508" y="-16" type="line"/>
      <point x="508" y="338" type="line"/>
      <point x="530" y="370"/>
      <point x="566" y="417"/>
      <point x="641" y="417" type="curve"/>
      <point x="706" y="417"/>
      <point x="761" y="366"/>
      <point x="762" y="292" type="curve"/>
      <point x="762" y="218"/>
      <point x="703" y="167"/>
      <point x="622" y="167" type="curve"/>
      <point x="640" y="80" type="line"/>
      <point x="757" y="80"/>
      <point x="866" y="160"/>
      <point x="866" y="291" type="curve"/>
      <point x="866" y="412"/>
      <point x="776" y="504"/>
      <point x="639" y="504" type="curve"/>
      <point x="585" y="504"/>
      <point x="534" y="477"/>
      <point x="508" y="451" type="curve"/>
      <point x="508" y="597" type="line"/>
      <point x="918" y="597" type="line"/>
      <point x="903" y="680" type="line"/>
      <point x="-11" y="680" type="line"/>
      <point x="4" y="597" type="line"/>
      <point x="404" y="597" type="line"/>
      <point x="404" y="453" type="line"/>
      <point x="378" y="479"/>
      <point x="325" y="503"/>
      <point x="274" y="503" type="curve"/>
      <point x="137" y="503"/>
      <point x="47" y="411"/>
      <point x="47" y="291" type="curve"/>
    </contour>
  </outline>
</glyph>
<glyph name="dv_Gha" format="1">
  <advance width="707"/>
  <unicode hex="0918"/>
  <outline>
    <contour>
      <point x="492" y="0" type="line"/>
      <point x="597" y="-16" type="line"/>
      <point x="597" y="597" type="line"/>
      <point x="719" y="597" type="line"/>
      <point x="703" y="680" type="line"/>
      <point x="-11" y="680" type="line"/>
      <point x="4" y="597" type="line"/>
      <point x="102" y="597" type="line"/>
      <point x="89" y="578"/>
      <point x="80" y="553"/>
      <point x="80" y="532" type="curve"/>
      <point x="80" y="478"/>
      <point x="106" y="427"/>
      <point x="147" y="404" type="curve"/>
      <point x="97" y="381"/>
      <point x="69" y="324"/>
      <point x="69" y="261" type="curve"/>
      <point x="69" y="156"/>
      <point x="152" y="78"/>
      <point x="285" y="78" type="curve"/>
      <point x="380" y="78"/>
      <point x="449" y="121"/>
      <point x="492" y="173" type="curve"/>
    </contour>
    <contour>
      <point x="223" y="169"/>
      <point x="175" y="207"/>
      <point x="175" y="260" type="curve"/>
      <point x="175" y="315"/>
      <point x="210" y="362"/>
      <point x="302" y="362" type="curve"/>
      <point x="358" y="362" type="line"/>
      <point x="338" y="440" type="line"/>
      <point x="296" y="440" type="line" smooth="yes"/>
      <point x="220" y="440"/>
      <point x="182" y="478"/>
      <point x="182" y="530" type="curve"/>
      <point x="182" y="559"/>
      <point x="196" y="586"/>
      <point x="224" y="597" type="curve"/>
      <point x="492" y="597" type="line"/>
      <point x="492" y="403" type="line"/>
      <point x="484" y="244"/>
      <point x="398" y="169"/>
      <point x="287" y="169" type="curve"/>
    </contour>
  </outline>
</glyph>
<glyph name="dv_Ca" format="1">
  <advance width="714"/>
  <unicode hex="091A"/>
  <outline>
    <contour>
      <point x="499" y="0" type="line"/>
      <point x="603" y="-16" type="line"/>
      <point x="603" y="597" type="line"/>
      <point x="725" y="597" type="line"/>
      <point x="710" y="680" type="line"/>
      <point x="-11" y="680" type="line"/>
      <point x="4" y="597" type="line"/>
      <point x="499" y="597" type="line"/>
      <point x="499" y="266" type="line"/>
      <point x="489" y="209"/>
      <point x="431" y="172"/>
      <point x="365" y="172" type="curve"/>
      <point x="290" y="172"/>
      <point x="235" y="214"/>
      <point x="235" y="281" type="curve"/>
      <point x="235" y="347"/>
      <point x="280" y="388"/>
      <point x="375" y="390" type="curve"/>
      <point x="418" y="390" type="line"/>
      <point x="401" y="474" type="line"/>
      <point x="37" y="474" type="line"/>
      <point x="52" y="390" type="line"/>
      <point x="176" y="390" type="line"/>
      <point x="152" y="361"/>
      <point x="137" y="326"/>
      <point x="137" y="281" type="curve"/>
      <point x="137" y="153"/>
      <point x="239" y="86"/>
      <point x="365" y="86" type="curve"/>
      <point x="414" y="86"/>
      <point x="465" y="98"/>
      <point x="499" y="120" type="curve"/>
    </contour>
  </outline>
</glyph>
<glyph name="dv_Jha" format="1">
  <advance width="869"/>
  <unicode hex="091D"/>
  <outline>
    <contour>
      <point x="253" y="69"/>
      <point x="230" y="71"/>
      <point x="208" y="76" type="curve"/>
      <point x="193" y="119"/>
      <point x="151" y="155"/>
      <point x="102" y="155" type="curve" smooth="yes"/>
      <point x="71" y="155"/>
      <point x="48" y="135"/>
      <point x="48" y="105" type="curve" smooth="yes"/>
      <point x="48" y="53"/>
      <point x="97" y="14"/>
      <point x="137" y="-4" type="curve"/>
      <point x="263" y="-170" type="line"/>
      <point x="286" y="-153"/>
      <point x="309" y="-137"/>
      <point x="332" y="-121" type="curve"/>
      <point x="247" y="-14" type="line"/>
      <point x="256" y="-15"/>
      <point x="266" y="-15"/>
      <point x="275" y="-15" type="curve" smooth="yes"/>
      <point x="420" y="-15"/>
      <point x="503" y="60"/>
      <point x="503" y="152" type="curve" smooth="yes"/>
      <point x="503" y="164"/>
      <point x="501" y="176"/>
      <point x="498" y="186" type="curve"/>
      <point x="654" y="186" type="line"/>
      <point x="654" y="0" type="line"/>
      <point x="759" y="-16" type="line"/>
      <point x="759" y="597" type="line"/>
      <point x="881" y="597" type="line"/>
      <point x="875" y="625"/>
      <point x="871" y="652"/>
      <point x="865" y="680" type="curve"/>
      <point x="-11" y="680" type="line"/>
      <point x="-5" y="652"/>
      <point x="-1" y="625"/>
      <point x="4" y="597" type="curve"/>
      <point x="342" y="597" type="line"/>
      <point x="342" y="519" type="line"/>
      <point x="214" y="519" type="line" smooth="yes"/>
      <point x="122" y="519"/>
      <point x="51" y="467"/>
      <point x="51" y="376" type="curve" smooth="yes"/>
      <point x="51" y="291"/>
      <point x="133" y="233"/>
      <point x="215" y="233" type="curve" smooth="yes"/>
      <point x="309" y="233" type="line" smooth="yes"/>
      <point x="365" y="233"/>
      <point x="397" y="199"/>
      <point x="397" y="153" type="curve" smooth="yes"/>
      <point x="397" y="112"/>
      <point x="369" y="68"/>
      <point x="277" y="68" type="curve"/>
    </contour>
    <contour>
      <point x="654" y="597" type="line"/>
      <point x="654" y="265" type="line"/>
      <point x="590" y="265"/>
      <point x="527" y="264"/>
      <point x="463" y="264" type="curve"/>
      <point x="428" y="300"/>
      <point x="371" y="319"/>
      <point x="300" y="319" type="curve" smooth="yes"/>
      <point x="218" y="319" type="line" smooth="yes"/>
      <point x="178" y="319"/>
      <point x="151" y="344"/>
      <point x="151" y="376" type="curve" smooth="yes"/>
      <point x="151" y="407"/>
      <point x="176" y="432"/>
      <point x="216" y="432" type="curve" smooth="yes"/>
      <point x="446" y="432" type="line"/>
      <point x="446" y="597" type="line"/>
    </contour>
  </outline>
</glyph>
<glyph name="dv_Nya" format="1">
  <advance width="775"/>
  <unicode hex="091E"/>
  <outline>
    <contour>
      <point x="144" y="165"/>
      <point x="80" y="193"/>
      <point x="33" y="234" type="curve"/>
      <point x="14" y="142" type="line"/>
      <point x="62" y="109"/>
      <point x="134" y="78"/>
      <point x="216" y="78" type="curve"/>
      <point x="328" y="78"/>
      <point x="416" y="135"/>
      <point x="434" y="249" type="curve"/>
      <point x="559" y="249" type="line"/>
      <point x="559" y="0" type="line"/>
      <point x="663" y="-16" type="line"/>
      <point x="663" y="597" type="line"/>
      <point x="786" y="597" type="line"/>
      <point x="770" y="680" type="line"/>
      <point x="-11" y="680" type="line"/>
      <point x="4" y="597" type="line"/>
      <point x="559" y="597" type="line"/>
      <point x="559" y="332" type="line"/>
      <point x="435" y="332" type="line"/>
      <point x="417" y="451"/>
      <point x="329" y="510"/>
      <point x="216" y="510" type="curve"/>
      <point x="174" y="510"/>
      <point x="130" y="504"/>
      <point x="86" y="489" type="curve"/>
      <point x="108" y="407" type="line"/>
      <point x="144" y="417"/>
      <point x="182" y="423"/>
      <point x="214" y="423" type="curve"/>
      <point x="288" y="423"/>
      <point x="340" y="374"/>
      <point x="340" y="295" type="curve"/>
      <point x="340" y="213"/>
      <point x="288" y="165"/>
      <point x="213" y="165" type="curve"/>
    </contour>
  </outline>
</glyph>
<glyph name="dv_Tta" format="1">
  <advance width="637"/>
  <unicode hex="091F"/>
  <outline>
    <contour>
      <point x="257" y="71"/>
      <point x="157" y="107"/>
      <point x="157" y="234" type="curve" smooth="yes"/>
      <point x="157" y="340"/>
      <point x="251" y="399"/>
      <point x="375" y="399" type="curve" smooth="yes"/>
      <point x="509" y="399" type="line"/>
      <point x="509" y="597" type="line"/>
      <point x="648" y="597" type="line"/>
      <point x="633" y="680" type="line"/>
      <point x="-11" y="680" type="line"/>
      <point x="-5" y="652"/>
      <point x="-1" y="625"/>
      <point x="4" y="597" type="curve"/>
      <point x="404" y="597" type="line"/>
      <point x="404" y="487" type="line"/>
      <point x="375" y="487" type="line" smooth="yes"/>
      <point x="201" y="487"/>
      <point x="57" y="402"/>
      <point x="57" y="234" type="curve" smooth="yes"/>
      <point x="57" y="46"/>
      <point x="207" y="-18"/>
      <point x="363" y="-18" type="curve" smooth="yes"/>
      <point x="443" y="-18"/>
      <point x="524" y="1"/>
      <point x="579" y="40" type="curve"/>
      <point x="566" y="135" type="line"/>
      <point x="497" y="85"/>
      <point x="430" y="71"/>
      <point x="363" y="71" type="curve" smooth="yes"/>
    </contour>
  </outline>
</glyph>
<glyph name="dv_Da" format="1">
  <advance width="611"/>
  <unicode hex="0926"/>
  <outline>
    <contour>
      <point x="565" y="-6" type="line"/>
      <point x="543" y="31"/>
      <point x="518" y="72"/>
      <point x="496" y="110" type="curve"/>
      <point x="518" y="131"/>
      <point x="530" y="156"/>
      <point x="530" y="177" type="curve" smooth="yes"/>
      <point x="530" y="224"/>
      <point x="458" y="240"/>
      <point x="439" y="240" type="curve" smooth="yes"/>
      <point x="410" y="240"/>
      <point x="375" y="226"/>
      <point x="375" y="192" type="curve" smooth="yes"/>
      <point x="375" y="182"/>
      <point x="377" y="172"/>
      <point x="378" y="164" type="curve"/>
      <point x="363" y="163"/>
      <point x="349" y="162"/>
      <point x="336" y="162" type="curve" smooth="yes"/>
      <point x="231" y="162"/>
      <point x="152" y="211"/>
      <point x="152" y="304" type="curve" smooth="yes"/>
      <point x="152" y="402"/>
      <point x="246" y="444"/>
      <point x="371" y="444" type="curve" smooth="yes"/>
      <point x="476" y="444" type="line"/>
      <point x="476" y="597" type="line"/>
      <point x="621" y="597" type="line"/>
      <point x="606" y="680" type="line"/>
      <point x="-11" y="680" type="line"/>
      <point x="-5" y="652"/>
      <point x="-1" y="625"/>
      <point x="4" y="597" type="curve"/>
      <point x="371" y="597" type="line"/>
      <point x="371" y="529" type="line"/>
      <point x="347" y="529" type="line" smooth="yes"/>
      <point x="179" y="529"/>
      <point x="52" y="456"/>
      <point x="52" y="304" type="curve" smooth="yes"/>
      <point x="52" y="146"/>
      <point x="179" y="72"/>
      <point x="336" y="72" type="curve" smooth="yes"/>
      <point x="359" y="72"/>
      <point x="390" y="74"/>
      <point x="416" y="81" type="curve"/>
      <point x="439" y="40"/>
      <point x="460" y="-2"/>
      <point x="483" y="-43" type="curve"/>
    </contour>
  </outline>
</glyph>
<glyph name="dv_Pa" format="1">
  <advance width="665"/>
  <unicode hex="092A"/>
  <outline>
    <contour>
      <point x="449" y="0" type="line"/>
      <point x="554" y="-16" type="line"/>
      <point x="554" y="597" type="line"/>
      <point x="676" y="597" type="line"/>
      <point x="660" y="680" type="line"/>
      <point x="-11" y="680" type="line"/>
      <point x="4" y="597" type="line"/>
      <point x="89" y="597" type="line"/>
      <point x="89" y="380" type="line" smooth="yes"/>
      <point x="89" y="244"/>
      <point x="184" y="164"/>
      <point x="314" y="164" type="curve"/>
      <point x="364" y="164"/>
      <point x="417" y="181"/>
      <point x="449" y="205" type="curve"/>
    </contour>
    <contour>
      <point x="236" y="252"/>
      <point x="193" y="301"/>
      <point x="193" y="380" type="curve"/>
      <point x="193" y="597" type="line"/>
      <point x="449" y="597" type="line"/>
      <point x="449" y="371" type="line"/>
      <point x="444" y="297"/>
      <point x="394" y="252"/>
      <point x="319" y="252" type="curve"/>
    </contour>
  </outline>
</glyph>
<glyph name="dv_Ba" format="1">
  <advance width="624"/>
  <unicode hex="092C"/>
  <outline>
    <contour>
      <point x="406" y="0" type="line"/>
      <point x="511" y="-16" type="line"/>
      <point x="511" y="597" type="line"/>
      <point x="633" y="597" type="line"/>
      <point x="617" y="680" type="line"/>
      <point x="-11" y="680" type="line"/>
      <point x="-5" y="652"/>
      <point x="-1" y="625"/>
      <point x="4" y="597" type="curve"/>
      <point x="406" y="597" type="line"/>
      <point x="406" y="458" type="line"/>
      <point x="376" y="483"/>
      <point x="328" y="505"/>
      <point x="277" y="505" type="curve" smooth="yes"/>
      <point x="140" y="505"/>
      <point x="47" y="412"/>
      <point x="47" y="291" type="curve" smooth="yes"/>
      <point x="47" y="166"/>
      <point x="146" y="79"/>
      <point x="277" y="79" type="curve" smooth="yes"/>
      <point x="328" y="79"/>
      <point x="376" y="101"/>
      <point x="406" y="126" type="curve"/>
    </contour>
    <contour>
      <point x="347" y="419"/>
      <point x="383" y="375"/>
      <point x="406" y="342" type="curve"/>
      <point x="406" y="242" type="line"/>
      <point x="401" y="233"/>
      <point x="394" y="224"/>
      <point x="386" y="216" type="curve"/>
      <point x="221" y="404" type="line"/>
      <point x="237" y="414"/>
      <point x="255" y="419"/>
      <point x="274" y="419" type="curve" smooth="yes"/>
    </contour>
    <contour>
      <point x="152" y="323"/>
      <point x="161" y="348"/>
      <point x="177" y="369" type="curve"/>
      <point x="232" y="306"/>
      <point x="287" y="243"/>
      <point x="343" y="180" type="curve"/>
      <point x="325" y="171"/>
      <point x="302" y="165"/>
      <point x="274" y="165" type="curve" smooth="yes"/>
      <point x="206" y="165"/>
      <point x="152" y="218"/>
      <point x="152" y="292" type="curve" smooth="yes"/>
    </contour>
  </outline>
</glyph>
<glyph name="dv_Bha" format="1">
  <advance width="751"/>
  <unicode hex="092D"/>
  <outline>
    <contour>
      <point x="535" y="0" type="line"/>
      <point x="640" y="-16" type="line"/>
      <point x="640" y="597" type="line"/>
      <point x="762" y="597" type="line"/>
      <point x="746" y="680" type="line"/>
      <point x="407" y="680" type="line"/>
      <point x="423" y="597" type="line"/>
      <point x="535" y="597" type="line"/>
      <point x="535" y="322" type="line"/>
      <point x="311" y="322" type="line"/>
      <point x="311" y="527" type="line" smooth="yes"/>
      <point x="311" y="630"/>
      <point x="257" y="696"/>
      <point x="167" y="696" type="curve" smooth="yes"/>
      <point x="99" y="696"/>
      <point x="39" y="650"/>
      <point x="39" y="581" type="curve" smooth="yes"/>
      <point x="39" y="512"/>
      <point x="90" y="460"/>
      <point x="164" y="460" type="curve" smooth="yes"/>
      <point x="176" y="460"/>
      <point x="194" y="462"/>
      <point x="209" y="470" type="curve"/>
      <point x="209" y="322" type="line"/>
      <point x="165" y="322"/>
      <point x="139" y="297"/>
      <point x="139" y="276" type="curve" smooth="yes"/>
      <point x="139" y="216"/>
      <point x="202" y="160"/>
      <point x="268" y="160" type="curve" smooth="yes"/>
      <point x="285" y="160"/>
      <point x="311" y="185"/>
      <point x="311" y="241" type="curve"/>
      <point x="535" y="241" type="line"/>
    </contour>
    <contour>
      <point x="146" y="534"/>
      <point x="125" y="549"/>
      <point x="125" y="574" type="curve" smooth="yes"/>
      <point x="125" y="599"/>
      <point x="143" y="616"/>
      <point x="166" y="616" type="curve" smooth="yes"/>
      <point x="194" y="616"/>
      <point x="211" y="590"/>
      <point x="212" y="553" type="curve"/>
      <point x="201" y="542"/>
      <point x="183" y="534"/>
      <point x="168" y="534" type="curve" smooth="yes"/>
    </contour>
  </outline>
</glyph>
<glyph name="dv_Ya" format="1">
  <advance width="643"/>
  <unicode hex="092F"/>
  <outline>
    <contour>
      <point x="147" y="441"/>
      <point x="113" y="393"/>
      <point x="77" y="382" type="curve"/>
      <point x="58" y="361" type="line"/>
      <point x="58" y="258"/>
      <point x="169" y="164"/>
      <point x="290" y="164" type="curve" smooth="yes"/>
      <point x="353" y="164"/>
      <point x="395" y="181"/>
      <point x="427" y="204" type="curve"/>
      <point x="427" y="0" type="line"/>
      <point x="532" y="-16" type="line"/>
      <point x="532" y="597" type="line"/>
      <point x="654" y="597" type="line"/>
      <point x="639" y="680" type="line"/>
      <point x="-11" y="680" type="line"/>
      <point x="-5" y="652"/>
      <point x="-1" y="625"/>
      <point x="4" y="597" type="curve"/>
      <point x="83" y="597" type="line"/>
      <point x="121" y="584"/>
      <point x="147" y="549"/>
      <point x="147" y="504" type="curve" smooth="yes"/>
    </contour>
    <contour>
      <point x="427" y="597" type="line"/>
      <point x="427" y="372" type="line"/>
      <point x="423" y="297"/>
      <point x="368" y="252"/>
      <point x="293" y="252" type="curve"/>
      <point x="221" y="254"/>
      <point x="173" y="297"/>
      <point x="158" y="339" type="curve"/>
      <point x="216" y="374"/>
      <point x="242" y="436"/>
      <point x="242" y="498" type="curve" smooth="yes"/>
      <point x="242" y="540"/>
      <point x="229" y="576"/>
      <point x="211" y="597" type="curve"/>
    </contour>
  </outline>
</glyph>
<glyph name="dv_Rra" format="1">
  <advance width="450"/>
  <unicode hex="0931"/>
  <outline>
    <contour>
      <point x="24" y="-19"/>
      <point x="53" y="-48"/>
      <point x="89" y="-48" type="curve" smooth="yes"/>
      <point x="125" y="-48"/>
      <point x="154" y="-19"/>
      <point x="154" y="16" type="curve" smooth="yes"/>
      <point x="154" y="52"/>
      <point x="125" y="81"/>
      <point x="89" y="81" type="curve" smooth="yes"/>
      <point x="53" y="81"/>
      <point x="24" y="52"/>
      <point x="24" y="16" type="curve" smooth="yes"/>
    </contour>
    <contour>
      <point x="127" y="249" type="line"/>
      <point x="179" y="159"/>
      <point x="229" y="70"/>
      <point x="281" y="-19" type="curve"/>
      <point x="381" y="6" type="line"/>
      <point x="222" y="259" type="line"/>
      <point x="316" y="287"/>
      <point x="377" y="369"/>
      <point x="377" y="465" type="curve" smooth="yes"/>
      <point x="377" y="509"/>
      <point x="365" y="560"/>
      <point x="340" y="597" type="curve"/>
      <point x="462" y="597" type="line"/>
      <point x="446" y="680" type="line"/>
      <point x="-11" y="680" type="line"/>
      <point x="-5" y="652"/>
      <point x="-1" y="625"/>
      <point x="4" y="597" type="curve"/>
      <point x="220" y="597" type="line"/>
      <point x="254" y="572"/>
      <point x="277" y="519"/>
      <point x="277" y="466" type="curve" smooth="yes"/>
      <point x="277" y="408"/>
      <point x="245" y="362"/>
      <point x="196" y="344" type="curve"/>
      <point x="187" y="369"/>
      <point x="168" y="406"/>
      <point x="148" y="406" type="curve" smooth="yes"/>
      <point x="96" y="406"/>
      <point x="45" y="340"/>
      <point x="45" y="289" type="curve" smooth="yes"/>
      <point x="45" y="266"/>
      <point x="64" y="249"/>
      <point x="89" y="249" type="curve" smooth="yes"/>
    </contour>
  </outline>
</glyph>
<glyph name="dv_Llla" format="1">
  <advance width="907"/>
  <unicode hex="0934"/>
  <outline>
    <contour>
      <point x="421" y="463"/>
      <point x="354" y="503"/>
      <point x="275" y="503" type="curve"/>
      <point x="142" y="503"/>
      <point x="49" y="399"/>
      <point x="49" y="268" type="curve"/>
      <point x="49" y="134"/>
      <point x="142" y="44"/>
      <point x="277" y="44" type="curve"/>
      <point x="357" y="44"/>
      <point x="413" y="91"/>
      <point x="452" y="150" type="curve"/>
      <point x="499" y="83"/>
      <point x="567" y="46"/>
      <point x="643" y="46" type="curve"/>
      <point x="770" y="46"/>
      <point x="869" y="149"/>
      <point x="869" y="280" type="curve"/>
      <point x="869" y="394"/>
      <point x="799" y="478"/>
      <point x="696" y="498" type="curve"/>
      <point x="696" y="597" type="line"/>
      <point x="918" y="597" type="line"/>
      <point x="903" y="680" type="line"/>
      <point x="-11" y="680" type="line"/>
      <point x="4" y="597" type="line"/>
      <point x="592" y="597" type="line"/>
      <point x="592" y="496" type="line"/>
      <point x="537" y="483"/>
      <point x="498" y="445"/>
      <point x="470" y="401" type="curve"/>
    </contour>
    <contour>
      <point x="195" y="131"/>
      <point x="143" y="193"/>
      <point x="143" y="265" type="curve"/>
      <point x="143" y="346"/>
      <point x="195" y="415"/>
      <point x="277" y="415" type="curve"/>
      <point x="343" y="414"/>
      <point x="397" y="374"/>
      <point x="430" y="316" type="curve"/>
      <point x="427" y="309"/>
      <point x="422" y="293"/>
      <point x="421" y="286" type="curve"/>
      <point x="400" y="214"/>
      <point x="354" y="131"/>
      <point x="277" y="131" type="curve"/>
    </contour>
    <contour>
      <point x="725" y="418"/>
      <point x="775" y="356"/>
      <point x="775" y="283" type="curve"/>
      <point x="775" y="201"/>
      <point x="721" y="131"/>
      <point x="642" y="131" type="curve"/>
      <point x="585" y="131"/>
      <point x="525" y="173"/>
      <point x="493" y="233" type="curve"/>
      <point x="503" y="261" type="line"/>
      <point x="526" y="335"/>
      <point x="565" y="418"/>
      <point x="642" y="418" type="curve"/>
    </contour>
    <contour>
      <point x="387" y="-93"/>
      <point x="416" y="-122"/>
      <point x="452" y="-122" type="curve"/>
      <point x="489" y="-122"/>
      <point x="517" y="-93"/>
      <point x="517" y="-57" type="curve"/>
      <point x="517" y="-22"/>
      <point x="489" y="8"/>
      <point x="452" y="8" type="curve"/>
      <point x="416" y="8"/>
      <point x="387" y="-22"/>
      <point x="387" y="-57" type="curve"/>
    </contour>
  </outline>
</glyph>
<glyph name="dv_Va" format="1">
  <advance width="618"/>
  <unicode hex="0935"/>
  <outline>
    <contour>
      <point x="47" y="166"/>
      <point x="143" y="80"/>
      <point x="274" y="80" type="curve"/>
      <point x="325" y="80"/>
      <point x="378" y="105"/>
      <point x="404" y="131" type="curve"/>
      <point x="404" y="0" type="line"/>
      <point x="508" y="-16" type="line"/>
      <point x="508" y="597" type="line"/>
      <point x="630" y="597" type="line"/>
      <point x="614" y="680" type="line"/>
      <point x="-11" y="680" type="line"/>
      <point x="4" y="597" type="line"/>
      <point x="404" y="597" type="line"/>
      <point x="404" y="453" type="line"/>
      <point x="378" y="479"/>
      <point x="325" y="503"/>
      <point x="274" y="503" type="curve"/>
      <point x="137" y="503"/>
      <point x="47" y="411"/>
      <point x="47" y="291" type="curve"/>
    </contour>
    <contour>
      <point x="208" y="167"/>
      <point x="152" y="218"/>
      <point x="152" y="291" type="curve"/>
      <point x="152" y="365"/>
      <point x="211" y="416"/>
      <point x="276" y="416" type="curve"/>
      <point x="343" y="416"/>
      <point x="381" y="376"/>
      <point x="404" y="342" type="curve"/>
      <point x="404" y="240" type="line"/>
      <point x="381" y="207"/>
      <point x="343" y="167"/>
      <point x="276" y="167" type="curve"/>
    </contour>
  </outline>
</glyph>
<glyph name="dv_Ha" format="1">
  <advance width="546"/>
  <unicode hex="0939"/>
  <outline>
    <contour>
      <point x="355" y="310"/>
      <point x="398" y="276"/>
      <point x="398" y="237" type="curve"/>
      <point x="398" y="209"/>
      <point x="388" y="190"/>
      <point x="361" y="169" type="curve"/>
      <point x="435" y="118" type="line"/>
      <point x="477" y="145"/>
      <point x="495" y="195"/>
      <point x="495" y="242" type="curve"/>
      <point x="495" y="326"/>
      <point x="416" y="396"/>
      <point x="290" y="396" type="curve"/>
      <point x="263" y="396"/>
      <point x="238" y="393"/>
      <point x="215" y="386" type="curve"/>
      <point x="196" y="393"/>
      <point x="185" y="408"/>
      <point x="185" y="427" type="curve"/>
      <point x="186" y="452"/>
      <point x="204" y="466"/>
      <point x="239" y="466" type="curve"/>
      <point x="446" y="466" type="line"/>
      <point x="446" y="597" type="line"/>
      <point x="557" y="597" type="line"/>
      <point x="541" y="680" type="line"/>
      <point x="-11" y="680" type="line"/>
      <point x="3" y="597" type="line"/>
      <point x="336" y="597" type="line"/>
      <point x="336" y="547" type="line"/>
      <point x="229" y="547" type="line" smooth="yes"/>
      <point x="144" y="547"/>
      <point x="84" y="506"/>
      <point x="84" y="425" type="curve"/>
      <point x="84" y="385"/>
      <point x="100" y="354"/>
      <point x="126" y="334" type="curve"/>
      <point x="95" y="302"/>
      <point x="77" y="259"/>
      <point x="77" y="207" type="curve"/>
      <point x="77" y="71"/>
      <point x="210" y="-8"/>
      <point x="359" y="-16" type="curve"/>
      <point x="382" y="68" type="line"/>
      <point x="287" y="75"/>
      <point x="174" y="116"/>
      <point x="174" y="207" type="curve"/>
      <point x="174" y="264"/>
      <point x="221" y="310"/>
      <point x="288" y="310" type="curve"/>
    </contour>
  </outline>
</glyph>
<glyph name="dv_Nukta" format="1">
  <advance width="0"/>
  <unicode hex="093C"/>
  <outline>
    <contour>
      <point x="17" y="-153"/>
      <point x="45" y="-182"/>
      <point x="81" y="-182" type="curve"/>
      <point x="118" y="-182"/>
      <point x="147" y="-153"/>
      <point x="147" y="-117" type="curve"/>
      <point x="147" y="-81"/>
      <point x="118" y="-52"/>
      <point x="81" y="-52" type="curve"/>
      <point x="45" y="-52"/>
      <point x="17" y="-81"/>
      <point x="17" y="-117" type="curve"/>
    </contour>
  </outline>
</glyph>
<glyph name="dv_MatraAa" format="1">
  <advance width="326"/>
  <unicode hex="093E"/>
  <outline>
    <contour>
      <point x="110" y="0" type="line"/>
      <point x="215" y="-16" type="line"/>
      <point x="215" y="597" type="line"/>
      <point x="337" y="597" type="line"/>
      <point x="320" y="680" type="line"/>
      <point x="-11" y="680" type="line"/>
      <point x="4" y="597" type="line"/>
      <point x="110" y="597" type="line"/>
    </contour>
  </outline>
</glyph>
<glyph name="dv_MatraU" format="1">
  <advance width="0"/>
  <unicode hex="0941"/>
  <outline>
    <contour>
      <point x="-224" y="-235"/>
      <point x="-273" y="-182"/>
      <point x="-343" y="-100" type="curve"/>
      <point x="-407" y="-142" type="line"/>
      <point x="-338" y="-251"/>
      <point x="-248" y="-317"/>
      <point x="-154" y="-317" type="curve"/>
      <point x="-64" y="-317"/>
      <point x="11" y="-261"/>
      <point x="11" y="-168" type="curve"/>
      <point x="11" y="-74"/>
      <point x="-66" y="-18"/>
      <point x="-142" y="-18" type="curve"/>
      <point x="-214" y="-18" type="line"/>
      <point x="-214" y="-101" type="line"/>
      <point x="-152" y="-101" type="line" smooth="yes"/>
      <point x="-107" y="-101"/>
      <point x="-78" y="-129"/>
      <point x="-78" y="-168" type="curve"/>
      <point x="-78" y="-207"/>
      <point x="-103" y="-235"/>
      <point x="-152" y="-235" type="curve"/>
    </contour>
  </outline>
</glyph>
<glyph name="dv_MatraVocalicR" format="1">
  <advance width="0"/>
  <unicode hex="0943"/>
  <outline>
    <contour>
      <point x="-217" y="-235"/>
      <point x="-246" y="-207"/>
      <point x="-246" y="-167" type="curve" smooth="yes"/>
      <point x="-246" y="-129"/>
      <point x="-216" y="-100"/>
      <point x="-171" y="-100" type="curve" smooth="yes"/>
      <point x="-109" y="-100" type="line"/>
      <point x="-109" y="-18" type="line"/>
      <point x="-181" y="-18" type="line" smooth="yes"/>
      <point x="-256" y="-18"/>
      <point x="-334" y="-73"/>
      <point x="-334" y="-167" type="curve" smooth="yes"/>
      <point x="-334" y="-260"/>
      <point x="-261" y="-316"/>
      <point x="-181" y="-316" type="curve" smooth="yes"/>
      <point x="-153" y="-316"/>
      <point x="-120" y="-313"/>
      <point x="-88" y="-303" type="curve"/>
      <point x="-105" y="-223" type="line"/>
      <point x="-133" y="-231"/>
      <point x="-153" y="-235"/>
      <point x="-171" y="-235" type="curve" smooth="yes"/>
    </contour>
  </outline>
</glyph>
<glyph name="dv_MatraCandraE" format="1">
  <advance width="0"/>
  <unicode hex="0945"/>
  <outline>
    <contour>
      <point x="389" y="944" type="line"/>
      <point x="350" y="871"/>
      <point x="294" y="842"/>
      <point x="239" y="842" type="curve"/>
      <point x="183" y="842"/>
      <point x="123" y="874"/>
      <point x="88" y="944" type="curve"/>
      <point x="17" y="900" type="line"/>
      <point x="67" y="800"/>
      <point x="147" y="763"/>
      <point x="239" y="763" type="curve"/>
      <point x="329" y="763"/>
      <point x="409" y="800"/>
      <point x="460" y="900" type="curve"/>
    </contour>
  </outline>
</glyph>
<glyph name="dv_MatraCandraO" format="1">
  <advance width="326"/>
  <unicode hex="0949"/>
  <outline>
    <contour>
      <point x="110" y="0" type="line"/>
      <point x="215" y="-16" type="line"/>
      <point x="215" y="597" type="line"/>
      <point x="337" y="597" type="line"/>
      <point x="320" y="680" type="line"/>
      <point x="-11" y="680" type="line"/>
      <point x="4" y="597" type="line"/>
      <point x="110" y="597" type="line"/>
    </contour>
    <contour>
      <point x="313" y="944" type="line"/>
      <point x="274" y="871"/>
      <point x="219" y="842"/>
      <point x="162" y="842" type="curve"/>
      <point x="106" y="842"/>
      <point x="47" y="874"/>
      <point x="13" y="944" type="curve"/>
      <point x="-59" y="900" type="line"/>
      <point x="-8" y="800"/>
      <point x="72" y="763"/>
      <point x="162" y="763" type="curve"/>
      <point x="253" y="763"/>
      <point x="333" y="800"/>
      <point x="384" y="900" type="curve"/>
    </contour>
  </outline>
</glyph>
<glyph name="dv_MatraShortO" format="1">
  <advance width="326"/>
  <unicode hex="094A"/>
  <outline>
    <contour>
      <point x="-49" y="851"/>
      <point x="-83" y="873"/>
      <point x="-83" y="919" type="curve"/>
      <point x="-114" y="924"/>
      <point x="-146" y="929"/>
      <point x="-177" y="935" type="curve"/>
      <point x="-177" y="906" type="line" smooth="yes"/>
      <point x="-177" y="824"/>
      <point x="-105" y="766"/>
      <point x="4" y="766" type="curve" smooth="yes"/>
      <point x="75" y="766"/>
      <point x="113" y="746"/>
      <point x="113" y="689" type="curve" smooth="yes"/>
      <point x="113" y="680" type="line"/>
      <point x="-11" y="680" type="line"/>
      <point x="-5" y="652"/>
      <point x="-1" y="625"/>
      <point x="4" y="597" type="curve"/>
      <point x="110" y="597" type="line"/>
      <point x="110" y="0" type="line"/>
      <point x="215" y="-16" type="line"/>
      <point x="215" y="597" type="line"/>
      <point x="337" y="597" type="line"/>
      <point x="332" y="625"/>
      <point x="326" y="652"/>
      <point x="320" y="680" type="curve"/>
      <point x="212" y="680" type="line"/>
      <point x="212" y="708" type="line" smooth="yes"/>
      <point x="212" y="802"/>
      <point x="116" y="851"/>
      <point x="1" y="851" type="curve" smooth="yes"/>
    </contour>
  </outline>
</glyph>
<glyph name="dv_MatraAw" format="1">
  <advance width="326"/>
  <unicode hex="094F"/>
  <outline>
    <contour>
      <point x="-33" y="797" type="line" smooth="yes"/>
      <point x="-85" y="797"/>
      <point x="-122" y="825"/>
      <point x="-122" y="873" type="curve"/>
      <point x="-206" y="889" type="line"/>
      <point x="-206" y="865" type="line" smooth="yes"/>
      <point x="-206" y="780"/>
      <point x="-135" y="720"/>
      <point x="-28" y="720" type="curve" smooth="yes"/>
      <point x="68" y="720" type="line" smooth="yes"/>
      <point x="108" y="720"/>
      <point x="117" y="711"/>
      <point x="120" y="680" type="curve"/>
      <point x="-11" y="680" type="line"/>
      <point x="4" y="597" type="line"/>
      <point x="110" y="597" type="line"/>
      <point x="110" y="0" type="line"/>
      <point x="215" y="-16" type="line"/>
      <point x="215" y="597" type="line"/>
      <point x="337" y="597" type="line"/>
      <point x="320" y="680" type="line"/>
      <point x="212" y="680" type="line"/>
      <point x="212" y="725" type="line" smooth="yes"/>
      <point x="212" y="804"/>
      <point x="182" y="862"/>
      <point x="100" y="875" type="curve" smooth="yes"/>
      <point x="61" y="881"/>
      <point x="39" y="915"/>
      <point x="39" y="963" type="curve"/>
      <point x="10" y="968"/>
      <point x="-18" y="974"/>
      <point x="-46" y="980" type="curve"/>
      <point x="-46" y="954" type="line" smooth="yes"/>
      <point x="-46" y="887"/>
      <point x="-24" y="844"/>
      <point x="44" y="830" type="curve"/>
      <point x="69" y="824"/>
      <point x="85" y="809"/>
      <point x="99" y="794" type="curve"/>
      <point x="81" y="796"/>
      <point x="62" y="797"/>
      <point x="39" y="797" type="curve" smooth="yes"/>
    </contour>
  </outline>
</glyph>
<glyph name="dv_Graveaccent" format="1">
  <advance width="0"/>
  <unicode hex="0953"/>
  <outline>
    <contour>
      <point x="197" y="751" type="line"/>
      <point x="121" y="946" type="line"/>
      <point x="17" y="946" type="line"/>
      <point x="131" y="751" type="line"/>
    </contour>
  </outline>
</glyph>
<glyph name="dv_MatraUue" format="1">
  <advance width="0"/>
  <unicode hex="0957"/>
  <outline>
    <contour>
      <point x="440" y="-45" type="line"/>
      <point x="405" y="-117"/>
      <point x="340" y="-132"/>
      <point x="297" y="-132" type="curve"/>
      <point x="252" y="-132"/>
      <point x="186" y="-112"/>
      <point x="156" y="-45" type="curve"/>
      <point x="84" y="-87" type="line"/>
      <point x="137" y="-184"/>
      <point x="236" y="-206"/>
      <point x="297" y="-206" type="curve"/>
      <point x="358" y="-206"/>
      <point x="457" y="-185"/>
      <point x="512" y="-87" type="curve"/>
    </contour>
    <contour>
      <point x="502" y="-152" type="line"/>
      <point x="453" y="-218"/>
      <point x="374" y="-245"/>
      <point x="297" y="-245" type="curve"/>
      <point x="219" y="-245"/>
      <point x="134" y="-212"/>
      <point x="87" y="-152" type="curve"/>
      <point x="17" y="-196" type="line"/>
      <point x="84" y="-290"/>
      <point x="198" y="-322"/>
      <point x="297" y="-322" type="curve"/>
      <point x="398" y="-322"/>
      <point x="508" y="-292"/>
      <point x="573" y="-195" type="curve"/>
    </contour>
  </outline>
</glyph>
<glyph name="dv_Qa" format="1">
  <advance width="906"/>
  <unicode hex="0958"/>
  <outline>
    <contour>
      <point x="115" y="-93"/>
      <point x="143" y="-121"/>
      <point x="180" y="-121" type="curve" smooth="yes"/>
      <point x="217" y="-121"/>
      <point x="245" y="-93"/>
      <point x="245" y="-57" type="curve" smooth="yes"/>
      <point x="245" y="-21"/>
      <point x="217" y="8"/>
      <point x="180" y="8" type="curve" smooth="yes"/>
      <point x="143" y="8"/>
      <point x="115" y="-21"/>
      <point x="115" y="-57" type="curve" smooth="yes"/>
    </contour>
    <contour>
      <point x="762" y="218"/>
      <point x="703" y="167"/>
      <point x="622" y="167" type="curve"/>
      <point x="640" y="80" type="line"/>
      <point x="757" y="80"/>
      <point x="866" y="160"/>
      <point x="866" y="291" type="curve" smooth="yes"/>
      <point x="866" y="412"/>
      <point x="776" y="504"/>
      <point x="639" y="504" type="curve" smooth="yes"/>
      <point x="586" y="504"/>
      <point x="537" y="480"/>
      <point x="508" y="453" type="curve"/>
      <point x="508" y="597" type="line"/>
      <point x="918" y="597" type="line"/>
      <point x="903" y="680" type="line"/>
      <point x="-11" y="680" type="line"/>
      <point x="-5" y="652"/>
      <point x="-1" y="625"/>
      <point x="4" y="597" type="curve"/>
      <point x="404" y="597" type="line"/>
      <point x="404" y="456" type="line"/>
      <point x="374" y="481"/>
      <point x="325" y="504"/>
      <point x="274" y="504" type="curve" smooth="yes"/>
      <point x="137" y="504"/>
      <point x="47" y="412"/>
      <point x="47" y="291" type="curve" smooth="yes"/>
      <point x="47" y="166"/>
      <point x="143" y="80"/>
      <point x="274" y="80" type="curve" smooth="yes"/>
      <point x="325" y="80"/>
      <point x="374" y="103"/>
      <point x="404" y="128" type="curve"/>
      <point x="404" y="0" type="line"/>
      <point x="508" y="-16" type="line"/>
      <point x="508" y="338" type="line"/>
      <point x="530" y="370"/>
      <point x="566" y="417"/>
      <point x="641" y="417" type="curve" smooth="yes"/>
      <point x="706" y="417"/>
      <point x="761" y="366"/>
      <point x="762" y="292" type="curve" smooth="yes"/>
    </contour>
    <contour>
      <point x="152" y="366"/>
      <point x="209" y="417"/>
      <point x="273" y="417" type="curve" smooth="yes"/>
      <point x="350" y="417"/>
      <point x="381" y="373"/>
      <point x="404" y="340" type="curve"/>
      <point x="404" y="244" type="line"/>
      <point x="380" y="209"/>
      <point x="350" y="167"/>
      <point x="273" y="167" type="curve" smooth="yes"/>
      <point x="206" y="167"/>
      <point x="152" y="218"/>
      <point x="152" y="292" type="curve" smooth="yes"/>
    </contour>
  </outline>
</glyph>
<glyph name="dv_Fa" format="1">
  <advance width="951"/>
  <unicode hex="095E"/>
  <outline>
    <contour>
      <point x="158" y="-19"/>
      <point x="186" y="-48"/>
      <point x="222" y="-48" type="curve" smooth="yes"/>
      <point x="259" y="-48"/>
      <point x="288" y="-19"/>
      <point x="288" y="16" type="curve" smooth="yes"/>
      <point x="288" y="52"/>
      <point x="259" y="81"/>
      <point x="222" y="81" type="curve" smooth="yes"/>
      <point x="186" y="81"/>
      <point x="158" y="52"/>
      <point x="158" y="16" type="curve" smooth="yes"/>
    </contour>
    <contour>
      <point x="807" y="210"/>
      <point x="748" y="158"/>
      <point x="667" y="158" type="curve"/>
      <point x="684" y="72" type="line"/>
      <point x="801" y="72"/>
      <point x="911" y="151"/>
      <point x="911" y="283" type="curve" smooth="yes"/>
      <point x="911" y="403"/>
      <point x="821" y="495"/>
      <point x="684" y="495" type="curve" smooth="yes"/>
      <point x="632" y="495"/>
      <point x="583" y="471"/>
      <point x="554" y="446" type="curve"/>
      <point x="554" y="597" type="line"/>
      <point x="963" y="597" type="line"/>
      <point x="957" y="625"/>
      <point x="952" y="652"/>
      <point x="947" y="680" type="curve"/>
      <point x="-11" y="680" type="line"/>
      <point x="-5" y="652"/>
      <point x="-1" y="625"/>
      <point x="4" y="597" type="curve"/>
      <point x="88" y="597" type="line"/>
      <point x="88" y="380" type="line" smooth="yes"/>
      <point x="88" y="244"/>
      <point x="184" y="164"/>
      <point x="314" y="164" type="curve" smooth="yes"/>
      <point x="364" y="164"/>
      <point x="416" y="181"/>
      <point x="449" y="205" type="curve"/>
      <point x="449" y="0" type="line"/>
      <point x="554" y="-16" type="line"/>
      <point x="554" y="330" type="line"/>
      <point x="576" y="363"/>
      <point x="611" y="408"/>
      <point x="687" y="408" type="curve" smooth="yes"/>
      <point x="752" y="408"/>
      <point x="806" y="357"/>
      <point x="807" y="284" type="curve"/>
    </contour>
    <contour>
      <point x="449" y="371" type="line"/>
      <point x="444" y="297"/>
      <point x="394" y="252"/>
      <point x="319" y="252" type="curve" smooth="yes"/>
      <point x="236" y="252"/>
      <point x="193" y="301"/>
      <point x="193" y="380" type="curve" smooth="yes"/>
      <point x="193" y="597" type="line"/>
      <point x="449" y="597" type="line"/>
    </contour>
  </outline>
</glyph>
<glyph name="dv_MatraVocalicL" format="1">
  <advance width="0"/>
  <unicode hex="0962"/>
  <outline>
    <contour>
      <point x="264" y="-147" type="line" smooth="yes"/>
      <point x="264" y="-111"/>
      <point x="289" y="-93"/>
      <point x="314" y="-93" type="curve"/>
      <point x="335" y="-93"/>
      <point x="357" y="-106"/>
      <point x="357" y="-131" type="curve"/>
      <point x="357" y="-172"/>
      <point x="312" y="-208"/>
      <point x="312" y="-264" type="curve"/>
      <point x="312" y="-307"/>
      <point x="362" y="-322"/>
      <point x="393" y="-322" type="curve"/>
      <point x="415" y="-322" type="line"/>
      <point x="433" y="-257" type="line"/>
      <point x="419" y="-257" type="line" smooth="yes"/>
      <point x="403" y="-257"/>
      <point x="395" y="-245"/>
      <point x="397" y="-234" type="curve"/>
      <point x="404" y="-202"/>
      <point x="437" y="-171"/>
      <point x="437" y="-125" type="curve"/>
      <point x="437" y="-69"/>
      <point x="389" y="-19"/>
      <point x="319" y="-19" type="curve"/>
      <point x="282" y="-19"/>
      <point x="242" y="-44"/>
      <point x="227" y="-72" type="curve"/>
      <point x="213" y="-42"/>
      <point x="174" y="-19"/>
      <point x="136" y="-19" type="curve"/>
      <point x="68" y="-19"/>
      <point x="17" y="-69"/>
      <point x="17" y="-125" type="curve"/>
      <point x="17" y="-189"/>
      <point x="46" y="-242"/>
      <point x="88" y="-324" type="curve"/>
      <point x="164" y="-306" type="line"/>
      <point x="119" y="-220"/>
      <point x="96" y="-178"/>
      <point x="96" y="-130" type="curve"/>
      <point x="96" y="-111"/>
      <point x="117" y="-92"/>
      <point x="138" y="-93" type="curve"/>
      <point x="164" y="-92"/>
      <point x="189" y="-108"/>
      <point x="190" y="-147" type="curve"/>
      <point x="190" y="-210" type="line"/>
      <point x="264" y="-229" type="line"/>
    </contour>
  </outline>
</glyph>
<glyph name="dv_MatraVocalicLl" format="1">
  <advance width="0"/>
  <unicode hex="0963"/>
  <outline>
    <contour>
      <point x="306" y="-385"/>
      <point x="348" y="-406"/>
      <point x="392" y="-406" type="curve" smooth="yes"/>
      <point x="410" y="-406" type="line"/>
      <point x="430" y="-352" type="line"/>
      <point x="403" y="-352" type="line" smooth="yes"/>
      <point x="386" y="-352"/>
      <point x="368" y="-347"/>
      <point x="368" y="-332" type="curve" smooth="yes"/>
      <point x="368" y="-318"/>
      <point x="384" y="-313"/>
      <point x="400" y="-313" type="curve" smooth="yes"/>
      <point x="418" y="-313" type="line"/>
      <point x="424" y="-293"/>
      <point x="429" y="-273"/>
      <point x="435" y="-254" type="curve"/>
      <point x="425" y="-254" type="line" smooth="yes"/>
      <point x="408" y="-254"/>
      <point x="400" y="-248"/>
      <point x="400" y="-235" type="curve" smooth="yes"/>
      <point x="400" y="-202"/>
      <point x="437" y="-173"/>
      <point x="437" y="-125" type="curve" smooth="yes"/>
      <point x="437" y="-69"/>
      <point x="388" y="-18"/>
      <point x="319" y="-18" type="curve" smooth="yes"/>
      <point x="282" y="-18"/>
      <point x="242" y="-43"/>
      <point x="227" y="-71" type="curve"/>
      <point x="213" y="-41"/>
      <point x="174" y="-18"/>
      <point x="136" y="-18" type="curve" smooth="yes"/>
      <point x="68" y="-18"/>
      <point x="17" y="-70"/>
      <point x="17" y="-125" type="curve" smooth="yes"/>
      <point x="17" y="-188"/>
      <point x="46" y="-241"/>
      <point x="88" y="-323" type="curve"/>
      <point x="164" y="-305" type="line"/>
      <point x="119" y="-220"/>
      <point x="96" y="-178"/>
      <point x="96" y="-130" type="curve" smooth="yes"/>
      <point x="96" y="-111"/>
      <point x="120" y="-92"/>
      <point x="138" y="-92" type="curve" smooth="yes"/>
      <point x="163" y="-92"/>
      <point x="190" y="-107"/>
      <point x="190" y="-147" type="curve" smooth="yes"/>
      <point x="190" y="-210" type="line"/>
      <point x="264" y="-228" type="line"/>
      <point x="264" y="-147" type="line" smooth="yes"/>
      <point x="264" y="-113"/>
      <point x="289" y="-92"/>
      <point x="314" y="-92" type="curve" smooth="yes"/>
      <point x="340" y="-92"/>
      <point x="359" y="-109"/>
      <point x="359" y="-133" type="curve" smooth="yes"/>
      <point x="359" y="-173"/>
      <point x="321" y="-201"/>
      <point x="321" y="-258" type="curve" smooth="yes"/>
      <point x="321" y="-266"/>
      <point x="323" y="-278"/>
      <point x="330" y="-285" type="curve"/>
      <point x="316" y="-294"/>
      <point x="306" y="-311"/>
      <point x="306" y="-332" type="curve" smooth="yes"/>
    </contour>
  </outline>
</glyph>
<glyph name="dv_DoubleDanda" format="1">
  <advance width="717"/>
  <unicode hex="0965"/>
  <outline>
    <contour>
      <point x="244" y="755" type="line"/>
      <point x="140" y="771" type="line"/>
      <point x="140" y="0" type="line"/>
      <point x="245" y="-16" type="line"/>
    </contour>
    <contour>
      <point x="577" y="755" type="line"/>
      <point x="471" y="771" type="line"/>
      <point x="471" y="0" type="line"/>
      <point x="577" y="-16" type="line"/>
    </contour>
  </outline>
</glyph>
<glyph name="dv_Five" format="1">
  <advance width="535"/>
  <unicode hex="096B"/>
  <outline>
    <contour>
      <point x="333" y="70"/>
      <point x="316" y="70"/>
      <point x="276" y="83" type="curve"/>
      <point x="252" y="1" type="line"/>
      <point x="294" y="-14"/>
      <point x="341" y="-16"/>
      <point x="361" y="-16" type="curve" smooth="yes"/>
      <point x="484" y="-16"/>
      <point x="518" y="54"/>
      <point x="518" y="130" type="curve" smooth="yes"/>
      <point x="518" y="169"/>
      <point x="497" y="250"/>
      <point x="461" y="304" type="curve"/>
      <point x="476" y="321"/>
      <point x="480" y="338"/>
      <point x="480" y="356" type="curve" smooth="yes"/>
      <point x="480" y="403"/>
      <point x="431" y="436"/>
      <point x="385" y="436" type="curve" smooth="yes"/>
      <point x="349" y="436"/>
      <point x="323" y="400"/>
      <point x="323" y="376" type="curve" smooth="yes"/>
      <point x="323" y="361"/>
      <point x="327" y="347"/>
      <point x="333" y="333" type="curve"/>
      <point x="241" y="333"/>
      <point x="184" y="366"/>
      <point x="184" y="467" type="curve" smooth="yes"/>
      <point x="184" y="680" type="line"/>
      <point x="80" y="680" type="line"/>
      <point x="80" y="467" type="line" smooth="yes"/>
      <point x="80" y="313"/>
      <point x="190" y="246"/>
      <point x="323" y="246" type="curve" smooth="yes"/>
      <point x="344" y="246"/>
      <point x="367" y="248"/>
      <point x="389" y="253" type="curve"/>
      <point x="409" y="220"/>
      <point x="426" y="178"/>
      <point x="426" y="129" type="curve" smooth="yes"/>
      <point x="426" y="97"/>
      <point x="406" y="70"/>
      <point x="354" y="70" type="curve" smooth="yes"/>
    </contour>
  </outline>
</glyph>
<glyph name="dv_Six" format="1">
  <advance width="563"/>
  <unicode hex="096C"/>
  <outline>
    <contour>
      <point x="529" y="-4" type="line"/>
      <point x="507" y="33"/>
      <point x="482" y="73"/>
      <point x="460" y="112" type="curve"/>
      <point x="481" y="133"/>
      <point x="494" y="157"/>
      <point x="494" y="179" type="curve" smooth="yes"/>
      <point x="494" y="224"/>
      <point x="439" y="254"/>
      <point x="399" y="254" type="curve" smooth="yes"/>
      <point x="363" y="254"/>
      <point x="338" y="227"/>
      <point x="338" y="194" type="curve" smooth="yes"/>
      <point x="338" y="184"/>
      <point x="339" y="176"/>
      <point x="340" y="167" type="curve"/>
      <point x="326" y="163"/>
      <point x="311" y="161"/>
      <point x="294" y="161" type="curve" smooth="yes"/>
      <point x="228" y="161"/>
      <point x="169" y="199"/>
      <point x="169" y="253" type="curve" smooth="yes"/>
      <point x="169" y="310"/>
      <point x="206" y="362"/>
      <point x="307" y="362" type="curve" smooth="yes"/>
      <point x="405" y="362" type="line"/>
      <point x="393" y="437" type="line"/>
      <point x="301" y="437" type="line" smooth="yes"/>
      <point x="220" y="437"/>
      <point x="180" y="475"/>
      <point x="180" y="532" type="curve" smooth="yes"/>
      <point x="180" y="582"/>
      <point x="223" y="611"/>
      <point x="280" y="611" type="curve" smooth="yes"/>
      <point x="343" y="611"/>
      <point x="398" y="585"/>
      <point x="443" y="551" type="curve"/>
      <point x="448" y="580"/>
      <point x="452" y="608"/>
      <point x="456" y="637" type="curve"/>
      <point x="405" y="674"/>
      <point x="341" y="696"/>
      <point x="265" y="696" type="curve" smooth="yes"/>
      <point x="143" y="696"/>
      <point x="74" y="621"/>
      <point x="74" y="534" type="curve" smooth="yes"/>
      <point x="74" y="475"/>
      <point x="106" y="417"/>
      <point x="164" y="399" type="curve"/>
      <point x="99" y="383"/>
      <point x="63" y="320"/>
      <point x="63" y="253" type="curve" smooth="yes"/>
      <point x="63" y="151"/>
      <point x="152" y="74"/>
      <point x="286" y="74" type="curve" smooth="yes"/>
      <point x="310" y="74"/>
      <point x="353" y="74"/>
      <point x="379" y="84" type="curve"/>
      <point x="382" y="77"/>
      <point x="386" y="70"/>
      <point x="390" y="63" type="curve" smooth="yes"/>
      <point x="447" y="-42" type="line"/>
    </contour>
  </outline>
</glyph>
<glyph name="dv_Eight" format="1">
  <advance width="576"/>
  <unicode hex="096E"/>
  <outline>
    <contour>
      <point x="211" y="75"/>
      <point x="158" y="136"/>
      <point x="158" y="212" type="curve"/>
      <point x="158" y="345"/>
      <point x="254" y="492"/>
      <point x="402" y="629" type="curve"/>
      <point x="342" y="704" type="line"/>
      <point x="210" y="587"/>
      <point x="54" y="380"/>
      <point x="54" y="208" type="curve"/>
      <point x="54" y="83"/>
      <point x="136" y="-18"/>
      <point x="285" y="-18" type="curve"/>
      <point x="482" y="-18"/>
      <point x="522" y="127"/>
      <point x="519" y="219" type="curve"/>
      <point x="430" y="245" type="line"/>
      <point x="430" y="100"/>
      <point x="354" y="75"/>
      <point x="293" y="75" type="curve"/>
    </contour>
  </outline>
</glyph>
<glyph name="dv_Highspacedot" format="1">
  <advance width="210"/>
  <unicode hex="0971"/>
  <outline>
    <contour>
      <point x="40" y="259"/>
      <point x="68" y="231"/>
      <point x="104" y="231" type="curve" smooth="yes"/>
      <point x="141" y="231"/>
      <point x="170" y="259"/>
      <point x="170" y="295" type="curve" smooth="yes"/>
      <point x="170" y="332"/>
      <point x="141" y="360"/>
      <point x="104" y="360" type="curve" smooth="yes"/>
      <point x="68" y="360"/>
      <point x="40" y="332"/>
      <point x="40" y="295" type="curve" smooth="yes"/>
    </contour>
  </outline>
</glyph>
<glyph name="dv_Aw" format="1">
  <advance width="1220"/>
  <unicode hex="0975"/>
  <outline>
    <contour>
      <point x="858" y="797" type="line" smooth="yes"/>
      <point x="806" y="797"/>
      <point x="769" y="825"/>
      <point x="769" y="873" type="curve"/>
      <point x="685" y="889" type="line"/>
      <point x="685" y="865" type="line" smooth="yes"/>
      <point x="685" y="780"/>
      <point x="756" y="720"/>
      <point x="863" y="720" type="curve" smooth="yes"/>
      <point x="959" y="720" type="line" smooth="yes"/>
      <point x="999" y="720"/>
      <point x="1008" y="711"/>
      <point x="1011" y="680" type="curve"/>
      <point x="577" y="680" type="line"/>
      <point x="594" y="597" type="line"/>
      <point x="700" y="597" type="line"/>
      <point x="700" y="389" type="line"/>
      <point x="433" y="389" type="line"/>
      <point x="473" y="417"/>
      <point x="501" y="463"/>
      <point x="501" y="510" type="curve" smooth="yes"/>
      <point x="501" y="608"/>
      <point x="437" y="696"/>
      <point x="287" y="696" type="curve" smooth="yes"/>
      <point x="206" y="696"/>
      <point x="132" y="670"/>
      <point x="77" y="631" type="curve"/>
      <point x="82" y="602"/>
      <point x="87" y="573"/>
      <point x="91" y="544" type="curve"/>
      <point x="153" y="588"/>
      <point x="212" y="611"/>
      <point x="279" y="611" type="curve" smooth="yes"/>
      <point x="356" y="611"/>
      <point x="394" y="563"/>
      <point x="394" y="508" type="curve" smooth="yes"/>
      <point x="394" y="444"/>
      <point x="346" y="388"/>
      <point x="241" y="388" type="curve" smooth="yes"/>
      <point x="137" y="388" type="line"/>
      <point x="155" y="313" type="line"/>
      <point x="234" y="313" type="line" smooth="yes"/>
      <point x="368" y="313"/>
      <point x="409" y="264"/>
      <point x="409" y="185" type="curve" smooth="yes"/>
      <point x="409" y="108"/>
      <point x="345" y="70"/>
      <point x="269" y="70" type="curve" smooth="yes"/>
      <point x="201" y="70"/>
      <point x="140" y="90"/>
      <point x="84" y="127" type="curve"/>
      <point x="65" y="41" type="line"/>
      <point x="116" y="10"/>
      <point x="191" y="-15"/>
      <point x="272" y="-15" type="curve" smooth="yes"/>
      <point x="426" y="-15"/>
      <point x="515" y="71"/>
      <point x="515" y="187" type="curve" smooth="yes"/>
      <point x="515" y="239"/>
      <point x="491" y="284"/>
      <point x="447" y="311" type="curve"/>
      <point x="700" y="311" type="line"/>
      <point x="700" y="0" type="line"/>
      <point x="804" y="-16" type="line"/>
      <point x="804" y="597" type="line"/>
      <point x="1004" y="597" type="line"/>
      <point x="1004" y="0" type="line"/>
      <point x="1109" y="-16" type="line"/>
      <point x="1109" y="597" type="line"/>
      <point x="1231" y="597" type="line"/>
      <point x="1225" y="625"/>
      <point x="1221" y="652"/>
      <point x="1215" y="680" type="curve"/>
      <point x="1103" y="680" type="line"/>
      <point x="1103" y="725" type="line" smooth="yes"/>
      <point x="1103" y="804"/>
      <point x="1073" y="862"/>
      <point x="991" y="875" type="curve" smooth="yes"/>
      <point x="952" y="881"/>
      <point x="930" y="915"/>
      <point x="930" y="963" type="curve"/>
      <point x="901" y="968"/>
      <point x="873" y="974"/>
      <point x="845" y="980" type="curve"/>
      <point x="845" y="954" type="line" smooth="yes"/>
      <point x="845" y="887"/>
      <point x="867" y="844"/>
      <point x="935" y="830" type="curve"/>
      <point x="960" y="824"/>
      <point x="976" y="809"/>
      <point x="990" y="794" type="curve"/>
      <point x="972" y="796"/>
      <point x="953" y="797"/>
      <point x="930" y="797" type="curve" smooth="yes"/>
    </contour>
  </outline>
</glyph>
